<?xml version="1.0" encoding="UTF-8"?>
<svg id="Layer_2" data-name="Layer 2" xmlns="http://www.w3.org/2000/svg" viewBox="0 0 195.68 252.7">
  <defs>
    <style>
      .cls-1 {
        fill: none;
      }

      .cls-2 {
        fill: #cecece;
      }
    </style>
  </defs>
  <g id="Layer_1-2" data-name="Layer 1">
    <g>
      <path class="cls-1" d="M188.82,132c-.17,0-.34-.04-.5-.14-.46-.27-.61-.87-.34-1.34,3.34-5.6,5.68-12.48,6.63-19.4-.56-1.05-1.07-2.13-1.55-3.21-.77,5.9-3.18,11.56-5.36,16.63l-1.75,4.06c-.16,.37-.52,.59-.89,.59-.13,0-.26-.03-.39-.08-.49-.21-.72-.79-.5-1.28l1.74-4.06c2.57-6,5.23-12.22,5.44-18.78,0-.2,.09-.38,.2-.53-.4-.9-.82-1.78-1.26-2.62,.25,5.28-1.09,11.02-4.04,17.1-.17,.35-.52,.55-.88,.55-.14,0-.29-.03-.42-.1-.48-.23-.69-.82-.45-1.3,3.45-7.14,4.62-13.98,3.39-19.8,0-.02,0-.05,0-.07-.62-.71-1.31-1.35-2.09-1.91-1.11-.79-2.4-1.37-3.75-1.86,.31,4.28-.36,9.71-1.76,13.8-.14,.41-.52,.66-.92,.66-.11,0-.21-.02-.32-.05-.51-.17-.78-.73-.61-1.24,1.42-4.14,2.04-9.73,1.57-13.85-.32-.1-.64-.2-.96-.3-3-.92-6.08-1.88-8.35-4.09,.12,2.18-.15,4.38-.85,6.43-.14,.4-.52,.66-.92,.66-.11,0-.21-.02-.32-.05-.51-.17-.78-.73-.61-1.24,1.12-3.27,1.05-6.98-.18-10.2-.02-.05-.02-.11-.03-.16-.06-.12-.11-.25-.17-.37-.26-.58-.52-1.15-.8-1.72-2.34-4.65-6.7-8.37-12.11-10.4,2.51,3.36,4.05,7.42,4.93,10.56,1.11,1.81,2.1,3.69,3.05,5.58,.22-.65,.49-1.28,.76-1.88,.62-1.42,1.22-2.75,.93-3.97-.12-.52,.2-1.05,.73-1.17,.53-.13,1.05,.2,1.17,.73,.43,1.86-.35,3.63-1.05,5.2-.66,1.48-1.27,2.88-.83,4.1,.06,.17,.06,.34,.02,.51l6.18,12.67c.59,1.22,1.19,2.44,1.78,3.67,.01,0,.02,.02,.03,.02,.11,.08,.19,.19,.26,.3-.15-3.6,.35-6.98,1.49-9.97,.19-.5,.76-.76,1.26-.56,.5,.19,.76,.76,.56,1.26-1.67,4.37-1.84,9.68-.5,15.34,.02,.1,.02,.2,0,.29,.7,1.58,1.37,3.17,2.01,4.77l1.71-2.77c.28-.46,.89-.6,1.34-.32,.46,.28,.6,.88,.32,1.34l-2.29,3.71c-.06,.1-.14,.18-.23,.25,.11,.29,.22,.57,.32,.86,.34,.94,.67,1.9,.99,2.85,1.27,3.71,2.59,7.54,4.78,10.77l1.47-2.07c.31-.44,.92-.54,1.36-.23,.44,.31,.54,.92,.23,1.36l-1.82,2.57c1.66,2.02,3.68,3.81,5.65,5.53,1.47,1.29,2.97,2.6,4.35,4.02v-14.26c-.16,0-.33-.05-.48-.14-.46-.28-.6-.88-.33-1.34,.29-.48,.56-.97,.81-1.46v-14.34c-1.25,5.52-3.32,10.86-6.02,15.39-.18,.31-.51,.48-.84,.48Zm-6.45-16.89c-.19,.28-.5,.43-.81,.43-.19,0-.37-.05-.54-.17-.45-.3-.57-.91-.27-1.35,.68-1.02,1.1-2.2,1.2-3.42,.05-.54,.53-.92,1.05-.89,.54,.05,.93,.52,.89,1.05-.13,1.55-.66,3.05-1.53,4.34Zm8.77,23.52l2.15-3.04c.31-.44,.92-.54,1.36-.23,.44,.31,.54,.92,.23,1.36l-2.15,3.04c-.19,.27-.49,.41-.79,.41-.2,0-.39-.06-.57-.18-.44-.31-.54-.92-.23-1.36Z"/>
      <path class="cls-1" d="M190.05,145.11c-.07-.06-.15-.13-.22-.19-1.39-.35-3.07-.52-4.86-.7-2.55-.25-5.19-.51-7.24-1.36-2.74-1.14-4.73-3.31-6.65-5.41-.84-.92-1.7-1.86-2.6-2.68-.4-.36-.43-.98-.06-1.38,.36-.4,.98-.42,1.38-.06,.96,.88,1.86,1.86,2.72,2.81,1.86,2.03,3.61,3.95,5.96,4.92,1.79,.74,4.28,.99,6.69,1.22,.67,.07,1.33,.14,1.97,.21-1.36-1.28-2.68-2.64-3.79-4.16-.2-.27-.38-.55-.56-.83-.74-.56-1.5-1.13-2.28-1.7-3.81-2.82-7.76-5.73-10.39-9.49-.39-.56-.75-1.12-1.12-1.69-.84-1.31-1.64-2.54-2.65-3.59-2.23-2.29-5.47-3.56-8.32-4.67-.5-.2-.75-.76-.55-1.26,.2-.5,.76-.75,1.26-.55,3.04,1.19,6.48,2.53,9.01,5.13,1.15,1.19,2.04,2.56,2.89,3.89,.35,.55,.7,1.1,1.07,1.63,2.19,3.12,5.47,5.71,8.78,8.17-1.05-2.29-1.87-4.68-2.68-7.03-.07-.22-.15-.43-.22-.64-.12-.04-.23-.1-.33-.19-1.84-1.65-3.5-3.5-4.94-5.48-.59-.82-1.15-1.67-1.71-2.52-.87-1.32-1.69-2.57-2.65-3.73-3.36-4.06-8.29-6.78-12.64-9.18-.47-.26-.64-.85-.38-1.32s.85-.65,1.32-.38c4.5,2.49,9.61,5.3,13.2,9.65,1.03,1.24,1.92,2.59,2.77,3.9,.54,.82,1.08,1.65,1.66,2.44,.69,.95,1.43,1.86,2.22,2.74-1.57-4.08-3.42-8.1-5.31-12.04-2.64-2.16-4.73-4.97-6.58-7.47-1.97-2.65-4-5.4-6.61-7.43-2.58-1.99-5.49-2.96-8.09-2.74,.09,.96,.18,1.92,.26,2.86,.49,5.68,.96,11.04,3.54,15.75,.53,.96,1.16,1.91,1.76,2.82,.97,1.47,1.98,2.98,2.67,4.67,.95,2.29,1.26,4.75,1.57,7.14,.36,2.8,.7,5.44,1.98,7.73,.82,1.46,1.97,2.69,3.2,3.99,.68,.73,1.36,1.46,1.99,2.23,2.68,3.29,4.3,7.29,5.88,11.16,1.97,4.84,3.83,9.4,7.54,12.59,2.48,2.12,5.51,3.37,8.72,4.69,1.58,.65,3.21,1.32,4.76,2.1,.78,.39,1.53,.82,2.27,1.27v-5.27c-3.15-2.64-7.1-4.41-10.45-5.92-.49-.22-.71-.8-.49-1.29,.22-.49,.8-.71,1.29-.49,3.05,1.37,6.57,2.97,9.65,5.23v-8.22c-1.85-.86-3.97-1.26-5.79-1.19-.26,.01-.52,.04-.78,.06-.74,.07-1.51,.13-2.32,0-1.02-.16-1.91-.6-2.76-1.02-.87-.43-1.69-.84-2.52-.87-.54-.02-.96-.47-.93-1.01,.02-.54,.45-1.02,1.01-.93,1.24,.05,2.29,.57,3.31,1.07,.76,.38,1.47,.73,2.19,.84,.57,.09,1.19,.03,1.85-.02,.29-.02,.57-.05,.86-.06,1.86-.09,3.95,.25,5.88,1.01v-2.27c-1.62-1.97-3.58-3.69-5.63-5.48Zm-23.06-15.79l-.04,.5-.69,.42-.35,.02c-.24,0-.59-.07-.95-.43-.58-.58-1.15-1.15-1.73-1.73l-.55-.55,1.31-1.44c2.94,2.44,3.05,2.54,2.99,3.19Zm22.02,34.87c.34-.42,.95-.48,1.37-.15l3.5,2.85c.42,.34,.48,.95,.14,1.37-.19,.24-.47,.36-.76,.36-.22,0-.43-.07-.61-.22l-3.5-2.84c-.42-.34-.48-.95-.15-1.37Zm-13.93-17.75c-.19,.21-.45,.31-.71,.31-.24,0-.48-.09-.67-.26l-1.38-1.27c-.39-.37-.41-.98-.04-1.38,.37-.4,.98-.42,1.38-.05l1.38,1.27c.39,.37,.42,.98,.05,1.38Zm3.63,3.63c-.18,0-.35-.05-.52-.15l-2.02-1.25c-.46-.28-.6-.88-.31-1.34,.29-.46,.88-.59,1.34-.31l2.02,1.25c.46,.29,.59,.89,.31,1.34-.18,.3-.5,.46-.83,.46Zm2.26,4.39l1.97,1.41c.44,.31,.54,.92,.23,1.36-.19,.27-.49,.41-.79,.41-.2,0-.39-.06-.57-.18l-1.97-1.41c-.44-.31-.54-.92-.22-1.36,.31-.44,.92-.54,1.36-.22Z"/>
      <path class="cls-1" d="M153.19,178.09c1.98,1.19,4.18,1.87,6.52,2.59l1.57,.49c5.06,1.61,9.94,3.79,14.51,6.47,.12,.07,.22,.17,.3,.28,.71-.02,1.41-.02,2.11,0-6.41-2.52-12.32-7.19-15.52-12.66-4.07-2.29-8.28-4.29-12.81-4.94-1.15-.17-2.36-.25-3.59-.25-.24,0-.47,.02-.71,.02,2.08,2.96,4.45,6.1,7.61,8Z"/>
      <path class="cls-1" d="M158.82,93.14c2.32,1.8,4.15,4.04,5.87,6.31-1.68-2.45-3.52-4.79-5.54-6.98-.36-.4-.34-1.01,.06-1.38,.39-.37,1.01-.34,1.38,.06,1.03,1.11,2,2.27,2.94,3.44l-1.36-2.79c-2.31-4.72-4.7-9.61-8.32-13.43-4.25-4.48-10.1-7.28-16.23-7.84,2.86,1.05,5.15,3.1,6.93,5.63,4.77,2.46,8.19,4.85,10.44,7.29,.36,.4,.34,1.01-.05,1.38-.19,.17-.43,.26-.66,.26-.26,0-.52-.11-.71-.31-1.64-1.77-3.98-3.54-7.1-5.35,.97,2.01,1.68,4.15,2.16,6.24,2.76,.47,5.41,1.58,7.67,3.24,.43,.32,.53,.93,.21,1.36-.19,.26-.49,.4-.79,.4-.2,0-.4-.06-.57-.19-1.81-1.33-3.91-2.24-6.11-2.72,0,.05,.02,.1,.03,.16,.11,.69,.18,1.39,.26,2.09,3.1-.27,6.51,.83,9.5,3.13Z"/>
      <path class="cls-1" d="M140.76,151.33c-9.96-5.46-21.97-6.89-32.56-8.15-.54-.06-.92-.55-.85-1.08,.06-.54,.56-.94,1.08-.85,8.74,1.04,18.42,2.19,27.26,5.6l-8.93-7.48c-4.02-1.42-10.91-1.84-19.57-2.36-1.59-.1-3.23-.2-4.92-.31-6.95-.45-16.94-1.82-23.43-8.37-.9-.91-1.72-1.9-2.5-2.85-.71-.86-1.44-1.75-2.22-2.55-3.35-3.45-7.76-5.61-12.15-7.6,.78,2.34,1.6,4.75,2.77,6.9,3.86,7.1,11.31,11.45,18.78,15.09,20.19,9.82,41.65,16.31,63.86,19.32l-6.19-5.19c-.14,0-.28-.04-.42-.11Z"/>
      <path class="cls-1" d="M155.26,77.03c.06,.07,.12,.14,.18,.2-1.06-2.15-2.43-4.26-4.18-5.92-.1-.1-.18-.21-.23-.33-.94-.43-1.87-.93-2.79-1.43-2.25-1.22-4.57-2.48-6.74-2.48-1.35,0-2.58,.5-3.75,1.51,6.61,.59,12.92,3.62,17.5,8.44Z"/>
      <path class="cls-1" d="M93.89,196.98c3.25,.65,6.61,1.32,9.86,.76,1.37-.23,2.68-.67,4.08-1.14,.97-.33,1.95-.65,2.94-.91,1.7-.43,3.44-.65,5.16-.75-2.05-.63-4.06-1.41-5.97-2.41-2.74-1.43-5.2-3.26-7.5-5.27-3.15-1.4-5.79-2.09-8.24-2.01-.83,0-1.66,.09-2.48,.18-1.09,.11-2.21,.22-3.36,.18-1.41-.07-2.78-.38-4.07-.78,1.37,2.07,2.7,4.16,4.02,6.23,1.48,2.33,2.95,4.63,4.44,6.87,0-.06-.01-.12,0-.18,.11-.53,.61-.89,1.15-.77Zm-5.01-5.73c.06-.54,.56-.94,1.09-.85l4.73,.58c.53,.06,.91,.55,.85,1.09-.06,.49-.48,.85-.96,.85-.04,0-.08,0-.12,0l-4.72-.58c-.54-.07-.92-.55-.85-1.09Z"/>
      <path class="cls-1" d="M96.34,178.49c.09,.1,.18,.19,.27,.29-.36-1.17-.62-2.38-.69-3.63-.03-.56-.01-1.12,0-1.68,.01-.68,.03-1.36-.03-2.03-.07-.7-.31-1.96-1.19-2.64-.14-.11-.23-.26-.29-.42-1.77-1.08-3.51-2.21-5.24-3.33-1.22-.79-2.46-1.59-3.71-2.38l2.62,7.32c.05,.15,.06,.3,.04,.44,.86,.74,1.71,1.5,2.53,2.28,1.96,1.85,3.86,3.85,5.69,5.78Z"/>
      <path class="cls-1" d="M82.92,175.47c1.34,.17,2.73,.25,4.07,.32,1.37,.08,2.74,.15,4.11,.32,.09,.01,.19,.02,.28,.04-.68-.69-1.37-1.37-2.06-2.03-12.02-11.36-28-18.15-44.5-19.09,8.09,2.52,16.38,5.73,23.26,11.04,.81,.62,1.59,1.28,2.36,1.95,3.23,.4,6.53,.67,9.81,.79,.54,.02,.96,.47,.94,1.01-.02,.52-.45,.94-.97,.94-.01,0-.02,0-.04,0-2.45-.09-4.91-.26-7.34-.5,.79,.79,1.57,1.6,2.32,2.44,.23-.01,.47,.04,.66,.2,1.73,1.36,4.06,2.2,7.12,2.59Z"/>
      <path class="cls-1" d="M91.52,183.49c.89-.09,1.77-.18,2.66-.19,1.48,0,2.99,.2,4.59,.61-.06-.07-.11-.14-.15-.22,0-.01,0-.02-.01-.03-1.25-1.26-2.48-2.54-3.69-3.82-.15-.16-.3-.32-.45-.48-.17-.03-.33-.1-.46-.22-.79-.72-2.04-.96-3.15-1.09-1.33-.16-2.66-.24-3.98-.31-1.37-.08-2.8-.16-4.2-.33-1.65-.21-3.12-.54-4.42-1.01,1.47,1.86,2.87,3.79,4.22,5.75,1.85,.68,3.92,1.43,5.97,1.52,.99,.05,2-.06,3.07-.17Z"/>
      <path class="cls-1" d="M72.69,156.63c-.04-.08-.08-.17-.11-.25l.03-.02c-.03-.11-.06-.21-.08-.3-6.57-2.43-13.58-3.71-20.64-3.71-2.89,0-5.75,.22-8.54,.65,10.82,.4,21.48,3.26,31.06,8.22-.94-2.43-1.45-3.8-1.72-4.6Z"/>
      <path class="cls-1" d="M97.88,173.51c-.01,.52-.03,1.03,0,1.54,.13,2.57,1.24,5.05,2.36,7.46,1.06,1.06,2.15,2.09,3.27,3.08,.04,.02,.09,.04,.13,.06,.2,.09,.34,.25,.44,.43,2.11,1.81,4.34,3.45,6.79,4.73,6.28,3.29,13.6,4.14,20.06,4.89,.29,.03,.58,.07,.87,.1-4.31-2.76-7.96-6.52-10.55-10.97-.25-.43-.49-.87-.73-1.3-.76-1.38-1.47-2.68-2.47-3.74-1.74-1.86-4.33-2.95-6.61-3.91-.28-.12-.47-.36-.55-.64-1.55-.25-3.05-.62-4.53-1.08,.84,3.54,2.92,7.33,9.57,13.71,.49,.35,1.15,.81,1.81,1.27,1.53,1.06,3.11,2.17,4.01,3.09,.37,.39,.37,1-.02,1.38-.19,.19-.44,.28-.68,.28s-.51-.1-.7-.3c-.77-.79-2.28-1.84-3.73-2.86-.68-.47-1.35-.94-1.95-1.39-6.49-6.22-9.36-10.51-10.35-15.38-.04-.18,0-.35,.05-.51-2.3-.88-4.53-1.96-6.71-3.17,.07,.31,.14,.63,.17,.96,.08,.76,.06,1.52,.04,2.26Z"/>
      <path class="cls-1" d="M75.51,121.57c.83,.85,1.59,1.78,2.33,2.67,.79,.96,1.54,1.87,2.38,2.72,6.03,6.08,15.54,7.36,22.17,7.79,1.69,.11,3.33,.21,4.91,.31,6.43,.39,11.89,.72,16.05,1.46l-3.49-2.93c-.46-.38-.92-.77-1.37-1.15-.11,.05-.23,.08-.36,.08-.11,0-.21-.02-.32-.06-.76-.26-1.45-.53-2.12-.79-1.89-.73-3.52-1.36-5.69-1.5-1.94-.14-3.87,.11-5.91,.37-1.17,.15-2.35,.29-3.52,.37-4.32,.28-8.73-.43-12.76-2.07-.5-.2-.74-.77-.54-1.27,.2-.5,.78-.74,1.27-.54,3.77,1.52,7.88,2.2,11.91,1.93,1.13-.07,2.27-.22,3.4-.36,2.04-.26,4.15-.52,6.28-.38,1.79,.12,3.25,.53,4.67,1.03-1.17-1.04-2.31-2.1-3.42-3.21-.01,0-.02-.01-.03-.02-1.68-1.63-4.78-2.62-8.51-2.71-1.36-.03-2.77,.04-4.13,.11-1.72,.09-3.51,.19-5.29,.07-6.12-.41-11.79-3.32-16.8-5.89-.48-.25-.67-.83-.42-1.31,.25-.48,.83-.67,1.31-.42,4.84,2.49,10.33,5.3,16.04,5.68,1.66,.11,3.39,.02,5.05-.07,1.4-.07,2.85-.15,4.29-.12,.91,.02,2.11,.11,3.4,.34-1.53-1.44-3.82-2.42-6.58-2.76-3.33-.42-6.77-.04-10.22-.4-9.85-1.02-18.11-7.79-24.75-13.23-.42-.34-.48-.95-.14-1.37,.34-.42,.95-.48,1.37-.14,6.44,5.28,14.45,11.84,23.72,12.8,.83,.09,1.67,.13,2.52,.15-.6-.23-1.19-.47-1.77-.7-.61-.24-1.2-.48-1.74-.69-2.32-.89-4.72-1.82-6.88-3.19-2.5-1.59-4.33-3.6-5.29-5.83-.22-.49,.01-1.07,.5-1.28,.5-.21,1.07,.01,1.28,.51,.81,1.87,2.38,3.59,4.55,4.96,2,1.27,4.31,2.16,6.54,3.02,.55,.21,1.14,.45,1.76,.7,2.21,.88,4.71,1.88,6.68,2.36,.18,.04,.32,.14,.44,.26,.56,.03,1.11,.08,1.67,.15,1.95,.25,3.7,.79,5.2,1.57-.75-1.14-1.44-2.32-2.09-3.52-.02-.02-.04-.04-.06-.07-4.65-7.24-11.17-12.48-15.82-15.61-.45-.3-.57-.91-.27-1.35,.3-.45,.91-.56,1.35-.26,3.14,2.11,7.1,5.17,10.81,9.12-.78-1.68-1.55-3.33-2.38-4.92-.14-.06-.26-.16-.36-.29-2.05-2.66-4.38-5.68-7.3-7.81-4.46-3.25-10.54-4.35-15.86-2.87-.51,.15-1.05-.16-1.2-.68-.14-.52,.16-1.05,.68-1.2,5.29-1.47,11.04-.7,15.77,2.03-1.97-1.65-4.13-3.07-6.41-4.41-.09,0-.18,.01-.27-.01-2.04-.5-4.18-.22-6.46,.09-.54,.07-1.08,.14-1.62,.21-1.33,.15-2.67,.22-4.01,.22-11.37,0-22.75-5.35-29.84-14.27-.33-.42-.26-1.03,.16-1.37,.42-.34,1.03-.26,1.37,.16,7.51,9.45,20.12,14.69,32.1,13.32,.52-.06,1.05-.13,1.58-.2,1.02-.14,2.06-.28,3.1-.34-.29-.16-.58-.32-.88-.48-.35-.19-.7-.39-1.06-.58-.05,0-.1,.03-.16,.03-.05,0-.09,0-.14-.01-2.27-.32-4.54-.65-6.82-.98-2.69-.4-5.4-.8-8.01-1.56-3.46-1.01-6.8-2.71-9.65-4.91-.43-.33-.5-.94-.17-1.37,.33-.43,.94-.5,1.37-.17,2.66,2.05,5.77,3.64,9,4.58,2.48,.72,5.13,1.11,7.68,1.49,.82,.12,1.63,.24,2.43,.35-2.18-1.31-4.3-2.73-6.24-4.37-1.38-1.16-2.64-2.42-3.83-3.74-3.19-2.21-7.21-3.97-10.76-4.71l-1.1-.21c-1.41-.27-2.87-.54-4.24-1.18-2.18-1.02-3.79-2.77-5.07-4.35-1.42-1.75-2.71-3.64-3.95-5.45-1.16-1.7-2.36-3.46-3.65-5.08-2.71-3.4-5.46-5.63-8.35-6.81,2.67,10.09,5.45,20.43,10.3,29.59,2.14,1.38,4.64,2.88,7.06,4.33,2.56,1.54,5.22,3.12,7.46,4.59,2.03,1.32,4.32,2.81,6.72,3.84,2.11,.89,4.42,1.48,6.65,2.04l6.56,1.65c.52,.13,.84,.66,.71,1.18-.11,.44-.51,.74-.94,.74-.08,0-.16-.01-.24-.03l-6.56-1.65c-2.32-.58-4.7-1.19-6.95-2.14-2.56-1.09-4.93-2.64-7.02-4-2.22-1.45-4.85-3.02-7.4-4.55-1.34-.8-2.7-1.62-4.01-2.42,.36,.59,.74,1.18,1.12,1.76,2.38,3.56,5.23,6.92,8.05,10.17,3.49,1.7,7.8,2.34,11.98,2.95,5.31,.78,10.79,1.58,15,4.55,.44,.31,.54,.92,.23,1.36-.19,.27-.49,.41-.8,.41-.19,0-.39-.06-.56-.18-3.82-2.71-9.07-3.48-14.15-4.22-3.03-.44-6.13-.91-9.01-1.77,4.41,5.13,8.74,10.52,11.36,16.87,.38,.92,.72,1.86,1.05,2.8,.12,0,.25,.03,.37,.08,4.72,2.13,10.07,4.54,14,8.59Zm-4.62-8.26c.25-.48,.84-.66,1.32-.4,.86,.46,1.71,.92,2.57,1.38,.47,.26,.65,.85,.39,1.32-.18,.32-.51,.51-.86,.51-.16,0-.32-.04-.46-.12-.85-.47-1.7-.92-2.56-1.38-.47-.25-.65-.84-.4-1.32Z"/>
      <path class="cls-1" d="M85.36,168.19l-2.09-5.87c-.2-.55-.41-1.07-.7-1.42-1.03-.61-2.05-1.2-3.09-1.74-1.46-.77-2.97-1.46-4.49-2.1,.77,1.86,1.45,3.76,2.09,5.62,2.88,1.65,5.65,3.48,8.28,5.52Z"/>
      <path class="cls-1" d="M122.22,182.58c.23,.42,.47,.85,.71,1.26,3.19,5.51,8.12,9.88,13.93,12.47,8.93,.78,17.43,.65,24.75-3.04,.97-.49,1.92-1.05,2.87-1.6,1.95-1.14,3.97-2.31,6.22-2.99,.69-.21,1.39-.36,2.09-.47-3.86-2.1-7.91-3.85-12.1-5.19l-1.55-.48c-2.35-.72-4.77-1.47-6.95-2.78-3.87-2.32-6.53-6.15-8.89-9.52,0,0,0,0,0,0-3.01,.29-6.04,.97-9.04,1.74,4.11,4.29,9.39,7.54,15.06,9.21,1.02,.3,2.07,.56,3.11,.82,3.28,.81,6.67,1.65,9.42,3.8,.43,.33,.5,.94,.17,1.37-.19,.25-.48,.38-.77,.38-.21,0-.42-.07-.6-.21-2.43-1.89-5.47-2.65-8.69-3.44-1.07-.27-2.15-.53-3.19-.84-6.33-1.86-12.22-5.59-16.65-10.51-.31,.08-.63,.17-.94,.25-1.82,.49-3.65,.98-5.51,1.41,4.5,6.23,11.24,10.99,18.63,13.1,.52,.15,.82,.69,.67,1.2-.12,.43-.51,.71-.94,.71-.09,0-.18-.01-.27-.04-8.08-2.31-15.43-7.6-20.17-14.51,0,0,0,0,0,0-2.66,.54-5.35,.93-8.05,.94,1.42,.74,2.79,1.63,3.92,2.85,1.16,1.24,1.97,2.71,2.75,4.13Zm26.39,7.34c.16-.52,.7-.8,1.22-.64l8.56,2.7c.51,.16,.8,.71,.64,1.22-.13,.42-.52,.68-.93,.68-.1,0-.2-.01-.29-.04l-8.55-2.7c-.51-.16-.8-.71-.64-1.22Z"/>
      <path class="cls-1" d="M133.35,130.5c-.7,3.85-1.02,9.22,1.41,13.02l2.22,1.86c-1.18-5.01-.44-10.45,.57-16.03-.76-2.53-1.54-5.08-2.35-7.61-.27,1.61-.63,3.19-.99,4.75-.31,1.34-.61,2.67-.86,4.02Z"/>
      <path class="cls-1" d="M94.81,94.37c.04-2.35,.71-4.68,1.97-6.69,.28-.45,.89-.59,1.34-.31,.46,.29,.59,.89,.31,1.34-1.29,2.06-1.87,4.51-1.64,6.89,.14,1.51,.62,3.05,1.08,4.44,.91,1.68,1.75,3.41,2.55,5.13,.19-4.05,1.51-8.03,2.63-11.4,.17-.51,.72-.79,1.23-.61,.51,.17,.79,.72,.62,1.23-1.54,4.6-3.28,9.82-2.26,14.82,.04,.21,0,.4-.08,.58,.48,1.03,.98,2.05,1.5,3.06,.06-2.6,.73-5.06,1.33-6.94,.27-.85,.57-1.71,.87-2.56,.92-2.66,1.79-5.17,2.05-7.82,.05-.54,.52-.94,1.06-.87,.54,.05,.93,.53,.88,1.06-.29,2.88-1.23,5.62-2.15,8.27-.29,.84-.58,1.67-.85,2.51-.86,2.69-1.88,6.67-.73,10.21,.05,.15,.05,.3,.03,.44,.16,.25,.31,.52,.48,.77,.41,.6,.84,1.18,1.28,1.75-.57-3-.46-6.47,.33-10.47,.34-1.73,.77-3.45,1.2-5.17,.76-3.05,1.55-6.2,1.79-9.34,.43-5.67-1.07-10.59-4.03-13.18-1.1-1.05-2.15-2.16-3.1-3.37-1.46-1.86-2.66-3.92-3.82-5.91-.09-.15-.18-.31-.27-.46-.14,3.46-1.39,6.92-2.8,10.43-1.59,3.98-3.22,8.08-2.8,12.17Zm13.72-8.18c.53-.11,1.04,.22,1.16,.74,.32,1.47,.51,2.99,.55,4.51,.01,.54-.41,.99-.95,1,0,0-.02,0-.03,0-.53,0-.96-.42-.97-.95-.04-1.4-.21-2.79-.5-4.15-.12-.53,.22-1.05,.74-1.16Z"/>
      <path class="cls-1" d="M113.58,94.85c-.25,3.3-1.06,6.54-1.84,9.67-.42,1.69-.84,3.38-1.18,5.07-1.15,5.86-.78,10.42,1.15,13.93l-.06,.03c2.94,3.08,6.24,5.84,9.46,8.55l.07,.06c0-2.93,1.13-5.69,2.07-7.65,.23-.48,.81-.7,1.3-.45,.49,.23,.69,.81,.46,1.3-1.03,2.14-2.34,5.35-1.75,8.42,0,.04,0,.08,0,.12l2.51,2.1c-.39-2.43-.16-5.18,.72-8.24,.49-1.71,1.13-3.38,1.74-4.99,.65-1.7,1.32-3.45,1.8-5.22,1.01-3.65,.86-7.67-.38-10.34-1.87-4-4.06-7.8-6.72-11.29-.04,1.41-.36,2.73-.72,4.16-.12,.47-.24,.96-.36,1.48-.44,1.92-1.05,3.8-1.63,5.63-.4,1.24-.8,2.47-1.15,3.72-.12,.43-.51,.71-.94,.71-.09,0-.18-.01-.26-.04-.52-.14-.82-.68-.68-1.2,.36-1.28,.76-2.54,1.17-3.8,.58-1.78,1.17-3.63,1.59-5.47,.12-.53,.25-1.03,.37-1.52,.59-2.36,1.01-4.06,.3-6.38-.01-.04,0-.08-.01-.12-.34-.38-.67-.76-1.01-1.12-.04,3.8-.85,7.58-2.4,11.04-.16,.36-.52,.58-.89,.58-.13,0-.27-.03-.4-.09-.49-.22-.71-.8-.49-1.29,1.71-3.81,2.46-8.03,2.18-12.21-1.5-1.39-3.13-2.71-4.71-3.98-.12-.09-.23-.19-.35-.28,.92,2.64,1.3,5.76,1.04,9.1Zm11.55,24.03c.89-1.8,1.43-3.71,1.61-5.67,.05-.54,.53-.92,1.06-.88,.54,.05,.93,.53,.88,1.06-.21,2.21-.81,4.34-1.8,6.35-.17,.35-.52,.55-.88,.55-.14,0-.29-.03-.43-.1-.48-.24-.68-.82-.44-1.3Zm-9.5,.28c.3-1.47,.62-2.96,.93-4.43,.11-.53,.63-.87,1.16-.75,.53,.11,.86,.63,.75,1.15-.31,1.47-.62,2.95-.92,4.42-.09,.46-.5,.78-.95,.78-.07,0-.13,0-.2-.02-.53-.11-.87-.62-.76-1.15Z"/>
      <path class="cls-1" d="M130.05,123.46c-.6,1.58-1.22,3.2-1.69,4.83-1.14,3.95-1.12,7.29,.06,9.91h0s0,0,0,0l3.08,2.58c-.95-3.61-.63-7.58-.07-10.65,.25-1.37,.56-2.73,.88-4.1,.69-3.01,1.33-5.87,1.38-8.8-.36-1.03-.73-2.05-1.11-3.07-.11,1.41-.35,2.75-.67,3.9-.51,1.85-1.19,3.65-1.86,5.39Z"/>
      <path class="cls-1" d="M139.79,147.74l6.37,5.34c-3.01-5.85-5.2-12.5-7.34-19.5-.73,5.06-.87,9.89,.97,14.16Z"/>
      <path class="cls-1" d="M9.91,8.29s.03,.04,.04,.06l.02-.03s-.04-.02-.06-.04Z"/>
      <path class="cls-1" d="M43.54,39.25c-1.08-5.27-4.81-9.78-8.45-14.17-.68-.82-1.36-1.64-2.01-2.45-3.84-2.41-7.68-4.81-11.54-7.19,8.48,6.76,15.91,14.81,21.99,23.81Z"/>
      <path class="cls-1" d="M32.3,28.55c.46,.54,.9,1.1,1.33,1.67,.44,.56,.88,1.13,1.35,1.67,.7,.81,1.62,1.69,2.63,2.53-7.28-9.29-16.09-17.34-26.05-23.72,1.86,2.86,3.45,5.89,4.85,9.02l1.08,.4c5.41,1.97,11,4,14.82,8.44Z"/>
      <path class="cls-1" d="M39.9,43.79c.68,.91,1.31,1.88,1.93,2.83,.65,1.01,1.33,2.05,2.06,3,1.76,2.27,4.05,4.3,6.83,6.04-.18-.34-.36-.69-.54-1.03-1.29-2.49-2.63-5.06-4.02-7.5-1.54-2.7-3.21-5.33-4.98-7.88-2.54-1.34-5.79-3.91-7.68-6.1-.49-.57-.95-1.16-1.41-1.75-.42-.54-.83-1.07-1.27-1.59-3.34-3.88-8.4-5.83-13.37-7.64,1.47,3.61,2.72,7.34,3.86,11.12,7.29,.72,14.21,4.6,18.6,10.49Z"/>
      <path class="cls-1" d="M94.93,78.89c-1.38,4.13-2.92,8.78-2.12,13.18,.23-3.7,1.68-7.32,2.98-10.59,1.81-4.5,3.24-8.56,2.47-12.62-.03-.17,0-.33,.05-.49-.3-.45-.61-.89-.92-1.32-.06-.08-.13-.16-.2-.24,.28,3.93-.9,7.96-2.27,12.07Z"/>
      <path class="cls-1" d="M34.42,50.62c1.34,1.68,2.56,3.47,3.74,5.19,1.22,1.79,2.48,3.63,3.85,5.33,1.14,1.41,2.55,2.96,4.38,3.81,1.15,.54,2.43,.78,3.78,1.03,.38,.07,.76,.14,1.13,.22,2.28,.48,4.73,1.35,7.06,2.48-2.22-3.11-4.14-6.45-5.96-9.83-4.22-2.16-7.61-4.87-10.05-8.04-.78-1.01-1.48-2.09-2.15-3.13-.6-.92-1.2-1.85-1.85-2.73-3.91-5.24-9.98-8.77-16.44-9.63,.71,2.47,1.38,4.96,2.04,7.43,3.72,1.14,7.16,3.71,10.48,7.87Z"/>
      <path class="cls-1" d="M51.09,46.97c.08,2.1,.17,4.26,.58,6.32,.08,.15,.16,.3,.23,.44,1.32,2.55,2.67,5.12,4.1,7.62l.39-5.25c.13-1.72,.18-3.23-.53-4.37-.28-.46-.14-1.06,.32-1.34,.46-.28,1.06-.14,1.34,.32,1.1,1.77,.93,3.95,.82,5.55l-.59,8.02c1.47,2.35,3.06,4.59,4.84,6.66-.52-2.68-.45-5.49-.37-8.24,.03-1.1,.07-2.2,.06-3.28-.03-5.41-1.19-10.91-3.37-15.9-.22-.49,.01-1.07,.5-1.28,.5-.21,1.07,.01,1.28,.5,2.28,5.23,3.5,10.99,3.53,16.67,0,1.11-.03,2.23-.06,3.35-.12,4.04-.24,7.86,1.45,11.17,.03,.07,.04,.14,.06,.21,.35,.32,.7,.64,1.06,.94,.79,.67,1.63,1.3,2.48,1.91-.58-2.03-.74-4.19-.43-6.29,.11-.73,.27-1.44,.43-2.16,.11-.47,.22-.94,.3-1.41,.57-2.98,.4-6.08-.48-8.96-.16-.52,.13-1.06,.65-1.22,.51-.15,1.06,.13,1.22,.65,.97,3.19,1.16,6.61,.53,9.9-.09,.5-.21,.99-.32,1.48-.15,.67-.31,1.34-.41,2.02-.4,2.69,.08,5.48,1.33,7.88,2.01,1.24,4.09,2.39,6.14,3.51,0,0,0,0,.01,0-.35-1.41-.41-2.87-.46-4.2l-.21-6.15c-.02-.54,.41-.99,.94-1.01,.55-.07,.99,.4,1.01,.94l.21,6.15c.06,1.8,.13,3.66,.91,5.21,.07,.14,.09,.29,.09,.44,.85,.47,1.69,.96,2.53,1.46-.48-2.24-.23-4.58,.02-6.85,.08-.7,.16-1.41,.21-2.1,.16-2.09,.11-4.17-.16-6.16-.07-.53-.09-1.15-.1-1.8-.04-1.4-.09-3.15-.82-3.71-.43-.33-.51-.94-.19-1.37,.33-.43,.94-.51,1.37-.19,1.48,1.13,1.54,3.3,1.59,5.21,.01,.58,.03,1.13,.09,1.6,.29,2.12,.35,4.34,.17,6.57-.05,.72-.14,1.44-.22,2.17-.31,2.75-.59,5.35,.38,7.65,.06,.15,.07,.31,.06,.46,.57,.37,1.14,.76,1.69,1.16-.2-2.38-.14-4.79,.19-7.19,.07-.53,.56-.91,1.1-.83,.53,.07,.91,.56,.83,1.1-.39,2.87-.38,5.75,.02,8.56,.42,.34,.82,.7,1.22,1.06-.25-4.25,1.15-8.47,2.41-12.26,1.6-4.82,2.94-9.49,1.76-13.81-.03-.13-.04-.26-.03-.38-3.35-3.43-7.44-6.18-11.15-8.67-12.06-8.08-24.33-16.1-36.72-24.01,1.32,2.49,2.55,4.91,3.32,7.96,.63,2.52,.74,5.1,.84,7.6Zm37.99,25.9c.56-.06,.99,.39,1.02,.93l.15,3.35c.02,.54-.39,.99-.93,1.02-.02,0-.03,0-.04,0-.52,0-.95-.41-.97-.93l-.15-3.35c-.02-.54,.39-.99,.93-1.02Zm-13.04-9c.51-.19,1.07,.08,1.25,.58l.99,2.75c.18,.51-.08,1.06-.58,1.25-.11,.04-.22,.06-.33,.06-.4,0-.77-.25-.92-.64l-.99-2.75c-.18-.51,.08-1.06,.58-1.25Zm-20.06-17.78l.41,2.06c.11,.53-.23,1.04-.76,1.15-.07,.01-.13,.02-.19,.02-.45,0-.86-.32-.95-.78l-.41-2.06c-.11-.53,.24-1.04,.76-1.15,.52-.12,1.04,.23,1.15,.76Zm-2.04-5.8c.52-.12,1.04,.21,1.16,.74l.41,1.82c.12,.52-.21,1.05-.74,1.16-.07,.02-.14,.02-.21,.02-.45,0-.85-.31-.95-.76l-.41-1.82c-.12-.53,.21-1.05,.74-1.16Z"/>
      <path class="cls-1" d="M45.73,42.63c.73,1.17,1.44,2.34,2.12,3.54,.47,.82,.91,1.65,1.37,2.49-.03-.54-.05-1.08-.07-1.61-.1-2.51-.19-4.88-.78-7.2-.78-3.09-2.04-5.45-3.5-8.19l-.9-1.69c-.08-.16-.1-.33-.09-.5-1.86-1.18-3.71-2.36-5.57-3.54,3.93,4.83,7.51,9.95,7.51,16.35,0,.13-.03,.25-.07,.36Z"/>
      <path class="cls-1" d="M195.68,238.25v-2.74c-1.8,1.6-3.77,3.02-5.86,4.22,1.99-.33,3.95-.83,5.86-1.47Z"/>
      <path class="cls-1" d="M191.88,215.51c-.99,.74-2.05,1.38-3.08,2-.87,.52-1.75,1.07-2.58,1.66,0,.13-.03,.26-.09,.39l-2.55,5.36c-2,4.2-3.95,7.85-7.52,9.94-.15,.09-.33,.13-.49,.13-.33,0-.66-.17-.84-.48-.27-.46-.12-1.06,.35-1.33,3.09-1.81,4.88-5.19,6.75-9.1l.83-1.75c-.91,.95-1.78,1.94-2.64,2.92-3.26,3.71-6.63,7.55-11.6,8.52-1.36,.27-3.1,.29-4.92,.22l-2.24-.09c-2.73-.11-5.55-.22-8.33-.22-4.65,0-9.75,.28-14.55,1.78,7.08-1.09,14.37-1.02,21.41,.26,2.81,.51,5.61,1.22,8.32,1.9,2.63,.66,5.31,1.34,8.01,1.84,8.25-5.59,14.99-13.17,19.57-21.99v-5.37c-1.18,1.19-2.41,2.39-3.8,3.42Z"/>
      <path class="cls-1" d="M128.54,211.03c2.37-1.01,5.04-2.32,6.99-4.41,.63-.68,1.18-1.45,1.76-2.25,.52-.73,1.05-1.45,1.63-2.13,.66-.76,1.61-1.79,2.72-2.77-2.1-.23-4.49,.24-7.11,1.44-1.46,.66-2.89,1.48-4.27,2.27-1.23,.7-2.5,1.43-3.8,2.06-4.26,2.05-8.99,3.12-13.72,3.12-.35,0-.7,0-1.05-.02-.54-.02-.96-.47-.94-1.01,.02-.54,.49-1.05,1.01-.94,4.77,.14,9.56-.85,13.86-2.92,1.25-.6,2.49-1.31,3.68-2,1.42-.81,2.9-1.66,4.44-2.36,.83-.38,1.64-.69,2.44-.94-1.81-.17-3.63-.35-5.47-.57-2.38-.27-4.97-.58-7.64-1.03-.19,.21-.45,.33-.73,.28-3.67-.1-7.47-.22-11.08,.71-.94,.24-1.87,.56-2.8,.87-1.4,.47-2.85,.96-4.37,1.22-.95,.16-1.91,.23-2.86,.23-2.66,0-5.3-.52-7.7-1-.06-.01-.11-.05-.17-.07,4.46,6.61,9.2,12.62,15.4,17.05,.03,0,.06-.02,.1-.03,6.81-.52,13.44-2.14,19.7-4.82Zm-23.43-7.73v.96s-1.03,.02-1.03,.02h-.05c-2.34-.13-4.69-.33-6.97-.59l.14-1.94c7.94,.2,7.94,.57,7.92,1.55Zm2.89,.27c-.47,0-.88-.34-.96-.82-.09-.53,.27-1.03,.81-1.12,1.13-.18,2.25-.37,3.38-.56,.53-.08,1.04,.27,1.13,.79,.09,.53-.26,1.04-.79,1.13-1.13,.2-2.27,.38-3.4,.57-.05,0-.1,.01-.16,.01Z"/>
      <path class="cls-1" d="M178.88,239.89c.92,.12,1.85,.22,2.77,.28,.93,.06,1.86,.07,2.79,.05,.08-.07,.17-.14,.28-.18,4.1-1.62,7.83-4.1,10.96-7.19v-11.39c-4.28,7.2-10,13.48-16.8,18.43Z"/>
      <path class="cls-1" d="M181.44,194.55c-.29,.31-.58,.61-.88,.91-2.02,2.01-4.47,3.66-7.09,4.77-.12,.05-.25,.08-.38,.08-.38,0-.74-.22-.9-.59-.21-.49,.02-1.07,.52-1.28,2.39-1.02,4.63-2.52,6.47-4.35,.28-.28,.56-.58,.84-.87,.53-.55,1.05-1.11,1.62-1.61,.68-.6,1.43-1.13,2.23-1.57-.23,0-.46,.02-.69,.01-.01,0-.02,0-.03,0-3.57,.26-10.15,4.62-12.16,7.57-2.34,3.43-4.92,7.21-9.09,8.2-.08,.02-.15,.03-.23,.03-.44,0-.84-.3-.95-.75-.12-.52,.2-1.05,.72-1.17,3.43-.81,5.68-4.11,7.86-7.29,1.55-2.28,4.97-5,8.36-6.75-2.22-.04-4.36,.07-6.41,.69-2.03,.6-3.86,1.67-5.8,2.8-.98,.57-1.97,1.14-2.97,1.65-.52,.26-1.04,.49-1.57,.72,.03,.25-.04,.51-.2,.72-1.62,2.04-2.54,3.32-3.81,5.08l-1.22,1.69c-2.32,3.18-4.94,6.78-8.68,8.96-2.75,1.6-5.84,2.3-8.83,2.97-2.17,.49-4.41,.99-6.43,1.83-.12,.05-.25,.08-.37,.08-.38,0-.74-.23-.9-.6-.21-.5,.03-1.07,.53-1.27,2.18-.91,4.51-1.43,6.76-1.94,2.98-.67,5.79-1.3,8.28-2.75,3.38-1.98,5.88-5.4,8.08-8.43l1.21-1.68c.92-1.27,1.66-2.3,2.61-3.54-3.66,1.16-7.51,1.66-11.49,1.77-1.66,.61-3.91,2.43-6.04,4.9-.55,.63-1.03,1.31-1.52,1.99-.59,.82-1.19,1.66-1.91,2.44-2.19,2.37-5.1,3.8-7.65,4.88-5.74,2.45-11.78,4.04-17.99,4.74,.39,.23,.77,.47,1.16,.7,5.31,2.97,11.49,4.54,17.88,4.54,7.51,0,14.9-2.22,20.81-6.25,1.04-.71,2.06-1.48,3.08-2.26,3.02-2.28,6.14-4.64,9.94-5.54,1.42-.33,2.94-.48,4.41-.63,3.4-.33,6.6-.64,8.17-3.08,.6-.92,.86-2.05,1.13-3.25,.22-.97,.45-1.98,.88-2.94,1.46-3.28,4.87-5.16,7.36-6.53,.66-.36,1.32-.74,1.98-1.12,.61-.35,1.22-.7,1.86-1.05-2.57,.12-5.11,1.16-7.05,2.88-.53,.47-1.01,.98-1.49,1.49Zm-21.37,11.65c-.2,.94-1.18,1.03-3.55,1.25-.34,.03-.62,.05-.74,.08-.06,.01-.11,.02-.17,.02-.46,0-.88-.33-.96-.81-.09-.53,.26-1.04,.79-1.13,.15-.03,.48-.06,.9-.1,.45-.04,1.37-.13,1.91-.22,.29-.38,.83-.5,1.25-.25,.37,.21,.66,.75,.57,1.17Z"/>
      <path class="cls-1" d="M189.03,249.11c2.17,.68,4.34,1.22,6.5,1.6,.04-.08,.09-.16,.15-.23v-6.08l-.13,.11c-1.52,1.3-4.06,3.32-6.52,4.6Z"/>
      <path class="cls-1" d="M188.75,186.88c-7.38-1.07-14.14-4.6-19.77-7.91l-2.15-1.28s0,0,0,0c4.96,5.74,12.98,9.92,20.29,10.26,2.89-.21,5.76-.7,8.56-1.47v-.25c-2.16,.56-4.43,1.01-6.93,.65Z"/>
      <path class="cls-1" d="M181.53,242.11c-2.05-.13-4.08-.43-6.09-.81,0,0-.02,0-.02,0-1.85-.48-3.93,.41-6.12,1.35-1.71,.74-3.47,1.5-5.26,1.64-.03,0-.05,0-.08,0-.5,0-.93-.39-.97-.9-.04-.54,.36-1.01,.9-1.05,1.47-.12,3.01-.78,4.64-1.49,.57-.24,1.14-.49,1.71-.71-.87-.21-1.75-.43-2.61-.65-2.68-.68-5.45-1.38-8.19-1.88-8.2-1.5-16.76-1.29-24.88,.53,2.86,.89,5.54,2.29,8.17,3.66,.42,.22,.85,.44,1.27,.66,.04-.17,.12-.34,.25-.47l3.65-3.52c.39-.37,1.01-.36,1.38,.03,.37,.39,.36,1-.03,1.38l-3.56,3.43c.67,.33,1.35,.65,2.03,.94,1.71-.18,3.44-1.29,5.26-2.47,2.28-1.48,4.64-2.99,7.24-2.78,.54,.05,.93,.52,.89,1.05-.05,.54-.53,.91-1.05,.89-1.95-.17-3.92,1.11-6.01,2.47-1.09,.71-2.2,1.42-3.35,1.95,3.49,1.09,7.2,1.48,10.85,1.12,1.56-.16,3.16-.46,4.71-.76,2.35-.45,4.78-.91,7.25-.91,.35,0,.7,0,1.05,.03,3.57,.2,6.93,1.47,10.18,2.7,.53,.2,1.05,.39,1.58,.58,2.76-.84,6.48-3.84,7.99-5.14l1.4-1.19v-1.52c-3.82,1.22-7.81,1.88-11.83,1.88-.78,0-1.55-.02-2.33-.07Z"/>
      <path class="cls-2" d="M38.34,44.95c.66,.88,1.26,1.81,1.85,2.73,.67,1.04,1.37,2.12,2.15,3.13,2.45,3.17,5.83,5.87,10.05,8.04-.57-1.06-1.13-2.13-1.68-3.19-2.78-1.74-5.07-3.76-6.83-6.04-.73-.95-1.41-1.99-2.06-3-.62-.96-1.24-1.92-1.93-2.83-4.39-5.89-11.31-9.77-18.6-10.49,.2,.67,.4,1.35,.6,2.02,6.46,.86,12.53,4.39,16.44,9.63Z"/>
      <path class="cls-2" d="M32.89,51.84c1.29,1.62,2.49,3.38,3.65,5.08,1.24,1.82,2.52,3.7,3.95,5.45,1.28,1.58,2.89,3.33,5.07,4.35,1.38,.64,2.83,.92,4.24,1.18l1.1,.21c3.55,.75,7.56,2.51,10.76,4.71-1.18-1.32-2.27-2.71-3.3-4.14-2.33-1.12-4.78-2-7.06-2.48-.38-.08-.75-.15-1.13-.22-1.35-.25-2.63-.5-3.78-1.03-1.82-.85-3.24-2.4-4.38-3.81-1.37-1.69-2.63-3.54-3.85-5.33-1.18-1.73-2.4-3.52-3.74-5.19-3.33-4.17-6.76-6.74-10.48-7.87,.17,.65,.35,1.3,.52,1.95,.03,.11,.06,.22,.09,.32,2.9,1.18,5.64,3.42,8.35,6.81Z"/>
      <path class="cls-2" d="M30.82,29.81c.44,.52,.85,1.05,1.27,1.59,.46,.59,.92,1.19,1.41,1.75,1.89,2.18,5.14,4.75,7.68,6.1-1.15-1.65-2.34-3.26-3.58-4.84-1-.84-1.93-1.73-2.63-2.53-.47-.54-.91-1.11-1.35-1.67-.44-.56-.87-1.13-1.33-1.67-3.82-4.44-9.41-6.47-14.82-8.44l-1.08-.4c.36,.81,.71,1.63,1.05,2.46,4.97,1.81,10.03,3.76,13.37,7.64Z"/>
      <path class="cls-2" d="M108.82,79.99h0c.21,.2,.43,.4,.64,.6-.21-.21-.42-.41-.64-.6Z"/>
      <path class="cls-2" d="M111.64,94.7c-.24,3.14-1.03,6.3-1.79,9.34-.43,1.72-.86,3.44-1.2,5.17-.79,4.01-.9,7.47-.33,10.47,1.04,1.35,2.15,2.63,3.33,3.86l.06-.03c-1.93-3.51-2.3-8.07-1.15-13.93,.34-1.7,.76-3.39,1.18-5.07,.78-3.13,1.59-6.36,1.84-9.67,.26-3.34-.12-6.45-1.04-9.1-1.67-1.35-3.35-2.73-4.93-4.23,2.96,2.59,4.47,7.51,4.03,13.18Z"/>
      <path class="cls-2" d="M125.01,125.36c.23-.49,.03-1.07-.46-1.3-.49-.24-1.07-.03-1.3,.45-.94,1.96-2.06,4.72-2.07,7.65l2.07,1.74s0-.08,0-.12c-.59-3.07,.72-6.27,1.75-8.42Z"/>
      <path class="cls-2" d="M125.58,120.19c.14,.07,.28,.1,.43,.1,.36,0,.71-.2,.88-.55,.99-2.01,1.6-4.15,1.8-6.35,.05-.54-.34-1.01-.88-1.06-.53-.04-1.01,.34-1.06,.88-.18,1.97-.72,3.88-1.61,5.67-.24,.48-.04,1.07,.44,1.3Z"/>
      <path class="cls-2" d="M120.32,99.61c-.12,.48-.25,.99-.37,1.52-.42,1.84-1.01,3.68-1.59,5.47-.41,1.26-.81,2.52-1.17,3.8-.14,.52,.16,1.05,.68,1.2,.09,.02,.18,.04,.26,.04,.43,0,.82-.28,.94-.71,.35-1.25,.75-2.48,1.15-3.72,.59-1.82,1.19-3.71,1.63-5.63,.12-.52,.24-1.01,.36-1.48,.36-1.43,.68-2.75,.72-4.16-.74-.96-1.51-1.9-2.32-2.81,0,.04,0,.08,.01,.12,.72,2.32,.29,4.02-.3,6.38Z"/>
      <path class="cls-2" d="M116.39,120.31c.07,.01,.13,.02,.2,.02,.45,0,.86-.32,.95-.78,.3-1.47,.61-2.95,.92-4.42,.11-.53-.23-1.04-.75-1.15-.53-.12-1.04,.22-1.16,.75-.31,1.47-.62,2.96-.93,4.43-.11,.53,.23,1.04,.76,1.15Z"/>
      <path class="cls-2" d="M115.41,102.23c-.22,.49,0,1.07,.49,1.29,.13,.06,.26,.09,.4,.09,.37,0,.73-.22,.89-.58,1.55-3.46,2.36-7.24,2.4-11.04-.59-.62-1.2-1.24-1.84-1.84-.05-.05-.11-.09-.16-.14,.28,4.19-.47,8.4-2.18,12.21Z"/>
      <path class="cls-2" d="M93.08,78.27c-1.27,3.8-2.66,8.01-2.41,12.26,.65,.59,1.29,1.19,1.89,1.84,.08,.09,.15,.18,.23,.27,0-.19,.02-.38,.03-.58-.81-4.4,.74-9.05,2.12-13.18,1.37-4.11,2.55-8.13,2.27-12.07-.73-.96-1.54-1.87-2.39-2.73-.02,.12,0,.25,.03,.38,1.18,4.31-.16,8.99-1.76,13.81Z"/>
      <path class="cls-2" d="M95.8,81.48c-1.31,3.27-2.75,6.88-2.98,10.59-.01,.19-.02,.38-.03,.58,.73,.81,1.4,1.65,2.04,2.52-.01-.26-.02-.53-.01-.79-.42-4.08,1.21-8.19,2.8-12.17,1.41-3.51,2.66-6.96,2.8-10.43-.67-1.14-1.35-2.3-2.09-3.4-.05,.15-.08,.32-.05,.49,.77,4.06-.67,8.12-2.47,12.62Z"/>
      <path class="cls-2" d="M98.44,88.71c.29-.46,.15-1.06-.31-1.34-.45-.28-1.06-.14-1.34,.31-1.26,2.01-1.94,4.35-1.97,6.69,0,.26,0,.53,.01,.79,1.13,1.56,2.14,3.2,3.05,4.89-.46-1.4-.94-2.93-1.08-4.44-.23-2.39,.35-4.84,1.64-6.89Z"/>
      <path class="cls-2" d="M102.65,109.23c-1.02-5,.72-10.22,2.26-14.82,.17-.51-.11-1.06-.62-1.23-.51-.17-1.06,.11-1.23,.61-1.13,3.37-2.45,7.34-2.63,11.4,.3,.64,.59,1.28,.88,1.91,.41,.9,.83,1.81,1.26,2.71,.08-.18,.12-.37,.08-.58Z"/>
      <path class="cls-2" d="M106.53,116.72c-1.15-3.53-.13-7.52,.73-10.21,.27-.84,.56-1.68,.85-2.51,.92-2.65,1.87-5.39,2.15-8.27,.05-.54-.34-1.01-.88-1.06-.54-.06-1.01,.34-1.06,.87-.26,2.65-1.13,5.16-2.05,7.82-.3,.85-.59,1.7-.87,2.56-.6,1.88-1.27,4.35-1.33,6.94,.76,1.48,1.59,2.92,2.48,4.3,.02-.14,.02-.29-.03-.44Z"/>
      <path class="cls-2" d="M108.29,91.5c.01,.53,.45,.95,.97,.95,0,0,.02,0,.03,0,.54-.01,.96-.46,.95-1-.04-1.52-.23-3.04-.55-4.51-.12-.53-.63-.85-1.16-.74-.53,.12-.86,.63-.74,1.16,.3,1.35,.47,2.75,.5,4.15Z"/>
      <path class="cls-2" d="M85.56,86.22c-.97-2.3-.68-4.9-.38-7.65,.08-.72,.16-1.45,.22-2.17,.18-2.23,.12-4.45-.17-6.57-.06-.47-.07-1.02-.09-1.6-.05-1.91-.11-4.08-1.59-5.21-.43-.33-1.04-.24-1.37,.19-.33,.43-.24,1.04,.19,1.37,.74,.56,.79,2.31,.82,3.71,.02,.65,.04,1.27,.1,1.8,.27,2,.32,4.07,.16,6.16-.05,.7-.13,1.4-.21,2.1-.25,2.27-.5,4.6-.02,6.85,.81,.48,1.61,.97,2.4,1.48,.01-.15,0-.31-.06-.46Z"/>
      <path class="cls-2" d="M61.61,79.1c-3.23-.95-6.35-2.53-9-4.58-.43-.33-1.04-.25-1.37,.17-.33,.43-.25,1.04,.17,1.37,2.85,2.2,6.18,3.9,9.65,4.91,2.61,.76,5.32,1.16,8.01,1.56,2.27,.33,4.54,.66,6.82,.98,.05,0,.09,.01,.14,.01,.06,0,.11-.02,.16-.03-1.49-.82-2.99-1.66-4.47-2.55-.81-.12-1.61-.23-2.43-.35-2.55-.38-5.2-.77-7.68-1.49Z"/>
      <path class="cls-2" d="M73.45,85.1c-11.98,1.37-24.59-3.86-32.1-13.32-.33-.42-.95-.49-1.37-.16-.42,.34-.49,.95-.16,1.37,7.09,8.92,18.47,14.27,29.84,14.27,1.34,0,2.68-.07,4.01-.22,.54-.06,1.08-.13,1.62-.21,2.27-.31,4.42-.59,6.46-.09,.09,.02,.18,.02,.27,.01-1.27-.74-2.56-1.47-3.89-2.2-1.04,.07-2.08,.2-3.1,.34-.53,.07-1.05,.14-1.58,.2Z"/>
      <path class="cls-2" d="M72.65,89.12c-.52,.14-.82,.68-.68,1.2,.14,.52,.68,.82,1.2,.68,5.32-1.48,11.4-.38,15.86,2.87,2.92,2.13,5.25,5.15,7.3,7.81,.1,.13,.22,.22,.36,.29-1.55-3-3.29-5.8-5.57-8.26-.85-.92-1.76-1.75-2.71-2.55-4.73-2.73-10.48-3.51-15.77-2.03Z"/>
      <polygon class="cls-2" points="128.41 138.21 128.42 138.21 128.42 138.21 128.41 138.21"/>
      <path class="cls-2" d="M76.33,125.48c.79,.95,1.6,1.94,2.5,2.85,6.49,6.55,16.48,7.91,23.43,8.37,1.69,.11,3.33,.21,4.92,.31,8.66,.52,15.54,.95,19.57,2.36l-3.4-2.85c-4.16-.74-9.63-1.07-16.05-1.46-1.59-.1-3.23-.2-4.91-.31-6.63-.43-16.14-1.71-22.17-7.79-.84-.84-1.59-1.75-2.38-2.72-.73-.89-1.49-1.82-2.33-2.67-3.92-4.05-9.28-6.46-14-8.59-.12-.05-.24-.08-.37-.08,.24,.7,.47,1.39,.7,2.08,.04,.12,.08,.24,.12,.35,4.38,1.99,8.8,4.15,12.15,7.6,.78,.8,1.51,1.69,2.22,2.55Z"/>
      <path class="cls-2" d="M107.35,142.1c-.06,.53,.32,1.02,.85,1.08,10.6,1.26,22.61,2.69,32.56,8.15,.13,.07,.27,.11,.42,.11l-5.49-4.6c-8.84-3.41-18.52-4.56-27.26-5.6-.53-.09-1.02,.32-1.08,.85Z"/>
      <path class="cls-2" d="M103.85,128.6c-1.13,.14-2.27,.29-3.4,.36-4.03,.27-8.14-.41-11.91-1.93-.49-.2-1.07,.04-1.27,.54-.2,.5,.04,1.07,.54,1.27,4.03,1.63,8.44,2.34,12.76,2.07,1.17-.08,2.35-.22,3.52-.37,2.04-.26,3.97-.51,5.91-.37,2.18,.14,3.8,.77,5.69,1.5,.67,.26,1.36,.53,2.12,.79,.11,.04,.22,.06,.32,.06,.13,0,.24-.03,.36-.08-1.24-1.04-2.47-2.1-3.69-3.19-1.41-.5-2.87-.91-4.67-1.03-2.13-.14-4.24,.13-6.28,.38Z"/>
      <path class="cls-2" d="M108.42,123.81c-.34,0-.67-.18-.85-.5-.33-.59-.76-1.13-1.28-1.62-1.29-.23-2.49-.32-3.4-.34-1.44-.03-2.89,.04-4.29,.12-1.67,.09-3.4,.18-5.05,.07-5.71-.38-11.2-3.2-16.04-5.68-.48-.24-1.06-.06-1.31,.42-.25,.48-.06,1.07,.42,1.31,5.01,2.57,10.69,5.48,16.8,5.89,1.78,.12,3.56,.02,5.29-.07,1.36-.07,2.78-.14,4.13-.11,3.73,.09,6.83,1.08,8.51,2.71,0,0,.02,.01,.03,.02-.81-.8-1.59-1.62-2.35-2.47-.04,.04-.08,.08-.13,.11-.15,.09-.32,.13-.48,.13Z"/>
      <path class="cls-2" d="M71.29,114.63c.86,.46,1.7,.91,2.56,1.38,.15,.08,.31,.12,.46,.12,.35,0,.68-.19,.86-.51,.26-.47,.08-1.06-.39-1.32-.86-.47-1.71-.93-2.57-1.38-.48-.26-1.06-.08-1.32,.4-.25,.47-.07,1.06,.4,1.32Z"/>
      <path class="cls-2" d="M98.28,116.85c.24,.23,.36,.57,.28,.92-.11,.45-.51,.75-.95,.75-.08,0-.15-.01-.23-.03-1.57-.38-3.41-1.05-5.18-1.74-.84-.02-1.68-.06-2.52-.15-9.27-.96-17.28-7.53-23.72-12.8-.42-.34-1.03-.28-1.37,.14-.34,.42-.28,1.03,.14,1.37,6.64,5.44,14.9,12.22,24.75,13.23,3.44,.35,6.89-.02,10.22,.4,2.76,.35,5.05,1.33,6.58,2.76,.52,.49,.95,1.03,1.28,1.62,.18,.32,.51,.5,.85,.5,.16,0,.33-.04,.48-.13,.05-.03,.09-.08,.13-.11-1.28-1.43-2.5-2.94-3.6-4.54-.1-.15-.19-.31-.29-.46-1.5-.78-3.24-1.32-5.2-1.57-.56-.07-1.11-.11-1.67-.15Z"/>
      <path class="cls-2" d="M33.29,75.85s-.03-.05-.04-.08c.01,.02,.02,.05,.04,.08Z"/>
      <path class="cls-2" d="M48.3,85.17c2.09,1.36,4.46,2.91,7.02,4,2.25,.95,4.63,1.56,6.95,2.14l6.56,1.65c.08,.02,.16,.03,.24,.03,.44,0,.83-.3,.94-.74,.13-.52-.19-1.05-.71-1.18l-6.56-1.65c-2.23-.57-4.54-1.15-6.65-2.04-2.4-1.02-4.69-2.52-6.72-3.84-2.25-1.47-4.9-3.05-7.46-4.59-2.42-1.45-4.92-2.95-7.06-4.33,.64,1.21,1.32,2.41,2.04,3.58,1.32,.8,2.67,1.62,4.01,2.42,2.55,1.53,5.18,3.11,7.4,4.55Z"/>
      <path class="cls-2" d="M71.91,99.22c.17,.12,.37,.18,.56,.18,.31,0,.61-.14,.8-.41,.31-.44,.21-1.05-.23-1.36-4.2-2.98-9.69-3.78-15-4.55-4.18-.61-8.49-1.25-11.98-2.95,.29,.34,.58,.68,.87,1.01,.6,.69,1.21,1.39,1.81,2.09,2.88,.86,5.98,1.33,9.01,1.77,5.08,.74,10.33,1.51,14.15,4.22Z"/>
      <path class="cls-2" d="M44.73,91.56s0,0,0-.01c0,0,0,0,0,.01Z"/>
      <path class="cls-2" d="M97.61,118.51c.44,0,.84-.3,.95-.75,.08-.35-.04-.68-.28-.92-.12-.12-.26-.22-.44-.26-1.97-.47-4.47-1.47-6.68-2.36-.62-.25-1.21-.48-1.76-.7-2.23-.86-4.54-1.75-6.54-3.02-2.17-1.38-3.74-3.09-4.55-4.96-.21-.49-.78-.72-1.28-.51-.49,.21-.72,.79-.5,1.28,.96,2.23,2.79,4.25,5.29,5.83,2.17,1.38,4.57,2.3,6.88,3.19,.54,.21,1.13,.44,1.74,.69,.57,.23,1.17,.47,1.77,.7,1.77,.69,3.61,1.36,5.18,1.74,.08,.02,.15,.03,.23,.03Z"/>
      <path class="cls-2" d="M88.26,97.76c-.45-.3-1.05-.18-1.35,.26-.3,.45-.18,1.05,.27,1.35,4.65,3.13,11.17,8.37,15.82,15.61,.02,.02,.04,.04,.06,.07-1.27-2.35-2.41-4.77-3.5-7.15-.16-.34-.32-.68-.47-1.02-3.72-3.95-7.68-7.02-10.81-9.12Z"/>
      <path class="cls-2" d="M195.2,133.27c.15,.09,.32,.13,.48,.14v-2.94c-.25,.49-.52,.98-.81,1.46-.28,.46-.13,1.06,.33,1.34Z"/>
      <path class="cls-2" d="M191.93,140.17c.3,0,.6-.14,.79-.41l2.15-3.04c.31-.44,.21-1.05-.23-1.36-.44-.31-1.05-.21-1.36,.23l-2.15,3.04c-.31,.44-.21,1.05,.23,1.36,.17,.12,.37,.18,.57,.18Z"/>
      <path class="cls-2" d="M184.5,118.1c-.23,.48-.03,1.07,.45,1.3,.14,.07,.28,.1,.42,.1,.36,0,.71-.2,.88-.55,2.94-6.09,4.29-11.82,4.04-17.1-.7-1.32-1.47-2.54-2.41-3.61,0,.02,0,.05,0,.07,1.23,5.82,.07,12.66-3.39,19.8Z"/>
      <path class="cls-2" d="M185.92,123.77l-1.74,4.06c-.22,.49,.01,1.07,.5,1.28,.13,.06,.26,.08,.39,.08,.37,0,.73-.22,.89-.59l1.75-4.06c2.17-5.07,4.59-10.72,5.36-16.63-.24-.54-.47-1.07-.7-1.6-.27-.63-.54-1.24-.81-1.85-.11,.15-.19,.33-.2,.53-.2,6.57-2.86,12.78-5.44,18.78Z"/>
      <path class="cls-2" d="M194.61,111.13c-.95,6.92-3.3,13.8-6.63,19.4-.27,.46-.12,1.06,.34,1.34,.16,.09,.33,.14,.5,.14,.33,0,.66-.17,.84-.48,2.7-4.53,4.77-9.87,6.02-15.39v-3.22c-.12-.18-.25-.35-.36-.53-.25-.41-.48-.83-.71-1.26Z"/>
      <path class="cls-2" d="M185.68,138.11l1.82-2.57c.31-.44,.21-1.05-.23-1.36-.44-.31-1.05-.21-1.36,.23l-1.47,2.07c.16,.23,.31,.47,.47,.7,.24,.32,.51,.62,.76,.93Z"/>
      <path class="cls-2" d="M178.59,121.76l2.29-3.71c.28-.46,.14-1.06-.32-1.34-.46-.28-1.06-.14-1.34,.32l-1.71,2.77c.29,.73,.57,1.47,.85,2.21,.09-.07,.17-.15,.23-.25Z"/>
      <path class="cls-2" d="M183.01,109.72c-.52-.03-1.01,.35-1.05,.89-.1,1.22-.52,2.4-1.2,3.42-.3,.45-.18,1.05,.27,1.35,.17,.11,.35,.17,.54,.17,.31,0,.62-.15,.81-.43,.87-1.29,1.39-2.79,1.53-4.34,.05-.54-.35-1.01-.89-1.05Z"/>
      <path class="cls-2" d="M172.78,109.17c.93,1.94,1.84,3.9,2.72,5.87,0-.1,.01-.19,0-.29-1.34-5.66-1.17-10.97,.5-15.34,.19-.5-.06-1.07-.56-1.26-.5-.2-1.06,.06-1.26,.56-1.14,2.99-1.64,6.37-1.49,9.97,.08,.15,.11,.32,.11,.49Z"/>
      <path class="cls-2" d="M181.16,92.1h.02s-.01,0-.02,0Z"/>
      <path class="cls-2" d="M178.44,107.64c-.18,.51,.1,1.06,.61,1.24,.1,.03,.21,.05,.32,.05,.41,0,.78-.25,.92-.66,1.4-4.09,2.07-9.52,1.76-13.8-.67-.24-1.35-.47-2.03-.68,.46,4.12-.16,9.71-1.57,13.85Z"/>
      <path class="cls-2" d="M168,95.19c-.18,.51,.1,1.06,.61,1.24,.1,.03,.21,.05,.32,.05,.41,0,.78-.25,.92-.66,.7-2.05,.97-4.25,.85-6.43-.27-.26-.54-.54-.78-.84-.93-1.14-1.55-2.45-2.12-3.73,.01,.05,0,.11,.03,.16,1.23,3.22,1.3,6.94,.18,10.2Z"/>
      <path class="cls-2" d="M164.43,92c.03-.17,.04-.34-.02-.51-.44-1.23,.18-2.62,.83-4.1,.69-1.57,1.48-3.35,1.05-5.2-.12-.52-.65-.86-1.17-.73-.52,.12-.85,.65-.73,1.17,.28,1.22-.31,2.56-.93,3.97-.27,.6-.54,1.23-.76,1.88,.41,.82,.82,1.64,1.22,2.46l.51,1.06Z"/>
      <path class="cls-2" d="M155.43,77.23c1.62,1.74,2.99,3.66,4.22,5.67-.89-3.15-2.43-7.21-4.93-10.56-.55-.21-1.11-.4-1.67-.57-.67-.2-1.34-.48-2.01-.79,.05,.12,.12,.24,.23,.33,1.75,1.66,3.11,3.76,4.18,5.92Z"/>
      <path class="cls-2" d="M157.63,94.68c2.61,2.03,4.65,4.77,6.61,7.43,1.85,2.5,3.94,5.32,6.58,7.47-.63-1.31-1.26-2.61-1.89-3.9-.29-.05-.56-.21-.71-.49-1.07-1.98-2.26-3.89-3.53-5.74-1.71-2.27-3.55-4.51-5.87-6.31-2.99-2.3-6.4-3.4-9.5-3.13,.08,.65,.16,1.29,.22,1.93,2.6-.22,5.5,.75,8.09,2.74Z"/>
      <path class="cls-2" d="M172.78,109.17c0-.17-.02-.34-.11-.49-.06-.11-.15-.22-.26-.3-.01,0-.02-.02-.03-.02,.13,.27,.26,.54,.39,.81Z"/>
      <path class="cls-2" d="M155.71,90.67c.3,0,.6-.14,.79-.4,.32-.44,.22-1.04-.21-1.36-2.26-1.65-4.91-2.77-7.67-3.24,.16,.7,.3,1.4,.41,2.09,2.2,.48,4.3,1.39,6.11,2.72,.17,.13,.37,.19,.57,.19Z"/>
      <path class="cls-2" d="M159.2,91.09c-.4,.36-.42,.98-.06,1.38,2.02,2.19,3.86,4.53,5.54,6.98,1.27,1.85,2.47,3.76,3.53,5.74,.15,.28,.42,.45,.71,.49-.02-.03-.03-.06-.05-.1l-5.36-11c-.94-1.18-1.92-2.33-2.94-3.44-.36-.4-.98-.42-1.38-.06Z"/>
      <path class="cls-2" d="M153.55,84.78c.19,.21,.45,.31,.71,.31,.24,0,.47-.09,.66-.26,.39-.37,.42-.98,.05-1.38-2.25-2.44-5.68-4.83-10.44-7.29,.72,1.02,1.36,2.12,1.91,3.26,3.12,1.81,5.46,3.58,7.1,5.35Z"/>
      <path class="cls-2" d="M172.25,116.44c-.86-1.31-1.75-2.66-2.77-3.9-3.59-4.34-8.7-7.16-13.2-9.65-.47-.26-1.06-.09-1.32,.38s-.09,1.06,.38,1.32c4.35,2.4,9.28,5.12,12.64,9.18,.96,1.16,1.78,2.41,2.65,3.73,.56,.85,1.12,1.7,1.71,2.52,1.44,1.98,3.1,3.83,4.94,5.48,.1,.09,.21,.15,.33,.19-.25-.73-.5-1.45-.76-2.18-.23-.64-.47-1.27-.71-1.91-.79-.87-1.53-1.79-2.22-2.74-.58-.8-1.12-1.62-1.66-2.44Z"/>
      <path class="cls-2" d="M171.72,125.21c-.37-.53-.72-1.08-1.07-1.63-.86-1.33-1.74-2.71-2.89-3.89-2.53-2.6-5.97-3.94-9.01-5.13-.5-.2-1.07,.05-1.26,.55-.2,.5,.05,1.07,.55,1.26,2.85,1.11,6.09,2.38,8.32,4.67,1.01,1.05,1.81,2.28,2.65,3.59,.36,.57,.73,1.13,1.12,1.69,2.63,3.75,6.57,6.67,10.39,9.49,.77,.57,1.54,1.14,2.28,1.7-.88-1.31-1.63-2.7-2.28-4.13-3.31-2.46-6.59-5.05-8.78-8.17Z"/>
      <path class="cls-2" d="M178.48,141.06c-2.35-.97-4.1-2.89-5.96-4.92-.87-.95-1.76-1.93-2.72-2.81-.4-.36-1.02-.34-1.38,.06-.36,.4-.34,1.01,.06,1.38,.9,.82,1.76,1.77,2.6,2.68,1.92,2.1,3.9,4.27,6.65,5.41,2.05,.85,4.69,1.11,7.24,1.36,1.78,.18,3.46,.35,4.86,.7-.9-.79-1.81-1.59-2.69-2.43-.64-.07-1.3-.14-1.97-.21-2.41-.24-4.9-.48-6.69-1.22Z"/>
      <path class="cls-2" d="M164,126.12l-1.31,1.44,.55,.55c.58,.57,1.15,1.14,1.73,1.73,.36,.36,.71,.43,.95,.43l.35-.02,.69-.42,.04-.5c.06-.66-.06-.75-2.99-3.19Z"/>
      <path class="cls-2" d="M173.65,143.78c-.4-.37-1.01-.35-1.38,.05-.37,.39-.35,1.01,.04,1.38l1.38,1.27c.19,.17,.43,.26,.67,.26,.26,0,.52-.1,.71-.31,.37-.4,.35-1.01-.05-1.38l-1.38-1.27Z"/>
      <path class="cls-2" d="M179.23,148.26l-2.02-1.25c-.46-.28-1.06-.15-1.34,.31-.28,.46-.14,1.06,.31,1.34l2.02,1.25c.16,.1,.34,.15,.52,.15,.32,0,.64-.16,.83-.46,.28-.46,.15-1.06-.31-1.34Z"/>
      <path class="cls-2" d="M189.8,151.85c-.29,.01-.57,.04-.86,.06-.66,.06-1.28,.11-1.85,.02-.72-.11-1.44-.47-2.19-.84-1.01-.5-2.06-1.02-3.31-1.07-.56-.08-.99,.4-1.01,.93-.02,.54,.4,.99,.93,1.01,.83,.03,1.65,.44,2.52,.87,.85,.42,1.74,.86,2.76,1.02,.81,.13,1.58,.06,2.32,0,.26-.02,.53-.04,.78-.06,1.82-.07,3.94,.33,5.79,1.19v-2.13c-1.93-.76-4.02-1.1-5.88-1.01Z"/>
      <path class="cls-2" d="M179.62,154.68c-.31,.44-.21,1.05,.22,1.36l1.97,1.41c.17,.12,.37,.18,.57,.18,.31,0,.6-.14,.79-.41,.31-.44,.21-1.05-.23-1.36l-1.97-1.41c-.44-.32-1.05-.21-1.36,.22Z"/>
      <path class="cls-2" d="M184.74,158.46c-.22,.49,0,1.07,.49,1.29,3.34,1.5,7.3,3.28,10.45,5.92v-2.46c-3.08-2.27-6.6-3.86-9.65-5.23-.49-.22-1.07,0-1.29,.49Z"/>
      <path class="cls-2" d="M192.66,168.4c.18,.15,.4,.22,.61,.22,.28,0,.57-.12,.76-.36,.34-.42,.27-1.03-.14-1.37l-3.5-2.85c-.42-.34-1.03-.27-1.37,.15-.34,.42-.27,1.03,.15,1.37l3.5,2.84Z"/>
      <path class="cls-2" d="M89.43,80.92c.07-.53-.3-1.03-.83-1.1-.54-.08-1.02,.3-1.1,.83-.33,2.4-.39,4.81-.19,7.19,.73,.52,1.45,1.06,2.14,1.64-.4-2.82-.42-5.7-.02-8.56Z"/>
      <path class="cls-2" d="M89.27,78.16s.03,0,.04,0c.54-.02,.95-.48,.93-1.02l-.15-3.35c-.02-.54-.46-1-1.02-.93-.54,.02-.95,.48-.93,1.02l.15,3.35c.02,.52,.45,.93,.97,.93Z"/>
      <path class="cls-2" d="M80.59,83.31c-.78-1.55-.84-3.41-.91-5.21l-.21-6.15c-.02-.54-.46-1.01-1.01-.94-.54,.02-.96,.47-.94,1.01l.21,6.15c.05,1.33,.1,2.79,.46,4.2,.83,.45,1.66,.91,2.49,1.38,0-.15-.02-.3-.09-.44Z"/>
      <path class="cls-2" d="M76.45,67.85c.14,.4,.52,.64,.92,.64,.11,0,.22-.02,.33-.06,.5-.18,.77-.74,.58-1.25l-.99-2.75c-.18-.51-.74-.77-1.25-.58-.5,.18-.77,.74-.58,1.25l.99,2.75Z"/>
      <path class="cls-2" d="M70.72,70.98c.1-.68,.25-1.35,.41-2.02,.11-.49,.22-.99,.32-1.48,.62-3.28,.44-6.71-.53-9.9-.16-.51-.7-.8-1.22-.65-.52,.16-.81,.7-.65,1.22,.88,2.89,1.05,5.99,.48,8.96-.09,.47-.2,.94-.3,1.41-.16,.72-.33,1.44-.43,2.16-.31,2.11-.15,4.26,.43,6.29,.92,.65,1.86,1.27,2.83,1.87-1.25-2.4-1.73-5.18-1.33-7.88Z"/>
      <path class="cls-2" d="M43.54,39.25c.75,1.11,1.49,2.24,2.19,3.38,.05-.11,.07-.23,.07-.36,0-6.39-3.58-11.51-7.51-16.35-1.74-1.1-3.48-2.19-5.22-3.28,.65,.81,1.33,1.63,2.01,2.45,3.64,4.38,7.37,8.89,8.45,14.17Z"/>
      <path class="cls-2" d="M43.97,29.96l.9,1.69c1.46,2.74,2.73,5.1,3.5,8.19,.58,2.32,.68,4.69,.78,7.2,.02,.53,.04,1.07,.07,1.61,.84,1.55,1.66,3.1,2.46,4.63-.41-2.06-.5-4.23-.58-6.32-.1-2.5-.2-5.08-.84-7.6-.77-3.05-1.99-5.47-3.32-7.96-1.02-.65-2.05-1.3-3.07-1.95,0,.17,0,.34,.09,.5Z"/>
      <path class="cls-2" d="M57.53,50.71c-.28-.46-.88-.6-1.34-.32-.46,.28-.6,.88-.32,1.34,.71,1.14,.66,2.66,.53,4.37l-.39,5.25c.56,.98,1.14,1.95,1.74,2.91l.59-8.02c.12-1.59,.28-3.77-.82-5.55Z"/>
      <path class="cls-2" d="M54.84,45.32c-.53,.11-.87,.62-.76,1.15l.41,2.06c.09,.46,.5,.78,.95,.78,.06,0,.13,0,.19-.02,.53-.11,.87-.62,.76-1.15l-.41-2.06c-.11-.53-.62-.88-1.15-.76Z"/>
      <path class="cls-2" d="M53.61,43.26c.1,.45,.5,.76,.95,.76,.07,0,.14,0,.21-.02,.53-.12,.86-.64,.74-1.16l-.41-1.82c-.12-.52-.64-.85-1.16-.74-.53,.12-.86,.64-.74,1.16l.41,1.82Z"/>
      <path class="cls-2" d="M64.17,62.75c.03-1.13,.07-2.25,.06-3.35-.03-5.68-1.25-11.44-3.53-16.67-.22-.49-.79-.72-1.28-.5-.49,.22-.72,.79-.5,1.28,2.18,4.99,3.34,10.49,3.37,15.9,0,1.08-.03,2.18-.06,3.28-.08,2.75-.16,5.55,.37,8.24,.97,1.12,1.99,2.2,3.09,3.2-.02-.07-.02-.14-.06-.21-1.69-3.31-1.57-7.13-1.45-11.17Z"/>
      <path class="cls-2" d="M130.03,117.55c-.48,1.76-1.15,3.52-1.8,5.22-.61,1.61-1.25,3.28-1.74,4.99-.88,3.06-1.11,5.81-.72,8.24l2.64,2.21h0s0,0,0,0c-1.18-2.62-1.2-5.96-.06-9.91,.47-1.63,1.09-3.26,1.69-4.83,.66-1.74,1.35-3.54,1.86-5.39,.32-1.15,.56-2.49,.67-3.9-.89-2.37-1.86-4.7-2.93-6.97,1.24,2.67,1.39,6.69,.38,10.34Z"/>
      <path class="cls-2" d="M131.32,106.18h0s.02,.05,.03,.07c-.01-.02-.02-.05-.03-.07Z"/>
      <path class="cls-2" d="M131.43,130.15c-.56,3.07-.88,7.04,.07,10.65l3.25,2.72c-2.42-3.8-2.11-9.17-1.41-13.02,.25-1.34,.55-2.68,.86-4.02,.35-1.56,.72-3.14,.99-4.75-.48-1.5-.99-3-1.51-4.49-.05,2.93-.69,5.79-1.38,8.8-.31,1.36-.62,2.73-.88,4.1Z"/>
      <path class="cls-2" d="M135.64,116.68h-.09c.03,.08,.06,.17,.09,.25,0-.08,0-.17,0-.25Z"/>
      <path class="cls-2" d="M136.97,145.38l2.82,2.36c-1.83-4.27-1.69-9.1-.97-14.16-.36-1.17-.71-2.35-1.07-3.53-.07-.23-.14-.46-.21-.7-1.01,5.58-1.75,11.02-.57,16.03Z"/>
      <path class="cls-2" d="M150.65,156.9c-5.02-7.56-7.95-17.21-11.03-27.42-1.26-4.18-2.54-8.4-3.98-12.55-.03-.08-.06-.16-.09-.25-1.24-3.56-2.61-7.06-4.2-10.43-.01-.02-.02-.05-.03-.07-3.04-6.45-6.89-12.44-12.24-17.45-1.59-1.49-3.31-2.87-4.97-4.21-1.57-1.26-3.16-2.55-4.65-3.93-.21-.2-.43-.4-.64-.6-1-.96-1.94-1.97-2.78-3.04-1.38-1.76-2.55-3.75-3.67-5.68-1.05-1.8-2.13-3.65-3.41-5.36-3.84-5.15-9.35-8.84-14.21-12.1C59.15,36.67,32.66,19.79,6,3.64L0,0,4.78,5.13c10.03,10.76,13.8,25,17.79,40.07,2.75,10.39,5.59,21.07,10.68,30.57,.01,.02,.03,.05,.04,.08,.95,1.77,1.97,3.5,3.1,5.18,2.49,3.71,5.43,7.17,8.33,10.51,0,0,0,0,0,.01,.25,.28,.49,.57,.74,.85,4.91,5.66,9.98,11.5,12.84,18.43,.64,1.54,1.18,3.17,1.7,4.74,.84,2.54,1.71,5.16,3.03,7.58,4.12,7.58,11.87,12.12,19.64,15.9,21.26,10.35,43.94,17.04,67.4,19.88l.35,.04c-.24-.14-.48-.27-.72-.41l.96-1.67Zm-67.14-19.59c-7.47-3.64-14.92-7.99-18.78-15.09-1.17-2.16-1.99-4.56-2.77-6.9-.04-.12-.08-.24-.12-.35-.23-.68-.46-1.38-.7-2.08-.32-.94-.66-1.88-1.05-2.8-2.62-6.35-6.94-11.73-11.36-16.87-.6-.7-1.21-1.4-1.81-2.09-.29-.33-.58-.68-.87-1.01-2.82-3.25-5.67-6.61-8.05-10.17-.39-.58-.76-1.17-1.12-1.76-.72-1.17-1.4-2.36-2.04-3.58-4.85-9.15-7.63-19.5-10.3-29.59-.03-.11-.06-.22-.09-.32-.17-.65-.34-1.3-.52-1.95-.66-2.48-1.33-4.96-2.04-7.43-.19-.68-.39-1.35-.6-2.02-1.13-3.78-2.38-7.51-3.86-11.12-.34-.83-.69-1.65-1.05-2.46-1.4-3.14-2.99-6.16-4.85-9.02-.72-.46-1.45-.93-2.19-1.38l.58-.96s-.03-.04-.04-.06c.02,.01,.04,.02,.06,.04l.41-.68c3.89,2.36,7.62,4.97,11.17,7.79,3.85,2.38,7.7,4.78,11.54,7.19,1.74,1.09,3.48,2.18,5.22,3.28,1.86,1.18,3.72,2.36,5.57,3.54,1.02,.65,2.05,1.3,3.07,1.95,12.39,7.91,24.66,15.93,36.72,24.01,3.71,2.49,7.8,5.24,11.15,8.67,.85,.87,1.65,1.77,2.39,2.73,.06,.08,.13,.16,.2,.24,.32,.43,.62,.87,.92,1.32,.74,1.11,1.42,2.26,2.09,3.4,.09,.15,.18,.31,.27,.46,1.16,1.99,2.36,4.04,3.82,5.91,.95,1.21,2,2.32,3.1,3.37,1.58,1.51,3.27,2.89,4.93,4.23,.12,.09,.23,.19,.35,.28,1.58,1.28,3.21,2.6,4.71,3.98,.05,.05,.11,.09,.16,.14,.64,.6,1.25,1.21,1.84,1.84,.35,.37,.68,.75,1.01,1.12,.81,.91,1.59,1.85,2.32,2.81,2.66,3.48,4.85,7.29,6.72,11.29,1.06,2.27,2.03,4.6,2.93,6.97,.38,1.02,.75,2.04,1.11,3.07,.52,1.49,1.02,2.99,1.51,4.49,.81,2.53,1.59,5.08,2.35,7.61,.07,.23,.14,.46,.21,.7,.36,1.19,.71,2.36,1.07,3.53,2.14,7,4.33,13.64,7.34,19.5l3.75,3.14-1.25,1.49-1.29-1.08c-22.21-3-43.67-9.49-63.86-19.32Z"/>
      <path class="cls-2" d="M149.91,156.21l-3.75-3.14-6.37-5.34-2.82-2.36-2.22-1.86-3.25-2.72-3.08-2.58h0s-2.64-2.22-2.64-2.22l-2.51-2.1-2.07-1.74-.07-.06c-3.23-2.71-6.52-5.47-9.46-8.55-1.18-1.23-2.29-2.52-3.33-3.86-.44-.57-.87-1.15-1.28-1.75-.17-.25-.32-.52-.48-.77-.89-1.38-1.72-2.82-2.48-4.3-.52-1.01-1.02-2.03-1.5-3.06-.43-.91-.85-1.81-1.26-2.71-.29-.64-.59-1.27-.88-1.91-.8-1.72-1.64-3.45-2.55-5.13-.92-1.69-1.92-3.33-3.05-4.89-.63-.87-1.31-1.71-2.04-2.52-.08-.09-.15-.18-.23-.27-.6-.65-1.24-1.25-1.89-1.84-.4-.36-.8-.72-1.22-1.06-.7-.57-1.41-1.11-2.14-1.64-.56-.4-1.12-.78-1.69-1.16-.79-.51-1.59-1-2.4-1.48-.84-.5-1.68-.98-2.53-1.46-.83-.46-1.66-.92-2.49-1.38,0,0,0,0-.01,0-2.05-1.12-4.13-2.26-6.14-3.51-.96-.6-1.91-1.22-2.83-1.87-.85-.61-1.69-1.24-2.48-1.91-.36-.31-.72-.62-1.06-.94-1.09-1.01-2.12-2.08-3.09-3.2-1.78-2.07-3.37-4.32-4.84-6.66-.6-.96-1.18-1.93-1.74-2.91-1.44-2.51-2.78-5.08-4.1-7.62-.08-.15-.16-.3-.23-.44-.8-1.54-1.62-3.09-2.46-4.63-.45-.83-.9-1.67-1.37-2.49-.68-1.2-1.39-2.37-2.12-3.54-.71-1.14-1.44-2.26-2.19-3.38-6.09-9-13.51-17.04-21.99-23.81-3.55-2.83-7.28-5.43-11.17-7.79l-.41,.68-.02,.03-.58,.96c.74,.45,1.46,.91,2.19,1.38,9.96,6.38,18.77,14.43,26.05,23.72,1.24,1.58,2.43,3.19,3.58,4.84,1.77,2.55,3.44,5.17,4.98,7.88,1.39,2.44,2.73,5.01,4.02,7.5,.18,.34,.36,.69,.54,1.03,.55,1.06,1.11,2.13,1.68,3.19,1.81,3.38,3.73,6.73,5.96,9.83,1.03,1.44,2.12,2.83,3.3,4.14,1.18,1.32,2.45,2.58,3.83,3.74,1.95,1.64,4.07,3.06,6.24,4.37,1.48,.89,2.98,1.73,4.47,2.55,.35,.19,.7,.39,1.06,.58,.29,.16,.58,.32,.88,.48,1.32,.73,2.62,1.45,3.89,2.2,2.28,1.34,4.44,2.76,6.41,4.41,.95,.79,1.86,1.63,2.71,2.55,2.28,2.46,4.01,5.26,5.57,8.26,.82,1.59,1.6,3.24,2.38,4.92,.16,.34,.31,.68,.47,1.02,1.09,2.38,2.23,4.8,3.5,7.15,.65,1.2,1.34,2.38,2.09,3.52,.1,.15,.19,.31,.29,.46,1.1,1.61,2.31,3.11,3.6,4.54,.76,.85,1.55,1.67,2.35,2.47,1.11,1.1,2.25,2.17,3.42,3.21,1.22,1.09,2.46,2.15,3.69,3.19,.46,.39,.92,.77,1.37,1.15l3.49,2.93,3.4,2.85,8.93,7.48,5.49,4.6,6.19,5.19,1.29,1.08,1.25-1.49Z"/>
      <path class="cls-2" d="M150.66,156.89v.02s-.97,1.67-.97,1.67c.24,.14,.48,.27,.72,.41,16.19,9.28,31.07,16.75,45.27,22.69v-2.11c-14.12-5.94-28.91-13.41-45.02-22.68Z"/>
      <path class="cls-2" d="M193.41,169.67c-1.55-.78-3.18-1.45-4.76-2.1-3.21-1.32-6.24-2.56-8.72-4.69-3.71-3.18-5.57-7.75-7.54-12.59-1.57-3.87-3.2-7.87-5.88-11.16-.63-.77-1.31-1.5-1.99-2.23-1.22-1.3-2.38-2.53-3.2-3.99-1.28-2.29-1.62-4.93-1.98-7.73-.31-2.39-.62-4.85-1.57-7.14-.69-1.69-1.7-3.21-2.67-4.67-.61-.92-1.24-1.86-1.76-2.82-2.58-4.71-3.05-10.07-3.54-15.75-.08-.94-.17-1.9-.26-2.86-.06-.65-.15-1.29-.22-1.93-.08-.7-.16-1.4-.26-2.09,0-.05-.02-.1-.03-.16-.11-.69-.25-1.39-.41-2.09-.48-2.09-1.2-4.23-2.16-6.24-.55-1.15-1.19-2.24-1.91-3.26-1.78-2.53-4.07-4.58-6.93-5.63-.51-.05-1.01-.08-1.52-.1l.06-1.95c.54,.02,1.08,.05,1.61,.1,1.17-1.02,2.4-1.51,3.75-1.51,2.17,0,4.49,1.26,6.74,2.48,.92,.5,1.85,.99,2.79,1.43,.67,.31,1.34,.59,2.01,.79,.57,.17,1.13,.36,1.67,.57,5.4,2.03,9.76,5.74,12.11,10.4,.29,.56,.55,1.14,.8,1.72,.05,.12,.11,.25,.17,.37,.58,1.28,1.2,2.58,2.12,3.73,.25,.3,.51,.58,.78,.84,2.27,2.21,5.36,3.17,8.35,4.09,.32,.1,.64,.2,.96,.3,.68,.21,1.36,.44,2.03,.68,1.34,.49,2.63,1.07,3.75,1.86,.79,.56,1.47,1.2,2.09,1.91,.94,1.07,1.71,2.29,2.41,3.61,.44,.84,.86,1.72,1.26,2.62,.27,.61,.54,1.23,.81,1.85,.23,.53,.46,1.06,.7,1.6,.48,1.08,.99,2.17,1.55,3.21,.23,.42,.46,.85,.71,1.26,.11,.18,.24,.35,.36,.53v-3.99c-.54-1.11-1.04-2.26-1.53-3.38-1.74-4.03-3.54-8.19-7.24-10.81-1.73-1.23-3.73-1.98-5.73-2.62h-.02c-.51-.17-1.02-.33-1.53-.49-3.22-.99-6.26-1.92-8.2-4.3-.86-1.05-1.42-2.32-2.03-3.66-.27-.61-.55-1.21-.84-1.8-2.82-5.6-8.28-9.96-14.96-11.96-1.42-.42-2.88-1.22-4.43-2.06-2.46-1.33-5-2.71-7.66-2.71-2.94,0-5.45,1.69-7.68,5.16l-.84,1.31,1.55,.18c7.08,.83,11.43,8.85,12.6,16.43,.34,2.21,.54,4.52,.74,6.75,.49,5.63,1,11.45,3.78,16.52,.57,1.03,1.22,2.01,1.85,2.96,.96,1.45,1.87,2.82,2.5,4.34,.85,2.05,1.13,4.28,1.44,6.64,.37,2.86,.75,5.82,2.21,8.44,.94,1.66,2.23,3.04,3.47,4.37,.65,.69,1.3,1.39,1.9,2.12,2.49,3.06,4.06,6.93,5.58,10.67,1.97,4.84,4,9.84,8.07,13.33,2.72,2.33,6.04,3.69,9.25,5.01,1.54,.63,3.14,1.29,4.62,2.04,1.08,.55,2.13,1.16,3.15,1.82v-2.29c-.74-.45-1.5-.88-2.27-1.27Z"/>
      <path class="cls-2" d="M191.71,189.36c-.08,.47-.43,.87-.96,.79-.26,0-.51,0-.77,.02-.64,.35-1.26,.7-1.86,1.05-.66,.38-1.32,.75-1.98,1.12-2.49,1.37-5.91,3.25-7.36,6.53-.43,.96-.66,1.96-.88,2.94-.27,1.19-.53,2.32-1.13,3.25-1.57,2.44-4.78,2.75-8.17,3.08-1.47,.14-3,.29-4.41,.63-3.8,.89-6.92,3.25-9.94,5.54-1.02,.77-2.04,1.55-3.08,2.26-5.91,4.03-13.3,6.25-20.81,6.25-6.38,0-12.56-1.57-17.88-4.54-.4-.22-.78-.46-1.16-.7-.78,.09-1.55,.17-2.34,.23-.02,0-.05,0-.08,0-.5,0-.93-.39-.97-.9-.04-.5,.32-.93,.8-1.02-6.19-4.44-10.94-10.44-15.4-17.05-.37-.15-.6-.5-.6-.89-1.49-2.24-2.96-4.54-4.44-6.87-1.32-2.07-2.65-4.16-4.02-6.23-.95-.29-1.86-.63-2.72-.94-.5-.19-.76-.75-.58-1.25,.19-.5,.75-.76,1.25-.58,.08,.03,.15,.06,.23,.09-1.35-1.96-2.75-3.89-4.22-5.75-1.4-.5-2.62-1.15-3.66-1.97-.43-.33-.5-.94-.17-1.37,.18-.23,.44-.35,.7-.36-.75-.83-1.52-1.65-2.32-2.44-.99-.1-1.98-.21-2.95-.33-.53-.07-.91-.56-.84-1.09,.07-.54,.55-.9,1.09-.84,.1,.01,.21,.02,.31,.03-.77-.67-1.55-1.33-2.36-1.95-6.88-5.3-15.17-8.52-23.26-11.04-1.68-.1-3.37-.15-5.05-.13l-.03-1.95c1.21-.02,2.41,0,3.62,.05,2.8-.43,5.65-.65,8.54-.65,7.06,0,14.07,1.28,20.64,3.71-.13-.51-.05-.62,.06-.79l.29-.42h1.14l.33,.71c.22,.49,.43,.99,.64,1.49,1.52,.64,3.03,1.33,4.49,2.1,1.03,.55,2.06,1.14,3.09,1.74-.15-.18-.31-.32-.5-.39-.51-.17-.78-.72-.61-1.24,.16-.48,.65-.73,1.13-.63-.73-.42-1.46-.83-2.2-1.22-8.71-4.6-18.57-7.03-28.5-7.03-5.47,0-10.81,.74-15.88,2.2l-3.28,.94,3.28,.93c10.77,3.06,21.9,6.22,30.87,13.14,8.25,6.36,14.11,15.58,19.78,24.49,6.76,10.64,13.75,21.63,24.87,27.86,5.6,3.13,12.11,4.79,18.83,4.79,7.9,0,15.68-2.34,21.91-6.59,1.07-.73,2.12-1.52,3.16-2.31,2.99-2.26,5.81-4.39,9.21-5.19,1.29-.3,2.75-.45,4.16-.58,3.71-.36,7.54-.73,9.62-3.97,.78-1.21,1.09-2.56,1.39-3.87,.21-.92,.41-1.79,.76-2.57,1.1-2.48,3.61-4.01,6.52-5.61,.67-.37,1.33-.75,2.01-1.13,2.04-1.16,4.11-2.34,6.59-3.36v-1.07c-1.31,.34-2.63,.64-3.97,.87Z"/>
      <path class="cls-2" d="M85.46,162.67c1.25,.79,2.49,1.59,3.71,2.38,1.73,1.12,3.47,2.25,5.24,3.33-.12-.31-.1-.67,.12-.95,.33-.42,.94-.5,1.37-.17,.87,.68,1.47,1.74,1.76,3.03,2.18,1.21,4.41,2.29,6.71,3.17,.11-.31,.36-.56,.71-.64,.53-.12,1.04,.23,1.15,.76,.04,.19,.08,.38,.13,.57,1.48,.47,2.99,.84,4.53,1.08-.06-.21-.06-.43,.02-.64,.21-.5,.78-.73,1.28-.52,1.09,.46,2.23,.95,3.35,1.53,2.71-.01,5.39-.4,8.05-.94-.3-.44-.19-1.05,.25-1.35,.44-.31,1.05-.19,1.36,.25,.15,.22,.31,.43,.47,.65,1.85-.44,3.69-.92,5.51-1.41,.31-.08,.63-.17,.94-.25-.11-.12-.23-.24-.34-.36-.36-.41-.31-1.02,.09-1.37,.41-.36,1.02-.32,1.38,.09,.32,.37,.67,.72,1.02,1.08,2.99-.77,6.03-1.45,9.04-1.74-.31-.44-.2-1.05,.24-1.36,.44-.31,1.05-.2,1.36,.24,.22,.32,.45,.65,.68,.97,.24,0,.47-.02,.71-.02,1.24,0,2.44,.08,3.59,.25,4.53,.65,8.74,2.65,12.81,4.94-.04-.07-.09-.14-.14-.22-.27-.47-.1-1.06,.36-1.33,.47-.27,1.06-.1,1.33,.36,.72,1.26,1.6,2.46,2.59,3.61,0,0,0,0,0,0l2.15,1.28c5.63,3.31,12.39,6.84,19.77,7.91,2.49,.36,4.77-.09,6.93-.65v-2.01c-2.12,.57-4.31,1.07-6.65,.73-7.05-1.02-13.59-4.44-19.06-7.66l-2.14-1.27c-5.51-3.29-11.21-6.69-17.68-7.63-1.24-.18-2.55-.27-3.87-.27-5.27,0-10.53,1.42-15.62,2.79-5.66,1.53-11.49,3.1-17.27,2.67-8.46-.64-15.6-5.27-23.16-10.17-2.1-1.36-4.25-2.74-6.43-4.04,.72,.71,1.08,1.69,1.3,2.3l.36,1Z"/>
      <path class="cls-2" d="M191.33,143.64c-1.98-1.73-3.99-3.52-5.65-5.53-.26-.31-.53-.61-.76-.93-.17-.23-.32-.46-.47-.7-2.18-3.23-3.5-7.05-4.78-10.77-.33-.95-.65-1.91-.99-2.85-.1-.29-.21-.57-.32-.86-.27-.74-.56-1.48-.85-2.21-.64-1.6-1.31-3.19-2.01-4.77-.88-1.97-1.79-3.93-2.72-5.87-.13-.27-.26-.54-.39-.81-.59-1.23-1.19-2.46-1.78-3.67l-6.18-12.67-.51-1.06c-.4-.82-.81-1.64-1.22-2.46-.94-1.89-1.94-3.77-3.05-5.58-1.23-2.01-2.6-3.93-4.22-5.67-.06-.07-.12-.14-.18-.2-4.58-4.83-10.89-7.85-17.5-8.44-.54-.05-1.07-.09-1.61-.1l-.06,1.95c.51,.02,1.02,.05,1.52,.1,6.14,.56,11.98,3.36,16.23,7.84,3.62,3.82,6.01,8.7,8.32,13.43l1.36,2.79,5.36,11s.03,.06,.05,.1c.63,1.29,1.26,2.59,1.89,3.9,1.89,3.94,3.74,7.96,5.31,12.04,.24,.63,.48,1.27,.71,1.91,.26,.72,.51,1.45,.76,2.18,.07,.22,.15,.43,.22,.64,.8,2.35,1.63,4.74,2.68,7.03,.65,1.43,1.4,2.81,2.28,4.13,.19,.28,.37,.56,.56,.83,1.12,1.52,2.43,2.87,3.79,4.16,.89,.83,1.79,1.64,2.69,2.43,.07,.06,.15,.13,.22,.19,2.05,1.79,4.01,3.51,5.63,5.48v-2.92c-1.38-1.43-2.88-2.74-4.35-4.02Z"/>
      <path class="cls-2" d="M187.23,187.96c.36,.02,.65,.23,.81,.52,.91-.18,1.83-.28,2.75-.28,.54,0,.97,.45,.96,.99,0,.06-.02,.11-.03,.16,1.34-.23,2.66-.53,3.97-.87v-2.01c-2.8,.76-5.67,1.26-8.56,1.47,.04,0,.07,0,.11,0Z"/>
      <path class="cls-2" d="M131.78,195.79c-.29-.03-.58-.06-.87-.1-6.46-.75-13.78-1.6-20.06-4.89-2.45-1.28-4.68-2.92-6.79-4.73,.14,.26,.18,.57,.04,.86-.16,.36-.52,.57-.89,.57-.13,0-.27-.03-.4-.09-.13-.06-.25-.11-.37-.16,2.31,2.01,4.77,3.84,7.5,5.27,1.91,1,3.92,1.78,5.97,2.41,2.22-.13,4.42-.08,6.46-.02,.54,.01,.96,.46,.94,1,0,.25-.11,.49-.27,.67,2.67,.45,5.26,.75,7.64,1.03,1.84,.21,3.66,.4,5.47,.57,.03,0,.05-.02,.08-.03-1.55-.68-3.03-1.47-4.45-2.38Z"/>
      <path class="cls-2" d="M100.4,182.86c.23,.49,.02,1.07-.47,1.29-.04,.02-.09,.02-.13,.03,1.17,.35,2.4,.82,3.71,1.41-1.12-.99-2.2-2.02-3.27-3.08,.05,.12,.11,.23,.16,.35Z"/>
      <path class="cls-2" d="M183.25,190.02s-.06,0-.09,.01c.01,0,.02,0,.03,0,.23,0,.46-.01,.69-.01,.23-.13,.47-.26,.72-.38-.19-.03-.39-.06-.58-.09-.16,.26-.43,.45-.76,.47Z"/>
      <path class="cls-2" d="M178.2,187.92c-.7-.02-1.41-.02-2.11,0,.21,.3,.25,.71,.05,1.05-.18,.31-.51,.48-.84,.48-.17,0-.34-.04-.49-.13-.66-.39-1.34-.74-2.01-1.11-.7,.12-1.4,.26-2.09,.47-2.25,.67-4.27,1.85-6.22,2.99-.95,.55-1.9,1.11-2.87,1.6-7.32,3.69-15.82,3.83-24.75,3.04,.37,.16,.73,.35,1.1,.5,.35,.14,.57,.47,.6,.82,1.68-.26,3.26-.22,4.72,.15,.12,.03,.22,.08,.32,.15,.74-.5,1.5-.92,2.26-1.19,.51-.18,1.06,.09,1.24,.6,.18,.51-.09,1.06-.6,1.24-.02,0-.05,.02-.07,.03,3.98-.11,7.83-.62,11.49-1.77,.38-.5,.79-1.02,1.26-1.62,.33-.42,.95-.49,1.37-.16,.21,.17,.33,.4,.36,.65,.53-.23,1.05-.46,1.57-.72,1.01-.51,1.99-1.08,2.97-1.65,1.94-1.13,3.77-2.2,5.8-2.8,2.05-.62,4.19-.73,6.41-.69,.92-.48,1.84-.88,2.71-1.18-.73-.23-1.46-.47-2.18-.76Z"/>
      <path class="cls-2" d="M91.38,176.15c1.35,.18,2.83,.52,3.95,1.54,.4,.36,.43,.98,.06,1.38-.19,.21-.45,.32-.72,.32-.07,0-.13-.02-.19-.04,.15,.16,.3,.32,.45,.48,1.21,1.27,2.43,2.56,3.69,3.82-.74-1.58-1.48-3.19-2-4.87-.09-.1-.18-.19-.27-.29-1.83-1.93-3.73-3.93-5.69-5.78-.83-.78-1.67-1.54-2.53-2.28-.04,.35-.27,.67-.63,.8-.11,.04-.22,.06-.33,.06-.4,0-.78-.25-.92-.65l-.88-2.46c-2.63-2.03-5.4-3.87-8.28-5.52,.07,.19,.14,.39,.2,.58l-1.83,.67c-.4-1.02-.74-1.92-1.05-2.7-9.58-4.96-20.24-7.82-31.06-8.22-1.2-.04-2.41-.06-3.62-.05l.03,1.95c1.69-.03,3.37,.03,5.05,.13,16.5,.95,32.48,7.73,44.5,19.09,.7,.66,1.38,1.34,2.06,2.03Z"/>
      <path class="cls-2" d="M143.77,189.18c.09,.03,.18,.04,.27,.04,.43,0,.81-.28,.94-.71,.15-.52-.15-1.06-.67-1.2-7.39-2.11-14.14-6.87-18.63-13.1-.16-.22-.32-.43-.47-.65-.31-.44-.91-.56-1.36-.25-.44,.31-.56,.91-.25,1.35,0,0,0,0,0,0,4.74,6.92,12.09,12.21,20.17,14.51Z"/>
      <path class="cls-2" d="M149.24,191.14l8.55,2.7c.1,.03,.2,.04,.29,.04,.41,0,.8-.27,.93-.68,.16-.51-.12-1.06-.64-1.22l-8.56-2.7c-.52-.16-1.06,.12-1.22,.64-.16,.51,.12,1.06,.64,1.22Z"/>
      <path class="cls-2" d="M148.77,183.06c1.05,.31,2.12,.58,3.19,.84,3.22,.8,6.27,1.55,8.69,3.44,.18,.14,.39,.21,.6,.21,.29,0,.58-.13,.77-.38,.33-.42,.25-1.04-.17-1.37-2.75-2.14-6.14-2.98-9.42-3.8-1.05-.26-2.09-.52-3.11-.82-5.67-1.67-10.96-4.92-15.06-9.21-.34-.36-.69-.71-1.02-1.08-.35-.41-.97-.45-1.38-.09-.4,.35-.45,.97-.09,1.37,.11,.12,.23,.24,.34,.36,4.43,4.92,10.32,8.65,16.65,10.51Z"/>
      <path class="cls-2" d="M152.18,179.76c2.18,1.31,4.61,2.06,6.95,2.78l1.55,.48c4.19,1.33,8.25,3.09,12.1,5.19,.67,.37,1.35,.72,2.01,1.11,.15,.09,.32,.13,.49,.13,.33,0,.66-.17,.84-.48,.2-.34,.17-.75-.05-1.05-.08-.11-.18-.21-.3-.28-4.57-2.68-9.45-4.86-14.51-6.47l-1.57-.49c-2.34-.72-4.55-1.4-6.52-2.59-3.16-1.9-5.54-5.04-7.61-8-.23-.33-.46-.65-.68-.97-.31-.44-.91-.55-1.36-.24-.44,.31-.55,.92-.24,1.36,0,0,0,0,0,0,2.36,3.38,5.02,7.2,8.89,9.52Z"/>
      <path class="cls-2" d="M178.2,187.92c.72,.28,1.45,.53,2.18,.76,.99-.34,1.93-.56,2.76-.6,.54-.01,1,.38,1.03,.92,.01,.21-.06,.39-.16,.56,.19,.03,.39,.06,.58,.09,1.09-.54,2.26-.92,3.45-1.16-.16-.29-.45-.51-.81-.52-.04,0-.07,0-.11,0-7.31-.34-15.33-4.52-20.29-10.26-.99-1.15-1.87-2.36-2.59-3.61-.27-.47-.86-.63-1.33-.36-.47,.27-.63,.86-.36,1.33,.04,.07,.09,.15,.14,.22,3.2,5.47,9.11,10.14,15.52,12.66Z"/>
      <path class="cls-2" d="M111.43,175.87c2.28,.96,4.87,2.05,6.61,3.91,1,1.06,1.71,2.37,2.47,3.74,.24,.44,.48,.87,.73,1.3,2.58,4.45,6.23,8.21,10.55,10.97,1.41,.91,2.9,1.7,4.45,2.38,.79-.25,1.57-.42,2.32-.54-.03-.35-.25-.68-.6-.82-.38-.15-.74-.33-1.1-.5-5.81-2.59-10.73-6.96-13.93-12.47-.24-.42-.48-.84-.71-1.26-.78-1.42-1.59-2.89-2.75-4.13-1.13-1.21-2.5-2.11-3.92-2.85-1.12-.58-2.27-1.07-3.35-1.53-.49-.21-1.07,.02-1.28,.52-.09,.21-.08,.43-.02,.64,.08,.27,.26,.52,.55,.64Z"/>
      <path class="cls-2" d="M104.32,173.97c.99,4.87,3.87,9.16,10.35,15.38,.6,.44,1.27,.91,1.95,1.39,1.45,1.01,2.96,2.06,3.73,2.86,.19,.2,.44,.3,.7,.3s.49-.09,.68-.28c.38-.37,.39-.99,.02-1.38-.9-.93-2.48-2.03-4.01-3.09-.67-.46-1.32-.92-1.81-1.27-6.65-6.39-8.73-10.18-9.57-13.71-.05-.19-.09-.38-.13-.57-.11-.52-.62-.88-1.15-.76-.35,.07-.6,.32-.71,.64-.06,.16-.09,.33-.05,.51Z"/>
      <path class="cls-2" d="M95.89,171.44c.07,.67,.05,1.35,.03,2.03-.01,.56-.03,1.12,0,1.68,.06,1.26,.32,2.46,.69,3.63,.52,1.68,1.27,3.29,2,4.87,0,.01,0,.02,.01,.03,.04,.08,.09,.16,.15,.22,.33,.08,.67,.17,1.02,.28,.04-.01,.09,0,.13-.03,.49-.23,.7-.81,.47-1.29-.05-.12-.11-.23-.16-.35-1.12-2.41-2.23-4.89-2.36-7.46-.02-.51-.01-1.03,0-1.54,.02-.74,.03-1.5-.04-2.26-.03-.34-.1-.65-.17-.96-.29-1.29-.89-2.35-1.76-3.03-.42-.33-1.04-.25-1.37,.17-.22,.28-.24,.64-.12,.95,.06,.16,.15,.3,.29,.42,.88,.69,1.12,1.95,1.19,2.64Z"/>
      <path class="cls-2" d="M81.46,159.28c-.17,.51,.1,1.06,.61,1.24,.19,.06,.35,.2,.5,.39,.28,.35,.5,.88,.7,1.42l2.09,5.87,.88,2.46c.14,.4,.52,.65,.92,.65,.11,0,.22-.02,.33-.06,.36-.13,.59-.45,.63-.8,.02-.15,.01-.3-.04-.44l-2.62-7.32-.36-1c-.22-.61-.58-1.59-1.3-2.3-.3-.3-.66-.55-1.11-.7-.04-.01-.07,0-.11-.01-.48-.1-.97,.15-1.13,.63Z"/>
      <path class="cls-2" d="M72.58,156.38c.04,.08,.08,.17,.11,.25,.26,.8,.78,2.17,1.72,4.6,.3,.79,.65,1.68,1.05,2.7l1.83-.67c-.07-.19-.14-.39-.2-.58-.65-1.86-1.32-3.75-2.09-5.62-.21-.5-.41-1-.64-1.49l-.33-.71h-1.14l-.29,.42c-.12,.17-.19,.28-.06,.79,.02,.09,.05,.18,.08,.3l-.03,.02Z"/>
      <path class="cls-2" d="M136.96,207.94c.71-.77,1.32-1.62,1.91-2.44,.49-.68,.98-1.36,1.52-1.99,2.14-2.47,4.38-4.29,6.04-4.9,.02,0,.05-.02,.07-.03,.51-.18,.78-.73,.6-1.24-.18-.51-.73-.77-1.24-.6-.76,.27-1.52,.69-2.26,1.19,.32,.23,.49,.63,.39,1.03-.13,.52-.66,.84-1.18,.71-.38-.09-.77-.15-1.17-.2-1.1,.98-2.06,2.01-2.72,2.77-.59,.68-1.11,1.4-1.63,2.13-.58,.81-1.13,1.57-1.76,2.25-1.94,2.1-4.62,3.41-6.99,4.41-6.26,2.67-12.89,4.29-19.7,4.82-.03,0-.06,.02-.1,.03-.48,.09-.84,.52-.8,1.02,.04,.51,.47,.9,.97,.9,.02,0,.05,0,.08,0,.78-.06,1.56-.14,2.34-.23,6.2-.7,12.25-2.29,17.99-4.74,2.55-1.09,5.46-2.51,7.65-4.88Z"/>
      <path class="cls-2" d="M159.18,195.23c-.47,.59-.88,1.12-1.26,1.62-.95,1.24-1.69,2.26-2.61,3.54l-1.21,1.68c-2.2,3.02-4.7,6.45-8.08,8.43-2.49,1.45-5.3,2.08-8.28,2.75-2.25,.5-4.57,1.03-6.76,1.94-.5,.21-.73,.78-.53,1.27,.15,.37,.52,.6,.9,.6,.12,0,.25-.02,.37-.08,2.03-.84,4.27-1.35,6.43-1.83,2.99-.67,6.09-1.37,8.83-2.97,3.73-2.18,6.36-5.78,8.68-8.96l1.22-1.69c1.27-1.76,2.19-3.04,3.81-5.08,.17-.21,.23-.47,.2-.72-.03-.25-.15-.48-.36-.65-.42-.34-1.04-.26-1.37,.16Z"/>
      <path class="cls-2" d="M184.01,189.56c.1-.16,.17-.35,.16-.56-.03-.54-.49-.93-1.03-.92-.83,.04-1.77,.26-2.76,.6-.88,.3-1.79,.71-2.71,1.18-3.39,1.75-6.81,4.47-8.36,6.75-2.18,3.19-4.42,6.48-7.86,7.29-.52,.12-.85,.65-.72,1.17,.11,.45,.5,.75,.95,.75,.08,0,.15,0,.23-.03,4.17-.98,6.74-4.76,9.09-8.2,2.01-2.94,8.59-7.31,12.16-7.57,.03,0,.06,0,.09-.01,.33-.02,.6-.21,.76-.47Z"/>
      <path class="cls-2" d="M159.5,205.03c-.43-.24-.96-.12-1.25,.25-.54,.09-1.46,.18-1.91,.22-.41,.04-.75,.07-.9,.1-.53,.09-.88,.6-.79,1.13,.08,.47,.49,.81,.96,.81,.06,0,.11,0,.17-.02,.12-.02,.4-.04,.74-.08,2.37-.22,3.35-.31,3.55-1.25,.09-.42-.2-.96-.57-1.17Z"/>
      <path class="cls-2" d="M191.74,189.19c.01-.54-.42-.98-.96-.99-.92,0-1.84,.1-2.75,.28-1.19,.24-2.36,.63-3.45,1.16-.24,.12-.48,.25-.72,.38-.79,.45-1.55,.97-2.23,1.57-.57,.5-1.09,1.06-1.62,1.61-.28,.29-.56,.59-.84,.87-1.84,1.83-4.08,3.34-6.47,4.35-.5,.21-.73,.78-.52,1.28,.16,.37,.52,.59,.9,.59,.13,0,.26-.02,.38-.08,2.62-1.11,5.07-2.76,7.09-4.77,.3-.3,.59-.6,.88-.91,.48-.51,.97-1.03,1.49-1.49,1.94-1.72,4.47-2.76,7.05-2.88,.26-.01,.51-.03,.77-.02,.53,.08,.88-.33,.96-.79,0-.06,.03-.11,.03-.16Z"/>
      <path class="cls-2" d="M138.55,197.63c-.76,.12-1.53,.29-2.32,.54-.03,0-.05,.02-.08,.03-.8,.25-1.61,.56-2.44,.94-1.54,.7-3.01,1.54-4.44,2.36-1.2,.69-2.44,1.4-3.68,2-4.3,2.07-9.09,3.05-13.86,2.92-.51-.11-.99,.4-1.01,.94-.02,.54,.4,.99,.94,1.01,.35,.01,.7,.02,1.05,.02,4.73,0,9.46-1.07,13.72-3.12,1.31-.63,2.58-1.36,3.8-2.06,1.39-.79,2.82-1.61,4.27-2.27,2.63-1.19,5.01-1.66,7.11-1.44,.4,.04,.79,.1,1.17,.2,.52,.13,1.05-.18,1.18-.71,.1-.4-.07-.81-.39-1.03-.09-.07-.2-.12-.32-.15-1.47-.37-3.05-.41-4.72-.15Z"/>
      <path class="cls-2" d="M97.18,201.76l-.14,1.94c2.29,.26,4.63,.46,6.97,.59h.05s1.02-.02,1.02-.02v-.96c.02-.98,.03-1.34-7.91-1.55Z"/>
      <path class="cls-2" d="M112.35,201.87c-.09-.53-.6-.87-1.13-.79-1.13,.2-2.25,.38-3.38,.56-.53,.09-.89,.59-.81,1.12,.08,.48,.49,.82,.96,.82,.05,0,.1,0,.16-.01,1.13-.19,2.27-.37,3.4-.57,.53-.09,.89-.6,.79-1.13Z"/>
      <path class="cls-2" d="M101.21,199.9c.95,0,1.91-.07,2.86-.23,1.52-.26,2.97-.74,4.37-1.22,.93-.31,1.86-.62,2.8-.87,3.61-.93,7.41-.81,11.08-.71,.28,.06,.54-.07,.73-.28,.16-.18,.27-.42,.27-.67,.02-.54-.41-.99-.94-1-2.04-.06-4.24-.12-6.46,.02-1.73,.1-3.47,.32-5.16,.75-.99,.25-1.96,.58-2.94,.91-1.39,.47-2.71,.91-4.08,1.14-3.25,.56-6.61-.12-9.86-.76-.53-.12-1.04,.24-1.15,.77-.01,.06,0,.12,0,.18,0,.4,.23,.75,.6,.89,.06,.02,.11,.06,.17,.07,2.4,.48,5.04,1,7.7,1Z"/>
      <path class="cls-2" d="M94.57,192.93c.48,0,.9-.36,.96-.85,.07-.54-.31-1.02-.85-1.09l-4.73-.58c-.53-.09-1.02,.31-1.09,.85-.07,.53,.31,1.02,.85,1.09l4.72,.58s.08,0,.12,0Z"/>
      <path class="cls-2" d="M91.72,185.43c.82-.09,1.65-.17,2.48-.18,2.45-.08,5.09,.61,8.24,2.01,.13,.06,.25,.1,.37,.16,.13,.06,.27,.09,.4,.09,.37,0,.72-.21,.89-.57,.13-.29,.1-.6-.04-.86-.1-.18-.24-.34-.44-.43-.04-.02-.09-.04-.13-.06-1.31-.59-2.54-1.06-3.71-1.41-.34-.1-.68-.19-1.02-.28-1.61-.4-3.12-.6-4.59-.61-.89,0-1.78,.1-2.66,.19-1.07,.11-2.08,.22-3.07,.17-2.05-.1-4.12-.84-5.97-1.52-.08-.03-.16-.06-.23-.09-.5-.18-1.07,.07-1.25,.58-.19,.5,.07,1.06,.58,1.25,.86,.32,1.77,.65,2.72,.94,1.3,.4,2.66,.72,4.07,.78,1.15,.05,2.27-.06,3.36-.18Z"/>
      <path class="cls-2" d="M86.88,177.74c1.33,.07,2.66,.15,3.98,.31,1.11,.13,2.36,.36,3.15,1.09,.13,.12,.3,.18,.46,.22,.06,.01,.13,.04,.19,.04,.26,0,.53-.11,.72-.32,.36-.4,.34-1.02-.06-1.38-1.12-1.02-2.6-1.37-3.95-1.54-.09-.01-.19-.03-.28-.04-1.37-.17-2.74-.24-4.11-.32-1.34-.08-2.73-.15-4.07-.32-3.06-.38-5.39-1.23-7.12-2.59-.2-.15-.43-.21-.66-.2-.27,.02-.53,.13-.7,.36-.33,.42-.26,1.04,.17,1.37,1.04,.82,2.26,1.47,3.66,1.97,1.31,.47,2.77,.81,4.42,1.01,1.4,.18,2.83,.26,4.2,.33Z"/>
      <path class="cls-2" d="M80.2,170.76c.52,0,.95-.41,.97-.94,.02-.54-.4-.99-.94-1.01-3.28-.12-6.58-.39-9.81-.79-.1-.01-.21-.02-.31-.03-.54-.06-1.02,.31-1.09,.84-.07,.53,.31,1.02,.84,1.09,.98,.12,1.96,.23,2.95,.33,2.43,.24,4.89,.42,7.34,.5,.01,0,.02,0,.04,0Z"/>
      <path class="cls-2" d="M176.11,239.45c.92,.17,1.84,.32,2.77,.44,6.8-4.94,12.52-11.23,16.8-18.43v-4c-4.58,8.82-11.32,16.4-19.57,21.99Z"/>
      <path class="cls-2" d="M184.44,240.22c1.8-.03,3.6-.2,5.38-.49,2.09-1.2,4.05-2.61,5.86-4.22v-2.66c-3.14,3.09-6.86,5.57-10.96,7.19-.11,.04-.2,.11-.28,.18Z"/>
      <path class="cls-2" d="M195.68,250.73v-.26c-.06,.07-.11,.15-.15,.23,.05,0,.1,.01,.15,.02Z"/>
      <path class="cls-2" d="M186.3,248.16c.4,.15,.8,.3,1.2,.44,.51,.18,1.03,.34,1.54,.5,2.46-1.28,4.99-3.3,6.52-4.6l.13-.11v-2.56l-1.4,1.19c-1.51,1.29-5.23,4.3-7.99,5.14Z"/>
      <path class="cls-2" d="M185.97,250.12s-.06-.02-.09-.03c.03,.01,.06,.02,.09,.03Z"/>
      <path class="cls-2" d="M149.27,238.52c-.37-.39-.99-.4-1.38-.03l-3.65,3.52c-.14,.13-.21,.3-.25,.47,.56,.29,1.12,.57,1.69,.85l3.56-3.43c.39-.37,.4-.99,.03-1.38Z"/>
      <path class="cls-2" d="M160.04,240.96c.53,.03,1.01-.35,1.05-.89,.05-.54-.35-1.01-.89-1.05-2.6-.21-4.96,1.3-7.24,2.78-1.82,1.18-3.55,2.29-5.26,2.47,.62,.27,1.25,.53,1.88,.76,.36,.13,.73,.25,1.09,.36,1.15-.54,2.26-1.25,3.35-1.95,2.09-1.36,4.06-2.64,6.01-2.47Z"/>
      <path class="cls-2" d="M147.21,246.18s0,0,0,0c0,0,0,0,0,0Z"/>
      <path class="cls-2" d="M175.07,233.17c-.46,.27-.62,.87-.35,1.33,.18,.31,.51,.48,.84,.48,.17,0,.34-.04,.49-.13,3.57-2.09,5.52-5.74,7.52-9.94l2.55-5.36c.06-.13,.09-.26,.09-.39-.1,.07-.22,.14-.32,.21-1.15,.85-2.22,1.87-3.26,2.95l-.83,1.75c-1.86,3.9-3.66,7.28-6.75,9.1Z"/>
      <path class="cls-2" d="M163.87,242.35c-.54,.04-.94,.51-.9,1.05,.04,.51,.47,.9,.97,.9,.02,0,.05,0,.08,0,1.79-.14,3.56-.9,5.26-1.64,2.19-.94,4.26-1.83,6.12-1.35,0,0,.02,0,.02,0-1.75-.33-3.49-.73-5.2-1.15-.57,.23-1.15,.47-1.71,.71-1.63,.7-3.17,1.37-4.64,1.49Z"/>
      <path class="cls-2" d="M184.44,240.22c-.93,.02-1.86,0-2.79-.05-.92-.06-1.85-.16-2.77-.28-.92-.12-1.85-.27-2.77-.44-2.7-.5-5.38-1.17-8.01-1.84-2.71-.68-5.51-1.39-8.32-1.9-7.04-1.28-14.33-1.35-21.41-.26-1.83,.57-3.62,1.31-5.33,2.29,.51,.12,1.01,.26,1.51,.42,8.12-1.82,16.68-2.03,24.88-.53,2.74,.5,5.51,1.2,8.19,1.88,.86,.22,1.73,.44,2.61,.65,1.72,.42,3.45,.82,5.2,1.15,2.01,.38,4.04,.68,6.09,.81,.78,.05,1.55,.07,2.33,.07,4.02,0,8.01-.66,11.83-1.88v-2.05c-1.91,.65-3.87,1.14-5.86,1.47-1.78,.3-3.58,.46-5.38,.49Z"/>
      <path class="cls-2" d="M195.68,250.73s-.1-.01-.15-.02c-2.16-.38-4.33-.92-6.5-1.6-.51-.16-1.03-.33-1.54-.5-.4-.14-.8-.29-1.2-.44-.53-.19-1.05-.38-1.58-.58-3.25-1.23-6.61-2.51-10.18-2.7-.35-.02-.7-.03-1.05-.03-2.46,0-4.9,.46-7.25,.91-1.55,.29-3.15,.59-4.71,.76-3.65,.36-7.36-.03-10.85-1.12-.37-.11-.73-.23-1.09-.36-.63-.23-1.26-.48-1.88-.76-.68-.3-1.36-.62-2.03-.94-.57-.28-1.13-.56-1.69-.85-.43-.22-.85-.44-1.27-.66-2.62-1.37-5.31-2.77-8.17-3.66-.5-.15-1-.3-1.51-.42,1.71-.98,3.5-1.72,5.33-2.29,4.81-1.5,9.9-1.78,14.55-1.78,2.78,0,5.6,.11,8.33,.22l2.24,.09c1.82,.07,3.56,.04,4.92-.22,4.98-.97,8.35-4.81,11.6-8.52,.86-.98,1.74-1.97,2.64-2.92,1.03-1.08,2.11-2.1,3.26-2.95,.1-.07,.21-.14,.32-.21,.83-.59,1.71-1.13,2.58-1.66,1.03-.62,2.08-1.26,3.08-2,1.38-1.03,2.61-2.23,3.8-3.42v-2.77c-.3,.3-.59,.59-.88,.89-1.35,1.36-2.62,2.65-4.08,3.74-.92,.68-1.89,1.27-2.92,1.89-1.01,.61-2.06,1.24-3.05,1.97-2.32,1.72-4.3,3.97-6.21,6.14-3.18,3.62-6.19,7.05-10.51,7.89-1.2,.24-2.81,.25-4.47,.19l-2.23-.09c-2.75-.11-5.59-.22-8.41-.22-7.46,0-16.04,.68-23.08,5.76l-2.08,1.5,2.55,.26c4.06,.41,7.67,2.3,11.5,4.3,1.74,.91,3.54,1.84,5.38,2.63,0,0,0,0,0,0,.57,.24,1.14,.47,1.72,.68,4.07,1.47,8.47,2.02,12.8,1.58,1.65-.17,3.29-.48,4.88-.78,2.7-.51,5.22-.99,7.83-.84,3.28,.18,6.49,1.4,9.6,2.58,.62,.23,1.24,.46,1.85,.69,.03,.01,.06,.02,.09,.03,.29,.11,.58,.22,.87,.32,2.94,1.03,5.89,1.77,8.83,2.26v-1.97Z"/>
    </g>
  </g>
</svg>