<?xml version="1.0" encoding="UTF-8"?>
<svg id="Layer_2" data-name="Layer 2" xmlns="http://www.w3.org/2000/svg" viewBox="0 0 339.32 358.46">
  <defs>
    <style>
      .cls-1 {
        fill: none;
      }

      .cls-2 {
        fill: #cecece;
      }
    </style>
  </defs>
  <g id="Layer_1-2" data-name="Layer 1">
    <g>
      <path class="cls-1" d="M185.11,117.95c-.06,0-.12,0-.18,0-.87,.35-2.07-.07-2.7-.71-5.05-5.26-18.03-8.78-31.86-9.82,6.37,2.17,18.16,6.35,13.73,11.53,1.73,.91,3.06,2.35,4.06,4.14,.17-.32,.52-.51,.92-.25,4.9,3.17,8.01,9.7,8.74,15.35,.04,.32,.05,.75,.02,1.26,.28-.23,.56-.47,.85-.7,.17-1.24,.1-2.56-.35-4.12-.92-3.2-2.29-6.08-4.05-8.9-.56-.89,.7-1.83,1.43-1.1,2.53,2.52,5.45,7.22,6.4,11.78,.27-.17,.55-.35,.82-.52,.15-.09,.28-.1,.43-.16,.06-.02,.1-.06,.16-.09,0,0,0,.02,.01,.02,.14-.05,.28-.13,.41-.15,.54-.24,1.09-.45,1.67-.58,.39-.09,.84-.14,1.32-.16-4.2-3.7-4.56-11.06-1.84-16.86Z"/>
      <path class="cls-1" d="M192.71,137.12c-.14-.01-.26-.05-.39-.07,.09,.22,.18,.44,.2,.69,.06-.21,.13-.42,.19-.63Z"/>
      <path class="cls-1" d="M2.56,158.42c-.83-1.33-1.7-2.64-2.56-3.96v1.77c.87,.71,1.72,1.43,2.56,2.19Z"/>
      <path class="cls-1" d="M195.65,317.07c-1.01-.22-2.03-.51-3.06-.99-3.24-1.51-5.36-6.26-6.74-9.18-3.27-6.93-7.71-9.98-13.17-10.88-4.42,10.16-21.28,22.2-32.2,18.15,6.47,7.18,15.02,12.29,24.65,16.05,5.64,.16,11.55-1.71,16.53-4.11,5.06-2.44,9.33-6.1,13.98-9.04Z"/>
      <path class="cls-1" d="M220.21,238.46c3.88,4.99,1.72,10.51-1.98,15.13,42.76-7.35,80.42-55.15,59.99-97.26-.06,.45-.12,.89-.18,1.35-.28,1.96-3.48,1.87-3.85,0-1.56-8-4.84,6.09-4.82,7,.02,2.38,.12,4.76,.28,7.14,.31,5.07,.53,9.86-.77,14.84-3.36,12.96-9.14,22.53-19.57,31.07-.72,.59-1.63-.3-1.02-1.02,8.74-10.46,18.27-24.03,17.8-38.43-.12-3.64-.35-7.25-.45-10.87-2.07-8.6-6.6-15.37-12.3-21.77,1.03,5.79,.93,12.39-5.83,11.44-6.32-.89-7.15-4.45-11.47-9.11-4.96-5.33-23.4-16.6-14.26-.54,16.63,29.2-5.32,55-31.96,65.78-.63,.25-.9-.67-.43-1.01,16.95-12.13,34.06-19.58,34.39-43.66,.18-13-10.04-22.37-8.57-35.04,.12-1.03,1.04-2.13,2.22-1.69,7.03,2.6,14.17,5.96,19.53,11.37,.13,.13,.25,.28,.39,.41,.86-4.21,.8-8.23,.12-12.13-.34,.27-.69,.57-1.04,.83-.59,.45-1.31-.4-.97-.97,.48-.81,.99-1.59,1.51-2.37-2.84-11.6-10.83-22.14-16.21-33.21-.23,2.11-.96,4.21-2.27,6.27,3.97,5.82,6.35,12.94,6.24,18.74-.03,1.81-2.82,1.81-2.82,0,0-12.75-9.97-25.54-22.46-26.53-.59-.05-2.8,.14-3.58-.63-5.2-5.2-3.26-11.33-15.15-9.3-4.89,.83-3.51,.66-9.28,.66-11.86,0-11.02-11.35-26.79-5.38-10.22,3.87-17.93-1.98-26.1,8.31-.61,.77-2.15,.98-2.93,.38-12.4-9.51-23.46,6.33-30.64,13.38-1,.99-2.9-.35-2.01-1.55,5.35-7.2,19.87-27.09,31.46-18.64-.07-.05,1.51-.73,3.76-1.59,.95-2.2,1.97-4.18,3.08-5.97-.31-25.59-22.49-12.28-32.33-7.79-1.09,.5-2.53,.46-3.66,.15-1.36-.37-2.71-1.71-3.25-3-2.01-4.84-14.77,14.19-16.13,16.73-.43,.8-1.54,1.28-2.41,.98-4.82-1.68-12.99-10.21-17.63-4.28-3.3,4.22-6.05,9.71-10.57,12.83-.15,.11-.32,.12-.47,.09,1.69,6.69,4.37,4.86,12.22,3.36,1.25-.24,2.64,.33,2.96,1.68,.98,4.15-.12,19.51,8.61,16.97,3.72-1.08,8.58-3.53,12.6-3.07,4.61,.53,9.77,2.52,11.14,7.64,1.59,5.96,.33,11.83-2.03,17.64,7.68-6.14,18.71-15.73,27.37-7.06,1.83,1.83,1.61,4.24,3.07,6.26,3.7,5.12,10.72,1.54,14.78-.08,3.98-1.59,9.01,2.4,11.83,4.37,8.74,6.12,20.91,16.8,23.89,27.59,.25,.9,.36,1.86,.42,2.84,4.34-.58,10.48-4.74,14-.47,3.1,3.76,3.87,4.09,8.57,2.28,3.33-1.28,6.7-2.45,10.01-3.77,8.11-3.26,22.36-6.51,22.06,6.84-.03,1.07-1.68,1.71-2.17,.59-2.33-5.28-5.62-7.01-9.41-6.89-.18,14.46-9.27,34.1-22.97,40.47-.55,.25-1.2-.43-.69-.89,12.03-10.92,19.75-23.33,22.6-39.5-8.21,.93-18.51,9.39-26.75,9.32-1.04,0-1.75-.68-2.11-1.6-2.67-6.96-8.47-3.38-13.18-3.75-.97,11.25-11.3,25.93-17.07,32.71-.36,.43-1.19-.03-.97-.57,4.1-10.04,20.42-28.76,13.03-40.1-3.97-6.1-17.11-22.87-27.46-24.19-.59,13.23-5.88,30.21-16.06,39.25,1.19,1.14,2.39,2.33,3.6,3.55,1.89-3.26,4.11-6.35,5.96-9.63,3.74-6.61,6.85-13.48,9.07-20.75,.23-.73,1.35-.43,1.15,.32-1.79,6.71-4.34,12.97-7.4,19.19-2.13,4.32-4.03,8.97-6.5,13.19,5.98,6.22,11.76,13.26,15.08,20.85,2.9,6.65-2.21,12.67-6.83,16.97,.48-.15,.97-.26,1.45-.4,4.81-3.38,10-6.41,14.39-10.05,7.23-6,13.03-12.94,18.88-20.25,.41-.52,1.2,.15,.89,.69-4.96,8.62-11.66,17.08-19.17,23.64-.88,.77-1.78,1.56-2.7,2.35,7.18-3.01,14.55-7.46,21.58-7.17,3.86-2.1,7.76-4.07,11.09-7.25,4.19-4,7.45-8.65,11.16-13.07,.32-.39,.88,.11,.67,.52-3.67,6.95-9.87,15.97-17.46,21.16,1.29,.62,2.58,1.41,3.83,2.53,4.83,4.31,2.28,9.44,11.48,11.05,5.15,.9,9.99,1.06,15.08,1.88,9.06,1.47,16.07,4.32,21.81,11.71Zm-7.96-79.49c-.02,.97-1.49,.97-1.51,0-.12-9.49,1.57-25.96-6.8-33-.8,.33-1.7,.23-2.45-.68-2.93-4.77-7.35-7.23-13.25-7.43-2.64,6.77-2.75,16.09,6.88,15.66,1.44-.06,2.1,1.54,1.54,2.68-4.94,10.08-.14,17.94,9.23,22.39,1.74,.83,.23,3.38-1.51,2.58-9.83-4.57-14.2-12.06-12.33-21.59-.22,.2-.49,.32-.81,.25-1.09-.25-1.98-1.07-3.04-1.25-.56-.09-1.12-.09-1.67-.02-.01,.06-.05,.11-.06,.16,.35,.06,.7,.09,1.05,.26,1.03,.48,1.41,2.07,.79,2.99-1.19,1.74-3.35,2.08-5.19,2.82-1.63,.66-3.26,1.39-4.8,2.26,.2,.08,.41,.13,.6,.23,3.07,1.45,14.45-2.83,13.7,4.42-.05,.56-.47,1.18-1.12,1.12-3.69-.34-5.74-1.9-9.83-.17-.67,.28-1.53,.49-2.17,0-6.88-5.2-12.04,3.38-18.93,3.64-.93,.04-1.33-1.35-.48-1.77,3.59-1.82,7.64-5.76,11.94-7.34-.11-.08-.22-.14-.33-.24-.26-.23-.35-.65-.25-.97,.46-1.6,2.32-1.76,2.76-3.36,.63-2.21,.38-4.57-.23-6.76-1.03-3.67-2.55-7.32-4.76-10.47,3.05,8.64-.07,22.08-7.17,25.47-1.3,.62-2.36-1.14-1.14-1.94,5.98-3.91,8.65-26.86-1.25-27.1-1.86-.04-2.81-2.74-.99-3.66,5.66-2.86-3.8-5.24-6.22-6.21-2.01-.8-3.96-1.5-5.6-2.94-.55-.49-.49-1.25-.12-1.78-16.46-.71-33.21,2.12-38.53,9.76-.82,1.17-2.89,.85-2.84-.77,.45-14.7,40.74-12.06,49-11.51,9.97,.66,21.54,1.21,30.08,6.99,.94,.64,7.27-.67,9.22,.31,4.64,2.32,7.61,4.65,10.57,8.42,.49,.19,.93,.5,1.21,.94,7.53,11.83,7.15,23.96,6.85,37.63Z"/>
      <path class="cls-1" d="M132.08,75.84c8.95,1.16,15.69-4.19,24.2-1.76,10.68,3.05,6.5,10.35,23.66,7.32,2.26-.4,4.78-1.07,7.06-.24,2.7,.97,12.34,10.13,12.47,10.11,6.81-.88,12.92,2.98,17.43,8.59,5.1-19.03-34.6-50.85-48.54-35.43-3.07,3.4-6.57,6.11-11.54,5.29-15.38-2.56-24.82-3.08-34.22,8.55,3.91-1.35,8.04-2.59,9.49-2.4Z"/>
      <path class="cls-1" d="M7.57,113.54c8.53,7.85,5.66,25.1,8.78,34.78,5.31,16.47,17.55,29.08,21.6,46.07,3.71,15.51,8.99,24.65,20.21,36.02,.53,.54-.14,1.37-.79,1.03-11.6-6.07-17.79-15.01-20.87-27.6-2.76-11.26-5.9-21.47-12.3-31.31-3.72-5.72-8.12-11.59-10.61-17.99-3.79-9.75-2.75-19.78-6.03-29.43-1.57-4.63-4.33-7.97-7.56-10.85v31.72c7.41,10.14,14.24,20.58,17.99,32.43,4.47,14.12,4,30.73,15.22,41.82,10.44,10.33,22.77,18.44,37.49,20.45-1.7-2.61-3.11-5.6-4.28-8.81-.32,.19-.7,.27-1.14,.05-26.34-13.2-28.91-63.28-28.26-88.41,.02-.84,1.32-.85,1.31,0-.27,15.64,1.23,31.75,5.59,46.82,4.55,15.72,11.5,25.65,21.23,37.71-3.51-11.89-4.18-25.62-3.75-33.5,.63-11.39-.16-21.87,9.58-29.63,3.74-2.98,5.31,1.83,8.28,2.7,1.83,.54,2.76,3.46,3.71,4.73-.24-.32,4.92-3.83,5.67-3.83,8.2,0,16.89,2.45,23.18,7.85,4.59-6.43,8.98-12.25,11.54-20.01,1.99-6.01,3.08-12.12,4.54-18.24-1.34,0-2.64,.25-3.84,.91-5.33,2.89-11.35,4.07-16.21-.79-4.68-4.68-2.62-17.63-17.72-7.58-3.86,2.56-7.4,5.33-11.62,7.27-4.35,9-10.43,17.89-11.82,26.75-.16,1-1.57,.65-1.65-.22-.68-7.55,3.81-14.9,7.1-21.41,3.12-6.17,8.27-14.11,7.89-21.32-.85-16.4-14.19-7.98-20.4-6.73-12.61,21.63-8.74,45.68-7.59,69.48,.04,.83-1.21,.97-1.42,.19-5.8-20.72-5.4-50.38,6.66-69.31-3.74,.43-6.44-.26-9.05-3.78-1.06-1.43-1.38-5.67-1.51-7.3-.69-8.01-6.06-5.07-12.06-3.94-1.15,.22-2.77-.31-2.96-1.68-.77-5.68-.86-15.49-11.05-3.18-4.8,5.8-7.07,11.93-8.47,19.17-.21,1.1-1.82,.77-1.87-.25-.65-13.45,7.67-26.29,21.3-28.53,1.11-.18,2.5,.27,2.73,1.55,.06,.3,.12,.56,.17,.84,2.95-4.88,10.36-21.89,18.67-18.53,5.84,2.36,8.43,6.94,13.52,.26,4.27-5.6,8.13-9.66,14.59-12.75,1.19-.57,2.31-.06,2.78,1.13,3.12,7.9,13.08-1.4,17.81-2.7,3.79-1.04,8.79,.79,12.2,2,6.3,2.23,9.19,7.31,9.38,13.11,3.13-3.88,6.93-6.45,11.83-7.62,4.56-13.21,16.16-25.75,15.62-39.92-.41-10.99-8.48-7.64-14.42-11.36-6.35-3.99-10.85-8.77-18.36-1.56-5.84,5.61-12.31,.74-17.87-1.28-2.84-1.03-3.96-9.19-8.34-.78-2.83,5.43-4.03,11.07-4.86,17.01,5.87,8.72,8.99,19.37,8.72,29.97-.03,.94-1.29,1.06-1.59,.21-4.8-13.52-17.8-59.46-37.48-30.12-.75,1.12-2.22,1.36-3.23,.41-13.75-12.9-17.18,15-23.3,21.12-3.77,3.77-6.08,.16-10.92,7.51-1.5,2.28-2.18,4.18-3.68,5.65,2.95,4.7,5.64,9.58,8.67,13.64,.99,1.32-1.03,2.53-2.12,1.64-3.25-2.65-20.56-23.95-22.16-26.66v59.33c2.62,1.65,5.19,3.39,7.57,5.58Z"/>
      <path class="cls-1" d="M321.62,219.35c-1.06,.14-2.26-1.08-2.13-2.13,2.06-17.31-23.14-5.53-32.17-3.52-1.15,.26-1.93-1.35-.83-1.95,2.44-1.32,4.96-2.59,7.55-3.74,.03-.34,.19-.69,.55-.97,13.49-10.41,28.78-31.13,22.38-49.53-2.62-7.51-16.05-36.44-27.58-32.99-.64,.19-1.52,0-1.97-.52-2.1-2.52-10.25-14.72-12.49-13.8-2.97,1.21-4.17,2.07-7.43,1.17-5.62-1.55-2.32-11.8-10.29-10.01-2.12,9.81-8.78,19.75-15.78,26.59,1.23,6.13,.93,12.32-1.64,18.26,1.7,1.87,3.37,3.75,5.07,5.62,5.28,5.83,3.14-11.55,3-12.37-.36-2.17,2.25-3.35,3.54-1.49,5.23,7.55,11.29,13.92,14.37,21.92,.58-5.63,3.4-8.97,9.14-9.24,.03-.26,.07-.53,.09-.79,.21-1.94,2.63-2.84,3.78-1.02,9.98,15.89,11.43,33.53,6.94,49.85,9.11-12.45,15.5-25.35,19.58-40.87,.29-1.1,1.98-.63,1.7,.47-4.23,16.88-9.99,34.29-23.16,46.18-10.22,27.8-37.48,50.5-68.21,52.01-.92,.93-1.88,1.79-2.81,2.58,1.07-.54,2.08,.8,1.26,1.68-11.43,12.39-30.79,10.74-46.09,8.98-2.29-.26-4.59-.53-6.9-.81,7.48,5.51,17.53,8.18,25.96,10.81,10.29,3.21,17.98,1.53,28.21-.11,7.33-1.18,13.92,2.07,20.63,4.42,8.68,3.04,18.17,4.58,27.39,3.55,21.36-2.4,43.86-10.73,58.04-27.69,6.82-8.15,26.09-43.97,.31-40.54Z"/>
      <path class="cls-2" d="M7.56,125.1c3.28,9.65,2.24,19.68,6.03,29.43,2.49,6.4,6.88,12.27,10.61,17.99,6.4,9.84,9.53,20.05,12.3,31.31,3.09,12.59,9.27,21.53,20.87,27.6,.65,.34,1.33-.49,.79-1.03-11.22-11.37-16.5-20.51-20.21-36.02-4.05-16.99-16.28-29.6-21.6-46.07-3.13-9.67-.25-26.93-8.78-34.78-2.37-2.19-4.95-3.92-7.57-5.58v6.29c3.23,2.88,6,6.22,7.56,10.85Z"/>
      <path class="cls-2" d="M46.02,317.03c-.53-1.3-2.66-.76-2.14,.59,4.02,10.42,16.29,13.56,26.03,16.46,11.2,3.33,22.56,6.63,34.02,8.97,12.23,2.5,40.38,1.38,24.36-17.16-.5-.58-1.48,.03-1.26,.73,6.76,21.29-23.34,11.77-34.56,8.91-12.76-3.24-41-5.17-46.46-18.51Z"/>
      <path class="cls-2" d="M99.01,316.77c9.35-11.05,7.54-27.65,3.81-40.55-.2-.69-1.25-.4-1.07,.29,3.57,14.29,2.59,26.3-3.55,39.64-.23,.49,.4,1.1,.8,.62Z"/>
      <path class="cls-2" d="M4.23,297.3c8.24,4.5,11.05,5.57,20.28,2.51,13.35-4.42,23.74-14.71,37.48-19.09,5.19-1.66,9.82-3.33,14.68-5.75,5.26-2.63,4.78-6.99,12.34-8.15,1.81-.28,1.04-3.01-.75-2.74-6.96,1.02-7.47,4.23-13.14,8.24-9.54,6.74-23.41,7.6-33.78,13.67-4.61,2.7-9.04,5.68-13.69,8.33-19.32,11.04-13.9-.45-24.88-2.79-.92-.2-1.85-.41-2.77-.62v4.4c1.44,.59,2.85,1.24,4.23,1.99Z"/>
      <path class="cls-2" d="M40.81,253.26c1.91-.48,1.09-3.39-.81-2.94-14.52,3.51-27.25,9.5-40,16.53v3.49c12.89-7.3,26.4-13.45,40.81-17.09Z"/>
      <path class="cls-2" d="M328.91,214.9c-7.87-.69-2.96-9.79-11.44-11.09-4.92-.76-9.78-.22-14.5,1.03,11.23-8.77,16.99-23.76,18.71-37.64,1.17-9.51-3.58-18.17-8.46-25.86-3.43-5.41-8.26-15.39-14.26-18.67-7-3.83-8.62-.7-13.98-8.37-1.49-2.14-5.15-8.74-8.45-8.06-10.66,2.22-10.48-9.42-18.92-7,.59-4.02,.38-7.98-.98-11.65-.34-.93-1.3-1.39-2.21-.9-4.67,2.51-5.11-9.24-6.17-12.7-.27-.87-1.15-1.13-1.92-.78-.66,.3-1.02,.44-1.27,.45-.94-6.58-3.37-13.04-6.94-18.82-3.44-5.58-10.44-18.94-17.56-19.89-2.97-.4-6.49,.19-9.5,.19,2.35,0-10.3-4.23-9.83-4.11-5.72-1.42-8.81,9.71-13.83,4.62-8.39-8.5-22.23,4.81-28.23,8.8-.96,.64-.12,2.11,.9,1.55,9.59-5.27,18.32-12.44,27.96-3.71,.83,.75,1.78,.8,2.77,.36,6.13-2.73,9.99-6.43,17.43-3.69,5.79,2.15,11.56-4.95,16.98,1.58,14.85,17.88,23.11,35.56,13.02,58.96-.33,.76,.65,1.37,1.13,.66,4.55-6.74,6.38-14.35,6.11-21.97,2.89,3.29,2.94,7.94,3.75,12.93,.15,.93,1.41,1.35,2.15,.88,8.91-5.71-.53,17.23-1.97,19.9-2.42,4.5-5.75,8.35-8.9,12.32-3.5-11.84-11.94-23.13-19.3-31.35-.15-.16-.31-.21-.47-.24-1.79-15.69-28.09-31.16-39.33-34.7-2.66-.84-7.37-1.83-9.95-.61-3.86,1.83-2.85,1.19-6,4.21-7.4,7.1-12.5,1.59-19.62,1-2.9-.24-5.45-.11-7.84,.21,7.62-11.88,18.33-29.66,16.21-42.95-.7-4.4-2.35-7.01-6.61-8.75-7.43-3.03-14.19-9.33-21.9-10.95-5.22-1.09-13.65,11.16-17.1,7.96-1.82-1.69-7.78-5.65-9.85-5.94-9.46-1.33-12.9,11.6-13.62,20.41-3.25-4.17-7.18-7.8-11.71-10.62-11.59-7.22-14.6,11.66-22.66,6.16-9.16-6.24-15.9,8.61-18.44,14.39-3.28,7.51-3.37,7.91-10.31,11.41-5.62,2.83-5.56,8.72-7.99,13.69-3.75-5.64-8.05-10.71-14.01-13.38v4.48c1.6,2.71,18.92,24,22.16,26.66,1.09,.89,3.11-.31,2.12-1.64-3.03-4.06-5.72-8.94-8.67-13.64,1.5-1.47,2.18-3.37,3.68-5.65,4.84-7.35,7.15-3.74,10.92-7.51,6.12-6.12,9.55-34.01,23.3-21.12,1.01,.95,2.48,.7,3.23-.41,19.69-29.34,32.68,16.6,37.48,30.12,.3,.85,1.57,.73,1.59-.21,.28-10.6-2.85-21.25-8.72-29.97,.82-5.94,2.02-11.58,4.86-17.01,4.38-8.42,5.51-.25,8.34,.78,5.55,2.02,12.02,6.89,17.87,1.28,7.51-7.21,12.01-2.43,18.36,1.56,5.95,3.72,14.01,.38,14.42,11.36,.53,14.18-11.07,26.72-15.62,39.92-4.91,1.17-8.7,3.75-11.83,7.62-.19-5.8-3.09-10.88-9.38-13.11-3.42-1.21-8.41-3.04-12.2-2-4.74,1.3-14.69,10.6-17.81,2.7-.47-1.2-1.59-1.7-2.78-1.13-6.47,3.09-10.33,7.15-14.59,12.75-5.09,6.68-7.69,2.1-13.52-.26-8.31-3.36-15.72,13.65-18.67,18.53-.05-.28-.11-.54-.17-.84-.23-1.28-1.62-1.73-2.73-1.55-13.62,2.25-21.94,15.08-21.3,28.53,.05,1.03,1.65,1.35,1.87,.25,1.4-7.24,3.67-13.37,8.47-19.17,10.19-12.31,10.27-2.5,11.05,3.18,.19,1.37,1.81,1.9,2.96,1.68,6-1.13,11.37-4.07,12.06,3.94,.14,1.63,.45,5.87,1.51,7.3,2.6,3.52,5.3,4.21,9.05,3.78-12.06,18.93-12.46,48.59-6.66,69.31,.21,.77,1.47,.64,1.42-.19-1.15-23.8-5.02-47.85,7.59-69.48,6.21-1.25,19.55-9.67,20.4,6.73,.38,7.21-4.78,15.15-7.89,21.32-3.29,6.51-7.78,13.87-7.1,21.41,.08,.87,1.49,1.22,1.65,.22,1.39-8.87,7.47-17.75,11.82-26.75,4.22-1.94,7.76-4.7,11.62-7.27,15.09-10.04,13.04,2.9,17.72,7.58,4.86,4.86,10.89,3.68,16.21,.79,1.2-.65,2.49-.91,3.84-.91-1.46,6.12-2.55,12.23-4.54,18.24-2.56,7.76-6.95,13.58-11.54,20.01-6.29-5.4-14.98-7.85-23.18-7.85-.75,0-5.91,3.51-5.67,3.83-.95-1.27-1.88-4.19-3.71-4.73-2.97-.87-4.54-5.69-8.28-2.7-9.74,7.76-8.95,18.24-9.58,29.63-.43,7.88,.23,21.61,3.75,33.5-9.73-12.07-16.68-21.99-21.23-37.71-4.36-15.07-5.86-31.18-5.59-46.82,.01-.85-1.29-.84-1.31,0-.66,25.13,1.92,75.21,28.26,88.41,.44,.22,.82,.13,1.14-.05,1.17,3.21,2.58,6.2,4.28,8.81-14.72-2.01-27.05-10.12-37.49-20.45-11.22-11.09-10.75-27.7-15.22-41.82-3.75-11.85-10.58-22.29-17.99-32.43v8.5c.86,1.32,1.73,2.63,2.56,3.96-.84-.76-1.7-1.48-2.56-2.19v2.03c1.84,1.57,3.36,2.98,4.39,3.95,.19,.18,.39,.22,.59,.19,5.07,8.62,9.26,17.64,11.61,27.64,2.1,8.93,2.88,19.2,8.78,26.72,10.67,13.58,28.73,26.77,46.74,25.88,3.48,4.52,7.98,7.52,13.8,7.84,.11,0,.17-.04,.24-.08,.55,2.7,1.12,5.37,1.71,7.98,.23,1.02,1.77,.59,1.56-.43-4.74-23.02-6.5-42.52,4.26-64.11,.33-.67-.55-1.15-.98-.58-12.26,16.25-10.5,37.08-6.73,56.18-18.43-7.21-19.85-39.12-19.84-54.91,0-5.21,.92-31.46,9.22-23.43,1.81,1.75,3.26,3.28,4.88,5.45,.62,.84,1.59,1.44,2.68,1.09,1.81-.58,9.77-4.04,9.67-4.05,9.63,1.3,17.8,3.67,21.92,11.98-.17,.44-.4,.85-.55,1.31-.31,.93,.85,1.72,1.63,1.25,.07,.2,.16,.35,.23,.55,.2,.61,.45,1.09,.71,1.55-5.91,5.02-10.93,15.63-13.65,20.74-4.07,7.61-9.8,18.53-6.59,27.33,.26,.71,1.36,.43,1.15-.32-2.53-9.26,4.91-20.08,9.65-27.45,2.92-4.55,6.2-8.92,9.57-13.15,1-1.26,2.22-2.41,3.32-3.62,.31,.24,.6,.46,.93,.73,1.12,.91,2.43,1.53,3.9,1.86,11.72,5.31,5.37,18.27-.44,24.7-.37,.4-.34,.86-.12,1.2-13.6,5.07-25.45,14.57-32.75,27.25-.63,1.09,.93,1.91,1.65,.96,7.07-9.36,16.64-17.07,27.42-21.84,.21,.38,.63,.64,1.15,.51,3.06-.78,5.99-2.2,8.8-3.95,.26-.07,.52-.17,.79-.23,7.82-1.88,34.16-13.24,39.09-6,3.55,5.2,5.75,7.71,11.9,9.83,2.1,.73,8.28,1.16,10.36,1.35,7.79-.13,14.86,2.08,21.26,6.57-3.13,1.41-6.18,2.95-9.41,4.17-3.27,1.24-6.76,2.04-9.9,3.62-.94,.48-.53,2.15,.55,2.04,6.58-.65,15.18-3.91,20.35-8.25,.88,6.28-.04,11.68-2.7,16.2-.34,.22-.53,.58-.55,.95-1.13,1.71-2.51,3.3-4.18,4.74-.33,.36-.31,.83-.13,1.21-12.85,5.43-25.86,5.2-39.93,3.68-3.89-.42-7.94-.76-12.05-1.11-.42-.52-.89-.98-1.28-1.53-.41-.59-1.36-.06-.98,.58,.17,.29,.4,.53,.59,.81-14.25-1.22-29.18-2.73-41.52-8.23-1.03-.45-1.92,1.04-.89,1.52,14.43,6.71,30.51,9.46,46.4,11.45,7.45,7.12,18.64,10.72,27.9,14.34,5.65,2.2,11.22,4.26,17.4,3.3,13.55-2.1,23.2-.12,35.78,4.29,16.4,5.75,37,1.75,55.05-6.69-.74,.79-.02,2.21,1.16,1.94,8.77-2.09-1.57,32.65-2.82,36.29-8.68,25.23-32.88,27.88-55.19,23.09-19.25-4.13-45.41-5.73-67.33-13.06,1.92-.27,3.88-.71,5.85-1.25,7.22-2.01,18.21-6.77,23.06-13.36,10.34-.12,20.14-9.53,29.91-1.02,13.75,11.98,32.9,13.8,49.84,5.62,4.76-2.3,12.11-6.48,12.08-12.81-.01-1.96,.09-7.27-2.99-7.16-.68,.02-.97,.94-.35,1.3,4.93,2.88-4.71,12.79-7.49,14.48-3.69,2.25-8.29,3.19-12.46,4.12-11.15,2.5-23.86,2.32-32.85-5.56-4.26-3.74-8.5-9.93-15.11-9.58-9.7,.52-22.1,10.31-28.64-2.95-9.28-18.81-19.31-12.95-36.89-11.55-19.67,1.57-28.43-26.11-45.3-32.17-.83-.29-1.36,1.01-.59,1.4,16.76,8.51,28.25,39.65,50.9,35.25,3.98-.77,7.65-1.22,10.99-1.05-5.28,9.49-22.36,22.38-31.96,15.66-4.26-5.53-7.4-12.16-8.98-20.23-.27-1.36-1.79-1.98-3.01-1.71-17.83,3.94-18.71-27.1-27.08-36.35-.55-.6-1.4,.16-1.07,.83,5.68,11.5,5.79,25.21,13.58,35.72,2.12,2.86,5.01,4.16,8.3,5.13,5.58,1.65,5.48,2.39,7.77,7.15-.72-.89-1.42-1.73-2.09-2.5-.66-.76-1.6,.21-1.27,.98,6.75,15.94,21.08,29.3,17.17,48.26-2.12,10.25-12.66,4.76-18.28,4.41-9.03-.56-18.04,.31-27.08,.26-5.7-.03-12.4-1.68-18.3-1.99-14.58-.76-19.88-6.89-27.5-18.01-.87-1.12-1.75-2.23-2.65-3.32-9.29-11.59-9.3-25.91,3.44-34.88,3.57-2.52,6.02-4.59,7.93-8.51,.25-.51-.45-1.17-.85-.65-9.09,11.62-37.04,20.28-20.65,40.38,5.87,7.19,12.36,18.21,19.98,23.54,9.4,6.58,21.87,4.64,32.69,6.56,13.35,2.37,26.88-.99,40.37,1.54,4.92,.92,9.85,.75,12.65-4.03,5.9-10.09,1.63-24.16-4.93-36.19,22.23,24.08,57.95,21.15,89.55,28.6,27.33,6.44,56.38,7.8,68.66-23.34,1.54-3.89,12.9-44.03,.25-40.45,12.4-6.15,23.43-14.31,30.78-22.78,6.71-7.74,22-43.13,1.36-44.93Zm-188.42,99.27c10.91,4.05,27.78-7.99,32.2-18.15,5.46,.9,9.9,3.95,13.17,10.88,1.37,2.92,3.5,7.67,6.74,9.18,1.03,.48,2.04,.77,3.06,.99-4.64,2.94-8.92,6.6-13.98,9.04-4.98,2.4-10.88,4.27-16.53,4.11-9.63-3.76-18.18-8.87-24.65-16.05Zm16.32-244.48c4.97,.82,8.47-1.89,11.54-5.29,13.94-15.42,53.64,16.41,48.54,35.43-4.51-5.61-10.62-9.46-17.43-8.59-.12,.02-9.77-9.14-12.47-10.11-2.28-.82-4.8-.16-7.06,.24-17.16,3.03-12.98-4.27-23.66-7.32-8.51-2.43-15.25,2.92-24.2,1.76-1.44-.19-5.58,1.05-9.49,2.4,9.4-11.62,18.84-11.1,34.22-8.55Zm41.59,157.05c-5.08-.82-9.93-.98-15.08-1.88-9.2-1.61-6.65-6.74-11.48-11.05-1.26-1.12-2.54-1.91-3.83-2.53,7.59-5.2,13.79-14.21,17.46-21.16,.21-.41-.35-.91-.67-.52-3.71,4.42-6.96,9.07-11.16,13.07-3.33,3.17-7.23,5.15-11.09,7.25-7.03-.29-14.4,4.16-21.58,7.17,.92-.8,1.82-1.59,2.7-2.35,7.51-6.56,14.21-15.01,19.17-23.64,.31-.54-.48-1.21-.89-.69-5.85,7.31-11.65,14.26-18.88,20.25-4.39,3.64-9.58,6.68-14.39,10.05-.48,.14-.97,.25-1.45,.4,4.62-4.3,9.74-10.32,6.83-16.97-3.31-7.59-9.09-14.63-15.08-20.85,2.47-4.22,4.38-8.86,6.5-13.19,3.06-6.22,5.61-12.48,7.4-19.19,.2-.75-.93-1.05-1.15-.32-2.23,7.27-5.33,14.14-9.07,20.75-1.85,3.28-4.07,6.37-5.96,9.63-1.21-1.21-2.42-2.4-3.6-3.55,10.18-9.05,15.47-26.02,16.06-39.25,10.34,1.32,23.48,18.09,27.46,24.19,7.39,11.35-8.94,30.06-13.03,40.1-.22,.54,.61,1,.97,.57,5.77-6.77,16.09-21.46,17.07-32.71,4.71,.38,10.51-3.2,13.18,3.75,.35,.93,1.06,1.59,2.11,1.6,8.24,.07,18.54-8.39,26.75-9.32-2.84,16.17-10.57,28.58-22.6,39.5-.51,.46,.14,1.15,.69,.89,13.7-6.37,22.79-26.01,22.97-40.47,3.79-.11,7.08,1.62,9.41,6.89,.49,1.12,2.15,.48,2.17-.59,.31-13.36-13.94-10.11-22.06-6.84-3.31,1.33-6.68,2.49-10.01,3.77-4.7,1.8-5.47,1.48-8.57-2.28-3.52-4.27-9.66-.11-14,.47-.06-.98-.17-1.94-.42-2.84-2.98-10.79-15.15-21.46-23.89-27.59-2.82-1.97-7.85-5.96-11.83-4.37-4.06,1.62-11.08,5.21-14.78,.08-1.46-2.02-1.24-4.43-3.07-6.26-8.67-8.67-19.69,.92-27.37,7.06,2.36-5.81,3.62-11.68,2.03-17.64-1.37-5.12-6.53-7.11-11.14-7.64-4.02-.46-8.88,1.99-12.6,3.07-8.73,2.54-7.63-12.83-8.61-16.97-.32-1.35-1.71-1.92-2.96-1.68-7.84,1.5-10.53,3.33-12.22-3.36,.15,.03,.31,.02,.47-.09,4.52-3.12,7.27-8.61,10.57-12.83,4.64-5.93,12.81,2.6,17.63,4.28,.88,.3,1.99-.18,2.41-.98,1.37-2.54,14.13-21.57,16.13-16.73,.54,1.29,1.89,2.62,3.25,3,1.13,.31,2.57,.35,3.66-.15,9.84-4.48,32.02-17.79,32.33,7.79-1.11,1.78-2.13,3.77-3.08,5.97-2.25,.86-3.83,1.54-3.76,1.59-11.59-8.45-26.11,11.45-31.46,18.64-.89,1.2,1,2.54,2.01,1.55,7.18-7.05,18.23-22.89,30.64-13.38,.78,.6,2.32,.39,2.93-.38,8.17-10.29,15.88-4.44,26.1-8.31,15.77-5.97,14.93,5.37,26.79,5.38,5.77,0,4.39,.17,9.28-.66,11.89-2.03,9.95,4.1,15.15,9.3,.77,.77,2.99,.59,3.58,.63,12.48,.99,22.45,13.78,22.46,26.53,0,1.81,2.79,1.81,2.82,0,.11-5.8-2.27-12.93-6.24-18.74,1.31-2.06,2.04-4.16,2.27-6.27,5.38,11.07,13.37,21.61,16.21,33.21-.53,.78-1.04,1.56-1.51,2.37-.34,.58,.38,1.42,.97,.97,.35-.26,.69-.55,1.04-.83,.68,3.89,.74,7.91-.12,12.13-.13-.14-.25-.28-.39-.41-5.36-5.41-12.5-8.77-19.53-11.37-1.18-.43-2.1,.66-2.22,1.69-1.48,12.67,8.74,22.04,8.57,35.04-.32,24.08-17.44,31.53-34.39,43.66-.48,.34-.2,1.27,.43,1.01,26.64-10.78,48.59-36.58,31.96-65.78-9.14-16.06,9.3-4.79,14.26,.54,4.33,4.66,5.15,8.21,11.47,9.11,6.77,.96,6.87-5.64,5.83-11.44,5.7,6.4,10.23,13.17,12.3,21.77,.11,3.62,.33,7.23,.45,10.87,.48,14.41-9.05,27.97-17.8,38.43-.61,.72,.3,1.62,1.02,1.02,10.43-8.54,16.2-18.11,19.57-31.07,1.29-4.98,1.07-9.77,.77-14.84-.17-2.38-.26-4.76-.28-7.14-.03-.92,3.25-15,4.82-7,.37,1.87,3.57,1.96,3.85,0,.07-.46,.12-.9,.18-1.35,20.43,42.1-17.22,89.91-59.99,97.26,3.7-4.62,5.87-10.14,1.98-15.13-5.74-7.39-12.75-10.23-21.81-11.71Zm122.9,33.14c-14.18,16.96-36.68,25.28-58.04,27.69-9.22,1.03-18.72-.51-27.39-3.55-6.71-2.35-13.3-5.6-20.63-4.42-10.23,1.65-17.92,3.32-28.21,.11-8.43-2.62-18.48-5.3-25.96-10.81,2.31,.28,4.61,.54,6.9,.81,15.3,1.76,34.66,3.41,46.09-8.98,.82-.88-.19-2.21-1.26-1.68,.93-.79,1.88-1.65,2.81-2.58,30.73-1.51,57.99-24.21,68.21-52.01,13.17-11.89,18.93-29.3,23.16-46.18,.28-1.1-1.41-1.57-1.7-.47-4.08,15.53-10.47,28.43-19.58,40.87,4.48-16.32,3.03-33.96-6.94-49.85-1.14-1.82-3.56-.92-3.78,1.02-.03,.26-.07,.52-.09,.79-5.74,.27-8.56,3.61-9.14,9.24-3.08-8-9.14-14.37-14.37-21.92-1.29-1.86-3.9-.68-3.54,1.49,.14,.82,2.28,18.2-3,12.37-1.7-1.87-3.37-3.76-5.07-5.62,2.57-5.94,2.87-12.13,1.64-18.26,7-6.84,13.66-16.78,15.78-26.59,7.97-1.79,4.67,8.47,10.29,10.01,3.26,.9,4.47,.04,7.43-1.17,2.24-.92,10.39,11.28,12.49,13.8,.44,.53,1.33,.71,1.97,.52,11.53-3.45,24.97,25.47,27.58,32.99,6.39,18.4-8.9,39.12-22.38,49.53-.36,.28-.52,.63-.55,.97-2.59,1.15-5.11,2.42-7.55,3.74-1.1,.6-.32,2.2,.83,1.95,9.03-2,34.23-13.79,32.17,3.52-.13,1.05,1.07,2.27,2.13,2.13,25.78-3.43,6.51,32.39-.31,40.54Z"/>
      <path class="cls-2" d="M213.81,248.65c.46-.48,0-1.4-.68-1.17-11.01,3.73-20.12,7.58-32.01,8.41-11.38,.79-22.96-.58-34.24-1.98-.68-.09-.84,1.11-.16,1.2,19.59,2.65,51.37,9.83,67.09-6.47Z"/>
      <path class="cls-2" d="M204.2,120.4c-2.97-3.76-5.93-6.1-10.57-8.42-1.96-.98-8.29,.33-9.22-.31-8.54-5.78-20.11-6.34-30.08-6.99-8.26-.55-48.55-3.19-49,11.51-.05,1.62,2.02,1.94,2.84,.77,5.32-7.63,22.07-10.47,38.53-9.76-.37,.53-.44,1.29,.12,1.78,1.64,1.44,3.59,2.14,5.6,2.94,2.42,.97,11.88,3.35,6.22,6.21-1.81,.92-.87,3.62,.99,3.66,9.9,.23,7.23,23.19,1.25,27.1-1.22,.8-.16,2.56,1.14,1.94,7.11-3.38,10.22-16.83,7.17-25.47,2.2,3.15,3.73,6.8,4.76,10.47,.61,2.19,.85,4.55,.23,6.76-.45,1.6-2.3,1.76-2.76,3.36-.09,.32,0,.74,.25,.97,.12,.1,.23,.15,.33,.24-4.3,1.57-8.35,5.52-11.94,7.34-.85,.43-.45,1.81,.48,1.77,6.9-.26,12.05-8.84,18.93-3.64,.65,.49,1.51,.28,2.17,0,4.1-1.73,6.14-.17,9.83,.17,.65,.06,1.07-.56,1.12-1.12,.75-7.24-10.63-2.97-13.7-4.42-.2-.1-.4-.15-.6-.23,1.54-.87,3.17-1.6,4.8-2.26,1.84-.74,4-1.08,5.19-2.82,.63-.92,.24-2.51-.79-2.99-.35-.17-.7-.2-1.05-.26,.01-.05,.05-.11,.06-.16,.55-.07,1.11-.07,1.67,.02,1.06,.17,1.96,1,3.04,1.25,.32,.07,.59-.05,.81-.25-1.87,9.53,2.49,17.02,12.33,21.59,1.73,.81,3.25-1.75,1.51-2.58-9.37-4.44-14.16-12.3-9.23-22.39,.56-1.14-.1-2.74-1.54-2.68-9.62,.42-9.51-8.89-6.88-15.66,5.9,.2,10.32,2.66,13.25,7.43,.75,.91,1.65,1.01,2.45,.68,8.38,7.04,6.69,23.5,6.8,33,.01,.97,1.49,.97,1.51,0,.3-13.67,.68-25.8-6.85-37.63-.28-.44-.72-.75-1.21-.94Zm-11.49,16.72c-.06,.21-.13,.42-.19,.63-.03-.25-.11-.47-.2-.69,.13,.01,.25,.06,.39,.07Zm-5.76-2.32c-.48,.02-.93,.07-1.32,.16-.59,.13-1.13,.34-1.67,.58-.13,.02-.27,.1-.41,.15,0,0,0-.02-.01-.02-.06,.02-.1,.06-.16,.09-.14,.06-.28,.07-.43,.16-.27,.16-.55,.35-.82,.52-.95-4.56-3.88-9.27-6.4-11.78-.72-.72-1.99,.21-1.43,1.1,1.76,2.82,3.12,5.7,4.05,8.9,.45,1.55,.52,2.87,.35,4.12-.29,.22-.57,.46-.85,.7,.03-.51,.02-.94-.02-1.26-.73-5.65-3.84-12.18-8.74-15.35-.4-.26-.75-.07-.92,.25-1-1.79-2.33-3.23-4.06-4.14,4.43-5.18-7.36-9.37-13.73-11.53,13.82,1.05,26.81,4.57,31.86,9.82,.62,.65,1.83,1.07,2.7,.71,.07,0,.12,0,.18,0-2.72,5.79-2.36,13.16,1.84,16.86Z"/>
    </g>
  </g>
</svg>