<?xml version="1.0" encoding="UTF-8"?>
<svg id="Layer_2" data-name="Layer 2" xmlns="http://www.w3.org/2000/svg" viewBox="0 0 637.85 348">
  <defs>
    <style>
      .cls-1 {
        stroke: #cecece;
        stroke-linecap: round;
        stroke-linejoin: round;
        stroke-width: 0px;
      }

      .cls-1, .cls-2 {
        fill: none;
      }

      .cls-3 {
        fill: #cecece;
      }
    </style>
  </defs>
  <g id="Layer_1-2" data-name="Layer 1">
    <g>
      <path class="cls-2" d="M394.91,0h-3.1c-.74,2.12-1.72,4.2-2.91,6.19,1.99-2.07,4-4.14,6.01-6.19Z"/>
      <path class="cls-2" d="M304.02,45.64c-2.78,7.16-2.62,15.87,6.48,18.18,3.91,1,8.03,.65,11.81-.77,.25-.09,.48-.23,.72-.34,.47-.73,.97-1.44,1.51-2.14-.87,.2-1.7,.34-2.4,.37-5.67,.29-10.77-2.49-14.27-6.85-1.82-2.27-3.14-5.31-3.84-8.45Z"/>
      <path class="cls-2" d="M381.34,6.36c1.42-2.06,2.7-4.18,3.75-6.36h-3.86c-1.39,3.57-2.55,7.24-3.6,10.97,1.2-1.56,2.62-3.02,3.72-4.61Z"/>
      <path class="cls-2" d="M362.55,61.62c2.17,.84,4.3,1.73,6.42,2.67,2.94-7.19,2.06-14.1-6.91-16.35-.49-.12-1.02-.14-1.52-.25-2.25,2.89-5.48,4.99-9,6.52,4.31,1.33,8.31,3.91,11.01,7.4Z"/>
      <path class="cls-2" d="M353.61,41.04c1.6,.04,3.22,.16,4.85,.34,.56-3.35-.63-6.72-3.19-9.05-2.63-2.38-6.17-3.37-9.05-1.4-1.75,1.2-2.97,3.24-3.74,5.22,.04,.41,.16,.8,.18,1.22,.05,1.38,0,3.36-.34,5.29,3.2-1.79,7.97-1.68,11.29-1.62Z"/>
      <path class="cls-2" d="M324.89,74.66c1.35,4.54,5.73,7.09,10.2,7.92,2.02,.39,4.63,.42,6.61-.17,.73-.22,1.35-.54,1.96-.89-4.38-6.09-6.13-14.75-7.44-21.44-.34-1.78,2.33-2.55,2.74-.76,1.27,5.58,2.81,11.22,5.69,16.22,.49,.85,1.05,1.71,1.63,2.56,.09-.33,.17-.66,.19-.92,.08-1.47-.04-2.59-.42-3.96-.5-1.82-1.24-3.47-2.08-5.15-.95-1.87-2.94-4.71-2.1-6.85,.31-.82,.94-1.42,1.87-1.42,4.63,.02,7.68,8.84,8.42,12.6,.68,3.46,.37,7.12-1.21,10.07,0,.01,.02,.01,.02,.02,3.52,1.73,6.54-.58,8.25-3.83,2.03-3.83,2.15-8.83-.35-12.71-.13-.2-.35-.33-.49-.53-5.95-2.59-11.93-5.12-17.69-8.14-2.11-1.11-.56-3.89,1.48-3.52,.01,0,.02,0,.04,0,.59-.28,1.21-.44,1.86-.51,4.18-1.22,8.71-3.1,11.63-6.3-1.91-.14-3.84-.15-5.75,0-3.08,.24-6.29,1.41-9.17-.08-.01,0-.02-.02-.03-.03-.16,.22-.33,.41-.5,.59,.14,1.27,.02,2.51-.7,3.59-.57,.85-1.56,1.4-2.59,1.28-.94,2.14-3.04,4.02-5.55,5.47-.31,.35-.62,.69-.93,1.04,.97-.39,1.96-.68,3.01-.77,1.08-.1,1.82,1.11,1.58,2.07-1.08,4.17-5.64,6.77-10.1,8.29-.55,2.07-.69,4.17-.08,6.23Z"/>
      <path class="cls-2" d="M270.16,26.02c3.41-.83,6.89-1.44,10.4-1.83-4.68-2.59-9.73-4.26-15.34-4.73,1.04,3.14,2.73,5.32,4.94,6.56Z"/>
      <path class="cls-2" d="M388.99,35.91c-1.55-.41-2.98-.96-4.14-1.81-1.18,.29-2.36,.62-3.57,.84,2.58,1.57,5.28,2.81,8.03,3.91-.7-.74-.85-2.05-.33-2.95Z"/>
      <path class="cls-2" d="M424.39,22.15c-9.38,1.05-18.04,4.64-26.82,7.92,9.98,.1,21.41-1.64,26.82-7.92Z"/>
      <path class="cls-2" d="M5.36,33.87c2.58,6.23,3.93,9.64,4.52,14.15,5.72-12.06,24.89-12.97,36.37-13.19,18.17-.37,38.65-.56,56.48,3.42,.95,.2,.99,1.76,0,1.94-24.41,4.53-75.27-15.93-91.47,10.36-.26,.43-.7,.52-1.12,.47,.09,1.62,.12,3.39,.08,5.53-.92,50.15,36.84,55.39,75.35,56.31,.19,0,.3,.15,.46,.2,11.74-15.61,12.3-33.01,19.76-50.98,7.12-17.15,23.76-24.86,43.21-27.24-19.55-6.82-36.47-17.84-45.84-34.85H8.78c1.45,4.59,2.4,9.08,3.02,14.63,.77,6.76-9.38,12.12-6.45,19.24Zm64.83-6.93c14.11,1.36,31.1,.57,43.56,8.29,1.03,.64,.36,2.2-.82,1.93-14.33-3.34-28.1-5.56-42.75-7.19-1.91-.21-1.95-3.22,0-3.03Z"/>
      <path class="cls-2" d="M304.38,12.82c-1.12-1.93-1.97-4.02-2.68-6.19-1.37-2.33-2.91-4.44-4.39-6.63h-13.7c5.84,3.6,11.42,7.61,16.94,11.71,1.3,.33,2.58,.68,3.83,1.11Z"/>
      <path class="cls-2" d="M390.86,39.42c-.09,.01-.16-.02-.25-.02,4.63,1.81,9.3,3.48,13.55,6.29,.09,.07,.09,.17,.17,.24,5.44,1.67,11.04,2.48,16.68,2.22,.58-.41,1.32-.51,2.02-.09,.81-.09,1.62-.18,2.43-.31-9.57-7.43-22.69-9.75-34.61-8.33Z"/>
      <path class="cls-2" d="M337.31,33.82c-.59-2.28-1.51-4.47-2.89-6.39-5.82-8.14-14.8-8.94-21.86-2.17,6.58,.19,13.29,3.62,17.88,8.02,1.31,1.25,3.39,3.24,5.32,5.53,.31-1.71,.86-3.4,1.56-5Z"/>
      <path class="cls-2" d="M406.52,72.49c6.26,4.65,12.47,9.37,17.94,14.83-3.33-7.01-10.13-11.56-17.94-14.83Z"/>
      <path class="cls-2" d="M407.07,120.69c.11-13.66-12.43-25.64-24.12-32.11,5.48,12.53,12.65,24.52,24.12,32.11Z"/>
      <path class="cls-2" d="M381.49,109.31c2.14,5.38,4.45,10.64,7.1,15.69-2.29-5.26-4.74-10.45-7.1-15.69Z"/>
      <path class="cls-3" d="M313.69,32.19c1.4-.88,.43-2.71-1.05-2.5-6.61,.96-9.1,5.96-9.12,11.5-5.24,8.68-7.27,19.43,2.07,26.04,3.93,2.78,9.79,3.35,14.4,2.5,.02,0,.04,0,.06-.02-.23,1.19-.37,2.4-.32,3.67,.23,5.92,4.36,10.74,9.52,13.24,5.22,2.52,11.27,2.98,16.62,.61,.82-.36,1.53-.82,2.19-1.32,.22,.15,.4,.36,.62,.5,5.16,3.27,11.03,.82,14.36-3.71,2.88-3.94,3.66-9.16,2.7-13.93,1.08,.5,2.17,.98,3.24,1.5,1.3,.64,3.04,.41,3.77-.99,4.8-9.15,5.68-19.6-4.51-25.14-1.58-.87-3.29-1.43-5.05-1.89,1.08-4.89-.77-9.99-4.32-13.54-3.92-3.93-9.76-5.33-14.81-2.83-1.42,.71-2.64,1.79-3.73,3.05-1.04-2.09-2.33-4.07-3.84-5.83-7.67-8.99-19.04-7.3-26.5,.81-.45,.48-.37,1.01-.14,1.46-.44,.05-.9,.06-1.33,.15-1.43,.28-1.33,2.43,0,2.78,5.54,1.42,10.37,2.55,15.13,5.95,2.47,1.75,4.54,3.99,6.47,6.29,.27,.33,1.58,2,2.78,3.71-.58,.35-1,1.14-.53,1.76,.46,.6,.75,1.3,1,2.01-1.29,.61-2.3,1.66-3.57,2.74-2.06,1.77-4.29,3.06-6.94,3.7-3.66,.88-7.34-.91-9.92-3.38-5.75-5.48-6.34-14.43,.74-18.9Zm46.85,15.51c.5,.1,1.03,.12,1.52,.25,8.97,2.25,9.85,9.16,6.91,16.35-2.12-.94-4.26-1.84-6.42-2.67-2.7-3.49-6.7-6.07-11.01-7.4,3.52-1.53,6.75-3.63,9-6.52Zm-17.89-10.34c-.02-.42-.14-.82-.18-1.22,.77-1.98,1.99-4.02,3.74-5.22,2.88-1.97,6.43-.98,9.05,1.4,2.57,2.33,3.75,5.71,3.19,9.05-1.63-.18-3.26-.3-4.85-.34-3.33-.06-8.09-.17-11.29,1.62,.34-1.93,.39-3.92,.34-5.29Zm-12.23-4.08c-4.59-4.4-11.3-7.83-17.88-8.02,7.06-6.77,16.04-5.97,21.86,2.17,1.38,1.92,2.3,4.11,2.89,6.39-.7,1.6-1.25,3.29-1.56,5-1.93-2.29-4.01-4.28-5.32-5.53Zm4.64,26.85c.25-.96-.49-2.17-1.58-2.07-1.05,.1-2.04,.39-3.01,.77,.31-.36,.62-.69,.93-1.04,2.51-1.45,4.61-3.33,5.55-5.47,1.03,.12,2.02-.44,2.59-1.28,.72-1.08,.84-2.32,.7-3.59,.17-.18,.34-.37,.5-.59,.01,.01,.02,.02,.03,.03,2.87,1.49,6.09,.32,9.17,.08,1.91-.15,3.84-.14,5.75,0-2.92,3.19-7.46,5.08-11.63,6.3-.65,.07-1.27,.23-1.86,.51-.01,0-.02,0-.04,0-2.04-.37-3.6,2.41-1.48,3.52,5.76,3.02,11.74,5.55,17.69,8.14,.14,.2,.36,.33,.49,.53,2.5,3.88,2.38,8.88,.35,12.71-1.72,3.25-4.73,5.55-8.25,3.83,0-.01-.02-.01-.02-.02,1.58-2.95,1.89-6.61,1.21-10.07-.74-3.76-3.78-12.58-8.42-12.6-.94,0-1.56,.61-1.87,1.42-.83,2.14,1.15,4.97,2.1,6.85,.84,1.68,1.58,3.34,2.08,5.15,.38,1.36,.5,2.49,.42,3.96-.02,.25-.1,.58-.19,.92-.59-.85-1.14-1.71-1.63-2.56-2.88-5-4.42-10.64-5.69-16.22-.41-1.79-3.08-1.02-2.74,.76,1.31,6.69,3.06,15.35,7.44,21.44-.61,.35-1.24,.68-1.96,.89-1.98,.58-4.59,.55-6.61,.17-4.47-.83-8.85-3.38-10.2-7.92-.61-2.06-.47-4.16,.08-6.23,4.46-1.51,9.02-4.12,10.1-8.29Zm-12.94,.8c.7-.03,1.53-.17,2.4-.37-.53,.69-1.04,1.41-1.51,2.14-.24,.1-.47,.25-.72,.34-3.78,1.42-7.9,1.76-11.81,.77-9.09-2.31-9.26-11.02-6.48-18.18,.7,3.14,2.02,6.18,3.84,8.45,3.5,4.36,8.6,7.14,14.27,6.85Z"/>
      <path class="cls-3" d="M301.7,6.63c.71,2.17,1.56,4.26,2.68,6.19-1.25-.43-2.53-.78-3.83-1.11-5.53-4.1-11.1-8.11-16.94-11.71h-14.64c7.56,9.47,21.18,19.18,33.75,19.49,1.67,1.09,3.33,2.22,5.04,3.27,2.58,1.6,4.66-2.26,2.33-3.98-.36-.26-.72-.53-1.08-.8,.62-1.17,.42-2.83-.84-3.52-.04-.02-.07-.03-.1-.05,.62-.37,1.12-.93,1.13-1.84,.07-4.14-1.04-8.41-2.47-12.57h-9.41c1.47,2.19,3.01,4.3,4.39,6.63Z"/>
      <path class="cls-3" d="M236.35,47.76c-1.56,2.31,.59,4.8,2.89,5.04,12.94,1.36,30.32,.77,42.03-5.64,1.97-1.08,.88-3.71-1.06-3.89-11.34-1.08-22.57,2.64-34.08,3.02,6.47-6.81,14.97-11.01,24.09-13.36,5.91,1.71,13.27,.72,19.71-2.05,.48,.42,.97,.82,1.44,1.27,1.52,1.4,3.76-.82,2.28-2.29-.22-.21-.45-.41-.67-.62,1.91-1.94,.43-5.78-2.51-5.74-1.31,.02-2.63,.14-3.95,.2-7.21-5.37-15.16-8.73-24.75-9.67-1.43-.14-2.63,1.31-2.63,2.63,.01,5.06,1.39,8.82,3.64,11.53-10.48,3.73-19.87,9.88-26.44,19.56Zm44.21-23.57c-3.51,.39-6.98,1-10.4,1.83-2.21-1.24-3.9-3.42-4.94-6.56,5.61,.47,10.66,2.14,15.34,4.73Z"/>
      <path class="cls-3" d="M261.47,101.61c2.38-1.01,4.46-2.47,6.91-3.38,1.87-.69,1.45-3.11-.45-3.35-.4-.05-.76-.04-1.13-.06,6.14-8.67,11.11-17.92,14.64-28.08,1.14-3.27-3.36-5.61-5.64-3.29-7.51,7.63-15.98,18.65-27.31,19.64,1.06-15.48,18.57-21.23,30.41-28.31,1.38-.82,.48-3.02-1.09-2.59-16.45,4.54-36.45,14.4-35.51,34.15,.09,1.82,1.36,2.92,3.1,3.1,8.6,.9,15.72-3.08,22.05-8.41-3.14,5.48-6.73,10.72-10.68,15.87-2.39,3.11,2.01,5.87,4.71,4.72Z"/>
      <path class="cls-3" d="M318.73,2.33c-.31,2.65,3.37,3.07,4.61,1.25,.75-1.12,1.38-2.32,1.92-3.58h-6.16c-.14,.77-.27,1.55-.36,2.33Z"/>
      <path class="cls-3" d="M326.87,6.42c-.09,1.09,.84,2.16,1.85,2.43,5.25,1.39,5.99-1.76,8.66-5.45,1.43-1.97-1.79-4.43-3.36-2.59-.14,.17-.39,.53-.69,.95,.19-.59,.39-1.18,.6-1.77h-6.01c-.52,2.11-.88,4.26-1.06,6.42Z"/>
      <path class="cls-3" d="M357.64,1.37c-.11,.7-.07,1.4,.33,2.1,.51,.88,1.69,1.19,2.58,.67,.29-.18,.47-.44,.67-.69v.02c-.25,.48-.6,.69-.77,.77,.09-.04,.26-.09,.57-.14,1.19-.21,2.05-.22,3.02-1.06,1.16-1.01,2.33-2.02,3.48-3.04h-13.45c-.19,1.95,2.41,3.14,3.56,1.37Z"/>
      <path class="cls-1" d="M360.45,4.24c-.06,.02-.08,.02-.08,.03"/>
      <path class="cls-3" d="M388.9,6.19c1.19-2,2.17-4.07,2.91-6.19h-6.72c-1.04,2.18-2.33,4.31-3.75,6.36-1.1,1.59-2.52,3.05-3.72,4.61,1.05-3.73,2.21-7.4,3.6-10.97h-4.62c-1.86,5.33-3.11,10.88-3.69,16.67-.16,1.54,1.85,1.89,2.69,.9,.25,.24,.57,.38,.92,.4,.79,.04,1.54-.1,2.26-.34-.27,.49-.61,.97-.8,1.48-.49,1.28,.53,2.93,1.83,3.22,.25,.05,.48,.03,.73,.02-.01,.02-.03,.05-.04,.07,2.72-.04,7.42-6.5,9.78-8.89,.69-.71,1.41-1.39,2.11-2.1-1.39,2.37-3.06,4.6-5.04,6.6-1.74,1.75-3.73,3.16-5.88,4.35-.8,.45-1.67,.77-2.49,1.17-.42,.2-2.26,2.32-1.4,1.67-1.14,.87-1.4,2.58,0,3.4,5.38,3.18,10.75-1.98,14.57-5.78,6.02-5.99,9.88-14.05,10.09-22.55,0-.1,0-.19-.02-.28h-7.32c-2.01,2.06-4.02,4.12-6.01,6.19Z"/>
      <path class="cls-3" d="M380.62,58.99c-3.08,.18-3.8,4.51-.73,5.42,3.93,1.16,8.48,2.29,13.16,3.59,11.44,10.55,25.39,18.76,34.01,32.23,1.72,2.7,5.77,1.58,5.9-1.6,.91-20.51-21.84-35.54-41.84-38.94-3.39-3.33-6.53-6.92-9.05-11.09-1.13-1.87-3.84-.23-2.91,1.7,1.54,3.16,3.43,5.98,5.48,8.66-1.38-.06-2.72-.05-4.03,.02Zm43.84,28.33c-5.47-5.47-11.69-10.18-17.94-14.83,7.82,3.27,14.61,7.82,17.94,14.83Z"/>
      <path class="cls-3" d="M376.63,81.65c-.67-2.83-4.84-1.61-4.3,1.19,1.03,5.42,2.67,10.6,4.61,15.67-1.93-1.91-5.65-1.33-5.84,1.82-.25-.74-.52-1.49-.77-2.24-.85-2.5-4.69-1.49-3.99,1.11,3.8,13.89,8.29,27.67,10.89,41.8-4.28-12.5-6.49-25.8-12.09-37.94-1.25-2.71-5.6-1.91-6.26,.82,0,.04,0,.07-.02,.12-.13-1.1-.24-2.2-.38-3.3-.38-3.12-4.57-3.18-4.9,0-1.69,16.69,1.5,33.87,5.34,50.07,.89,3.72,6.7,2.89,6.63-.9-.2-10.2-1.76-20.39-1.61-30.53,4.43,14.51,6.88,29.56,15.85,42.45,1.78,2.56,6.33,1.86,6.21-1.68-.56-17.17-5.7-33.2-11.24-49.19,0,0,0,0,0,0,5.43,13.5,11.81,26.38,22.01,37.15,2.34,2.47,6.07-.12,5.41-3.14-4.14-18.85-15.41-34.79-22.15-52.57,.14-.23,.3-.45,.41-.68,5.77,14.45,13.26,28.16,27.51,35.92,1.42,.77,3.58,.15,3.93-1.6,3.75-19.35-13.65-36.64-29.87-44.07-.64-.3-1.35-.4-2-.27-.88-1.63-3.68-.87-2.99,1.03,.21,.57,.43,1.14,.64,1.7-.04,.11-.09,.22-.13,.33-.29-1.02-.65-2.01-.9-3.05Zm11.96,43.36c-2.65-5.05-4.96-10.31-7.1-15.69,2.37,5.24,4.81,10.43,7.1,15.69Zm18.48-4.31c-11.47-7.6-18.65-19.59-24.12-32.11,11.69,6.47,24.23,18.46,24.12,32.11Z"/>
      <path class="cls-3" d="M331.67,104.27c-5.42,18.74-3.08,44.74-18.55,58.69-.46-5.29,.4-9.86,2.01-14.16,2.63-3.57,4.54-7.64,5.95-11.93,1.22-2.12,2.47-4.3,3.71-6.6,.66-1.23-.34-2.64-1.56-2.62,1-7.11,.75-14.44-.56-21.23-.33-1.71-2.97-1.26-2.97,.41-.04,8.33-.43,17.36-2.73,25.51-4.18,4.32-6.95,9.73-8.47,15.57-1.3,1.36-2.73,2.63-4.35,3.78-5.17-15.69,8.52-30.43,15.06-43.64,1.15-2.33-1.96-5.18-3.82-2.94-1.07,1.1-2.12,2.31-3.16,3.56-.62,.69-1.23,1.42-1.87,2.1,.48-.8,.96-1.61,1.38-2.45,1.61-3.21-.08-7.7-3.57-4.29-.35,.34-.35,.83-.16,1.23-.03,.05-.05,.06-.08,.12-.91,1.15-1.79,2.31-2.69,3.47-1.74,2.24-3.49,4.47-5.2,6.74-4.02,5.36-8.58,10.69-11.47,16.77-1.21,2.55,2.2,4.58,3.79,2.22,3.48-5.15,7.33-9.43,11.48-13.4-6.09,11.56-9.05,25.1-3.6,36.29,.7,1.44,2.68,1.78,3.98,1.04,1.08-.61,1.95-1.4,2.93-2.11-.24,4.28,.07,8.59,1.01,12.67,.4,1.74,2.74,2.76,4.25,1.73,21.73-14.89,17.14-42.99,22.91-65.51,.61-2.38-2.98-3.36-3.66-1.01Z"/>
      <path class="cls-3" d="M343.74,114.87c-14.71,1.17-9.46,35.42-7.16,44.04,.59,2.16,3.72,3.24,5.29,1.39,13.27-15.57,10.33-39.66,5.39-57.97-.52-1.93-3.35-1.11-2.97,.82,2.99,14.68,5.14,33.7-2.89,47.3-1.66-10.74-1.78-24.22,4.24-32.25,.99-1.31-.34-3.45-1.91-3.32Z"/>
      <path class="cls-3" d="M293.9,96.91c2.46-1.63,.92-6.29-2.13-5.04-3.15,1.28-6.15,3.13-8.95,5.27,1.02-2.24,1.76-4.18,1.98-4.67,1.3-2.97,2.5-5.93,3.35-9.04,.52-1.9-1.15-4.36-3.03-2.43-.31,.32-.44,.7-.45,1.09-.09,.17-.19,.57-.32,.82-.43,.85-.97,1.68-1.43,2.53-1.27,2.31-2.52,4.64-3.8,6.94-1.22,2.23-2.5,4.43-3.76,6.64-.48,.85-1.09,1.69-1.26,2.67-.31,1.84-.19,1.58,.22,1.02-.07,.13-.16,.22-.23,.38-.28,.65,.09,1.35,.48,1.84,.08,.1,.16,.14,.24,.22-5.39,7.01-8.64,15.58-7.76,24.22,.19,1.77,1.72,3.42,3.67,2.8,1.68-.54,3.29-1.24,4.88-1.95-3.36,8.7-4.01,17.5,1.1,24.59,1.25,1.73,4.14,.1,2.9-1.7-5.04-7.31-1.68-17.82,4.18-27.56,5.83-4.1,10.74-9.42,14.45-15.53,.32,.13,.68,.18,1.04-.06,4.68-3.06,7.91-5.43,3.96-10.75,0-.01-.02-.02-.02-.03,.45-1.38,.92-2.75,1.24-4.16,.51-2.23-2.71-3.12-3.43-.94-.45,1.38-1.02,2.71-1.58,4.05-.29,.13-.57,.25-.84,.48-5.8,5.12-13.45,13.67-18.89,23.09-2.16,1.36-4.46,2.47-6.82,3.45,.89-12.59,10.81-21.42,20.99-28.23Z"/>
      <path class="cls-3" d="M456.99,33.79c-.99,.43-.28,2,.72,1.71,22.46-6.57,42.94-19.04,58.91-35.5h-6.38c-15.31,14.17-34,25.48-53.25,33.79Z"/>
      <path class="cls-3" d="M547.44,33.42c-1.43,1.03-.22,3.13,1.38,2.36,17.29-8.23,33.02-20.7,45.59-35.78h-8.95c-12.32,13.24-25.99,24.71-38.02,33.42Z"/>
      <path class="cls-3" d="M148.99,34.85c-19.45,2.38-36.09,10.09-43.21,27.24-7.46,17.96-8.02,35.37-19.76,50.98-.16-.06-.27-.2-.46-.2-38.51-.93-76.27-6.16-75.35-56.31,.04-2.14,.01-3.91-.08-5.53,.42,.05,.86-.04,1.12-.47,16.21-26.29,67.06-5.83,91.47-10.36,.99-.18,.95-1.74,0-1.94-17.84-3.99-38.31-3.79-56.48-3.42-11.48,.23-30.65,1.14-36.37,13.19-.59-4.5-1.94-7.91-4.52-14.15-2.93-7.12,7.22-12.49,6.45-19.24-.63-5.55-1.58-10.04-3.02-14.63H2.57c6.5,16.61-7.29,25.74-.76,42,7,17.42,.63,33.69,10.27,51.09,14.55,26.27,45.12,26.73,71.17,23.38-.37,.41-.7,.82-1.07,1.23-9.09,9.77-17.55,18.36-23.8,30.24-9.39,17.87-.96,37.96,14.54,48.25,16.57,11,36.23,5.26,44.35,30.64,3.11,9.72,6.19,18.04,12.58,26.27,4.97,6.42,17.79,9.09,24.56,12.94,11.43,6.51,23.42,16.9,37.07,18.36,22.44,2.42,44.98-11.22,63.13-31.08-.11,.16-.23,.32-.3,.53-8.37,25.21-6.24,56.47,6.96,79.61,7.11,12.47,28.17,22.72,34.33,5.15,9.28-26.46,20.04-7.87,34.94-4.45,13.57,3.12,27.93,3.21,41.73,2.44,17.89-1,47.47-6.69,45.54-30-.16-1.97-3.17-2.65-3.63-.49-6.41,29.94-48.63,25.36-71.41,22.27-11.44-1.56-19-4.08-27.86-12.94-1.38-1.38-3.85-3.29-6.01-2.51-6.88,2.46-11.76,6.79-16.62,12.12-6.26,6.88-1.1,26.46-21.74,8.19-17.94-15.89-18.92-57.22-12.59-78.39,.6-1.98-1.82-2.94-3.07-1.85,22.68-24.96,38.43-59.62,38.39-84.71,0-1.98-3.19-2.54-3.54-.48-4.37,25.9-16.7,47.86-31.25,69.31-23.54,34.68-54.76,51.9-93.66,27.77-19.19-11.9-35.32-15.43-41.06-39.87-3.26-13.87-12.2-20.88-24.67-26.32-7.46-3.25-15.16-5.16-22.56-8.73-31.24-15.03-7.14-47.14,6.33-60.88,12.87-13.12,20.22-22.01,24.13-40.19,7.81-36.4,30.06-45.39,64.05-46.12,20.53-.45,41.62,2.73,61.51,7.58,2.55,.62,3.52-3.05,1.08-3.89-2.47-.85-5.22-1.74-8.18-2.62,4.26-.26,8.41-.6,12.25-1.06,2.6-.31,2.65-4.43,0-4.13-8.93,1.01-18.25,1.38-27.67,1.11-12.51-2.89-26.82-5.23-40.87-5.73-18.68-4.93-36.23-13.14-50.38-25.44-2.99-2.6-5.54-5.5-7.73-8.62h-7.9c9.38,17.01,26.29,28.02,45.84,34.85Z"/>
      <path class="cls-3" d="M527.09,39.54c-24.55,15.45-54.87,14.19-83.11,18.57-4.39-1.41-8.73-3.08-12.97-5.27,.55-.16,1.09-.28,1.65-.45,2.2-.73,2.93-3.37,1.34-5.08-5.84-6.26-13.58-10.22-21.86-12.12,9.09-1.71,18.26-6.02,20.63-15.66,.45-1.82-.91-4.04-2.97-3.89-15.84,1.1-29.7,7.69-44.18,13.39-.11-.02-.23-.03-.33-.06-.96-.17-1.89,.33-2.36,1.09-.94,.36-1.87,.73-2.82,1.08-1.37,.5-1.63,1.8-1.17,2.76-2.97-.42-5,4.04-1.98,6.04,14.04,8.52,30.46,16.07,47,14.27,3.1,2.4,6.17,4.33,9.32,5.94-2.86,.64-5.7,1.34-8.48,2.19-1.57,.48-1.35,3.18,.4,2.98,5.37-.61,10.8-1.17,16.25-1.71,4.01,1.39,8.29,2.52,13.09,3.6,22.49,5.08,42.21,13.29,61.92,25.25,25.33,15.37,43.2,37.76,46.85,67.58,4.35,35.57-19.19,65.43-53.28,70-12.22,1.63-22.81,5.76-33.83,10.97-6.08,2.88-21.38-2.24-28.34,3.77-16.55,14.28-14.91,61.75-42.93,36-1.87-1.72-4.89-1.47-6.21,.8-11.59,19.81-35.3,24.55-48.38,1.23-6.42-11.45-9.1-25.76-11.81-38.51-5.02-23.69-4.92-48.8-5.44-72.9-.05-2.14-3.27-2.14-3.31,0-.71,36.65-3.34,81.27,14.68,114.85,6.54,12.16,21.38,33.85,38.66,23.93,3.77-2.16,20.6-19.71,22.15-18.26,5.4,5.03,11.78,8.71,19.2,8.01,13.57-1.3,16.44-27.71,19.26-36.95,5.21-17,16.99-9.48,27.3-14.08,20.73-9.27,38.87-12.42,60.4-17.6,21.6-5.21,34.17-35.01,36.11-54.77,3.06-31-8.38-55.61-31.36-76.18-15.21-13.63-34.2-22.83-52.82-30.73-8.48-3.6-17.07-5.61-25.57-7.7,27.89-3.11,55.74-7.88,79.6-22.88,14.56-9.16,25.01-23.53,33.31-39.01h-5.9c-9.53,15.7-21.74,29.48-37.72,39.54Zm-102.7-17.39c-5.4,6.28-16.84,8.03-26.82,7.92,8.78-3.28,17.44-6.87,26.82-7.92Zm-43.1,12.81c1.2-.22,2.38-.55,3.57-.84,1.16,.85,2.59,1.39,4.14,1.81-.53,.9-.38,2.21,.33,2.95-2.76-1.1-5.46-2.34-8.03-3.91Zm41.76,13.11c-.7-.42-1.45-.33-2.02,.09-5.64,.25-11.24-.55-16.68-2.22-.08-.07-.08-.17-.17-.24-4.25-2.81-8.93-4.49-13.55-6.29,.09,0,.16,.04,.25,.02,11.93-1.41,25.05,.9,34.61,8.33-.81,.13-1.62,.23-2.43,.31Z"/>
      <path class="cls-3" d="M164.9,255.33c23.93,14.29,56.34-1.71,75.35-17.66,25.27-21.2,47.53-50.82,50.02-84.74,.17-2.38-3.52-2.36-3.7,0-2.15,28.92-19.65,53.86-39.7,73.67-23.32,23.04-49.24,31.08-81.09,26.67-1.2-.17-2.05,1.36-.87,2.06Z"/>
      <path class="cls-3" d="M146.66,228.04c38.95,14.77,89.86-15.06,114.92-43.54,1-1.13-.64-2.8-1.66-1.66-27.97,31.03-71.66,47.69-112.89,42.47-1.67-.22-1.72,2.22-.37,2.73Z"/>
      <path class="cls-3" d="M83.22,168.07c-.25,1.06,1.33,1.5,1.62,.45,9.29-32.91,53.48-34.23,78.04-50.13,.84-.55,.31-2.1-.73-1.71-27.04,10.31-71.34,18.33-78.93,51.39Z"/>
      <path class="cls-3" d="M130.75,117.11c13.38-7.47,28.05-8.91,42.66-12.42,1.08-.26,.82-1.86-.25-1.89-15.37-.36-30.64,4.08-43.65,12.2-1.34,.83-.15,2.88,1.23,2.11Z"/>
      <path class="cls-3" d="M209.46,123.16c-.62,.66,.18,1.78,.99,1.28,10.42-6.43,20.4-13.36,31.05-19.44,1.62-.92,.16-3.41-1.45-2.49-10.46,6-22.22,11.77-30.59,20.65Z"/>
      <path class="cls-3" d="M404.21,3.59c-.43,1.27,1.55,1.79,2,.55,.5-1.4,1.01-2.77,1.54-4.14h-2.28c-.43,1.2-.84,2.4-1.25,3.59Z"/>
      <path class="cls-3" d="M382.88,197.29c-3.65-7.16-5.71-15.31-7.39-23.12-.29-1.35-2.25-.76-2.04,.56,2.56,15.9,6.41,35.36,21.98,43.7,1.16,.63,2.12-.78,1.34-1.73-5.17-6.3-10.17-12.1-13.89-19.41Z"/>
      <path class="cls-3" d="M441.31,128.16c26.8,14.89,39.8,38.64,44.38,68.07,.15,.98,1.76,.95,1.94,0,5.66-30.05-20-58.12-44.75-70.77-1.78-.91-3.34,1.71-1.57,2.7Z"/>
      <path class="cls-3" d="M476.98,148.8c8.79,11.92,11.99,25.54,14.72,39.77,.26,1.33,2.2,.94,2.26-.3,1.48-31.39-21.6-52.6-43.24-71.62-1.27-1.12-3.1,.66-1.87,1.87,9.87,9.63,19.93,19.16,28.13,30.28Z"/>
      <path class="cls-3" d="M296.13,195.97c-.65,28.36-9.45,65.19,14.39,87,1.12,1.03,2.87-.27,2.11-1.63-8.12-14.49-12.8-26.5-13.98-43.24-.97-13.96,.42-28.17,.49-42.14,.01-1.96-2.98-1.95-3.02,0Z"/>
      <path class="cls-3" d="M313.67,248.45c1.76,6.47,4.6,12.76,8.06,18.49,.33,.54,1.3,.18,1.05-.45-2.5-6.19-5.65-12.02-7.36-18.53-.29-1.14-2.06-.66-1.75,.49Z"/>
      <path class="cls-3" d="M630.81,130.02c-5.23-12.55-16.97-23.34-27.52-31.35-26.29-19.93-62.47-40.9-96.65-40.9-1.82,0-1.82,2.8,0,2.84,34.51,.64,146.01,52.39,116.97,98.32-11.84,18.73,36.87,37.54-11.14,52.92-8.36,2.68-15.06,3.6-21.97,9.4-7.48,6.25-12.86,16.78-17.91,24.84-18.57,29.6-54.57,14.64-78.79,3.52-1.91-.88-4.06,1.42-2.36,3.05,25.18,24.17,67.19,26.81,87.46-2.89,8.29-12.16,13.96-24.06,28.71-29.57,9.69-3.61,13.45-3.02,21.49-9.36,11.41-9,10.35-33.2,4.31-44.47-5.24-9.74,2.4-24.35-2.59-36.35Z"/>
      <path class="cls-3" d="M583.04,149.86c4.55-38.64-40.7-54.47-67.86-69.09-1.94-1.04-3.65,1.88-1.73,2.94,29.26,16.2,63.35,28.33,67.38,66.15,.16,1.43,2.04,1.41,2.21,0Z"/>
      <path class="cls-3" d="M70.19,29.97c14.65,1.63,28.42,3.84,42.75,7.19,1.17,.27,1.85-1.29,.82-1.93-12.47-7.71-29.45-6.93-43.56-8.29-1.95-.19-1.91,2.81,0,3.03Z"/>
    </g>
  </g>
</svg>