<?xml version="1.0" encoding="UTF-8"?>
<svg id="Layer_2" data-name="Layer 2" xmlns="http://www.w3.org/2000/svg" viewBox="0 0 245.93 407.48">
  <defs>
    <style>
      .cls-1 {
        fill: none;
      }

      .cls-2 {
        fill: #cecece;
      }
    </style>
  </defs>
  <g id="Layer_1-2" data-name="Layer 1">
    <g>
      <path class="cls-1" d="M135.38,33.21c9.12,17.6,15.98,36.21,22.91,54.74,3.59,9.6,7.21,19.21,11.18,28.66,1.98,4.73,4.12,9.37,6.33,14,1.12,2.34,2.27,4.66,3.46,6.97,.68,1.32,1.4,2.62,2.06,3.95-7.38-19.92-14.32-40-21.54-59.98-3.96-10.96-8.05-21.88-12.61-32.61-4.23-9.96-8.67-20.06-14.94-28.94-2.8-3.96-6.03-8.34-10.41-10.66-.5-.26-1.02-.49-1.55-.68,2.5,3.27,4.76,6.75,6.94,10.22,2.92,4.66,5.64,9.45,8.17,14.34Z"/>
      <path class="cls-1" d="M152.88,93.1c4.64,8.86,9.44,17.63,14.44,26.29,1.55,2.69,3.13,5.35,4.73,8.01-1.95-4.42-3.82-8.89-5.62-13.37-7.5-18.68-13.77-37.82-21.33-56.47-3.71-9.16-7.77-18.19-12.43-26.91-2.31-4.31-4.76-8.55-7.38-12.67-2.12-3.32-4.41-6.52-6.68-9.74-.82-.12-1.65-.1-2.46,.12,3.54,10.02,7.31,19.96,11.29,29.8,7.57,18.73,16.07,37.05,25.44,54.94Z"/>
      <path class="cls-1" d="M148.22,93.85c4.92,8.5,10.08,16.86,15.47,25.07,2.38,3.63,4.82,7.22,7.29,10.78-2.45-4.14-4.87-8.3-7.23-12.48-9.87-17.48-18.89-35.46-26.95-53.84-4.07-9.28-8.09-18.56-11.81-27.99-3.48-8.81-6.7-17.71-9.75-26.67-.54,.26-1,.62-1.41,1.02,.22,10.72,3.36,21.05,7.44,30.91,7.58,18.35,17.02,36.02,26.96,53.19Z"/>
      <path class="cls-1" d="M76.35,52.48c-5.45-3.92-10.42-8.44-14.89-13.44-4.45-4.99-8.46-10.38-11.97-16.08-1.78-2.88-3.49-5.81-5.12-8.78-1.22-2.23-2.46-4.48-3.55-6.79,.05,1.92,.76,3.92,1.47,5.55,2.63,6.09,6.26,11.89,10.06,17.31,7.75,11.04,17.37,20.73,28.29,28.65,8.11,5.89,16.99,10.7,26.32,14.37-4.39-3.62-9.14-6.78-13.96-9.84-5.6-3.55-11.27-7.08-16.65-10.96Z"/>
      <path class="cls-1" d="M47.77,94.24c13.15,2.63,26.17,5.88,39.02,9.72,12.85,3.84,25.55,8.25,38.01,13.23,12.11,4.84,24.21,10.03,35.67,16.26,5.95,3.24,11.78,6.94,17.08,11.26-.86-1.03-1.71-2.07-2.57-3.11-10.29-6.21-20.71-12.2-31.32-17.86-10.63-5.68-21.42-11.03-32.43-15.94-11-4.91-22.2-9.34-33.64-13.11-11.36-3.75-22.88-6.94-34.62-9.3-5.9-1.19-11.85-2.19-17.82-2.96-3.34-.43-6.7-.76-10.07-.69-3.07,.06-6.04,.58-9.01,1.32-.09,.09-.2,.16-.3,.25-1.27,1.22-2.39,2.7-2.91,4.36,1.66,.15,3.31,.3,4.96,.46,13.4,1.32,26.73,3.47,39.94,6.11Z"/>
      <path class="cls-1" d="M160.06,116.82c-10.79-16.74-20.56-34.1-29.27-52.01-4.38-9.01-8.76-18.1-12.3-27.48-3.18-8.42-5.58-17.27-5.71-26.3-.19,.33-.36,.67-.5,1.03-1.4,3.63-.58,7.88,.19,11.55,1.15,5.46,2.58,10.86,4.26,16.18,6.68,21.22,17.18,41.03,29.5,59.49,2.84,4.26,5.8,8.45,8.81,12.58,2.31,2.53,4.57,5.1,6.81,7.7-.6-.91-1.2-1.82-1.8-2.74Z"/>
      <path class="cls-1" d="M52.04,24.56c3.81,5.56,7.88,10.92,12.55,15.8,4.59,4.81,9.69,9.05,15.18,12.78,4.78,3.25,9.83,6.05,14.78,9.03-9.44-8.08-18.48-16.64-26.97-25.7-9.4-10.03-18.43-20.59-26.16-31.97-.05,.09-.1,.17-.14,.27-.11,.26-.19,.54-.26,.81,1.72,3.08,3.28,6.26,5.02,9.34,1.87,3.3,3.87,6.51,6.01,9.64Z"/>
      <path class="cls-1" d="M28.93,81.72c5.98,.86,11.94,1.92,17.85,3.19,11.85,2.53,23.57,5.77,35.04,9.68,11.41,3.9,22.66,8.33,33.67,13.25,11.16,4.99,22.11,10.43,32.88,16.23,5.41,2.91,10.78,5.9,16.1,8.96,2.21,1.27,4.41,2.56,6.61,3.85-.33-.4-.65-.8-.97-1.2-8.51-5.69-17.15-11.19-25.92-16.45-20.17-12.1-41.22-22.83-63.54-30.37-10.71-3.62-21.75-6.53-32.9-8.42-10.76-1.83-21.61-2.61-32.52-2.52-.4,.15-.8,.28-1.19,.44-2.05,.83-4.11,1.85-5.97,3.13,.45-.11,.89-.24,1.35-.33,6.45-1.24,13.09-.37,19.52,.55Z"/>
      <path class="cls-1" d="M51.47,79.8c11.34,1.89,22.51,5.08,33.37,8.84,11.05,3.83,21.8,8.52,32.29,13.69,17,8.37,33.12,18.24,49.03,28.48-1.52-1.9-3.04-3.81-4.54-5.73-8.67-7.47-17.95-14.24-27.74-20.17-10.63-6.44-21.85-11.92-33.45-16.38-11.67-4.49-23.75-7.93-36.03-10.29-6.16-1.19-12.38-2.1-18.63-2.73-7.13-.72-14.37-.98-21.48,.09-2.05,.31-4.08,.76-6.07,1.33,11.14-.17,22.27,1.03,33.25,2.86Z"/>
      <path class="cls-1" d="M235.98,56.01c-2.28-3.72-4.75-7.3-7.17-10.93-.27,.02-.54,.03-.8,.09,.67,1.19,1.32,2.39,1.94,3.61,6.88,13.58,12.08,27.91,15.98,42.61v-17.41c-.79-1.6-1.59-3.2-2.42-4.79-2.35-4.48-4.88-8.86-7.52-13.18Z"/>
      <path class="cls-1" d="M228.38,284.82c-9.01-10.35-19.58-19.24-30.16-27.93-10.51-8.63-21.3-17.02-33.21-23.67-11.2-6.25-23.41-10.93-36.2-12.43-2.07-.24-4.14-.36-6.22-.42,8.8,1.38,17.26,5.19,25.1,9.24,10.55,5.44,20.71,11.62,30.43,18.44,9.72,6.82,18.96,14.3,27.65,22.39,8.7,8.1,16.83,16.8,24.38,25.98,5.6,6.82,10.86,13.9,15.77,21.22v-1.18c-.5-2.3-.99-4.61-1.44-6.93-3.98-9.02-9.63-17.29-16.1-24.73Z"/>
      <path class="cls-1" d="M244.95,274.54c.33-2.31,.66-4.62,.98-6.93v-25.79c-.02,.41-.04,.82-.07,1.23-.54,10.49-.97,20.99-.91,31.49Z"/>
      <path class="cls-1" d="M86.11,52.42c6.11,5.58,12.45,10.86,18.98,15.91-.55-.64-1.1-1.27-1.64-1.91-2.52-2.93-5.02-5.88-7.51-8.83-4.39-5.19-8.85-10.33-13.3-15.47-4.15-4.81-8.24-9.67-12.48-14.4-4.1-4.58-8.27-9.11-12.7-13.38-2.25-2.17-4.56-4.27-6.94-6.3-1.14-.97-2.3-1.93-3.48-2.86-1.11-.88-2.28-1.69-3.29-2.68-.71,.23-1.36,.62-1.87,1.26,4.77,6.01,9.51,12.05,14.51,17.89,9.28,10.84,19.2,21.14,29.74,30.77Z"/>
      <path class="cls-1" d="M227.03,45.57c-.55,.28-1.02,.66-1.45,1.1,.23,1.07,.46,2.14,.66,3.22,3.09,16.3,5.95,32.65,8.87,48.98,2.89,16.15,5.96,32.29,8.36,48.53,.97,6.56,1.79,13.14,2.45,19.74V98.94c-.71-3.03-1.45-6.06-2.26-9.06-4.14-15.29-9.82-30.04-16.64-44.31Z"/>
      <path class="cls-1" d="M232.44,45.95c-.57-.29-1.18-.5-1.79-.66,5.46,6.73,10.41,13.81,14.95,21.19,.11,.18,.22,.37,.33,.56v-8.56c-1.46-1.69-2.97-3.34-4.54-4.94-2.67-2.71-5.54-5.83-8.95-7.6Z"/>
      <path class="cls-1" d="M237.9,57.26c2.85,4.73,5.52,9.58,8.02,14.5v-3.1c-3.93-6.59-8.22-12.95-12.85-19.09,1.67,2.53,3.28,5.11,4.83,7.69Z"/>
      <path class="cls-1" d="M105.5,123.11c-12.11-3.58-24.48-6.04-36.87-8.4-11.93-2.27-23.9-4.52-35.56-7.95-9.5-2.8-19.11-6.31-27.69-11.41,.86,.83,1.83,1.57,2.77,2.21,2.61,1.79,5.48,3.26,8.27,4.74,2.75,1.46,5.54,2.85,8.36,4.17,5.72,2.69,11.57,5.12,17.5,7.31,11.91,4.4,24.13,7.95,36.42,11.13,12.36,3.2,24.81,6.02,37.24,8.95,12.41,2.93,24.81,5.99,37.03,9.64,5.85,1.75,11.64,3.67,17.38,5.75-8.66-4.13-17.37-8.16-26.19-11.94-12.63-5.41-25.48-10.31-38.66-14.2Z"/>
      <path class="cls-1" d="M67.28,16.78c-2.72-2.52-5.53-4.93-8.45-7.21-2.87-2.24-5.84-4.68-9.15-6.24-1.4-.66-3.14-1.15-4.73-1.04,1.08,.69,2.06,1.53,3.06,2.32,1.37,1.08,2.71,2.19,4.04,3.32,2.65,2.26,5.23,4.61,7.74,7.03,9.03,8.68,17.28,18.1,25.49,27.54,4.59,5.27,9.18,10.54,13.83,15.76,2.23,2.51,4.45,5.03,6.66,7.56,.77,.89,1.54,1.77,2.32,2.66-8.17-12.05-16.24-24.19-25.54-35.41-4.75-5.73-9.81-11.21-15.27-16.27Z"/>
      <path class="cls-1" d="M197.84,348.86c-7.57-5.89-15.12-11.82-22.12-18.4-3.37-3.17-6.6-6.49-9.62-9.99-.64-.74-1.32-1.53-1.97-2.35,.56,1.05,1.13,2,1.54,2.75,2.48,4.5,5.16,8.88,8.05,13.12,5.74,8.45,12.26,16.36,19.47,23.59,7.41,7.44,15.57,13.93,24.07,20.07,8.64,6.24,17.5,12.42,24.67,20.39,1.4,1.56,2.74,3.19,3.99,4.88v-6.72c-1.95-3.32-4.12-6.51-6.49-9.57-11.58-14.92-26.81-26.27-41.6-37.78Z"/>
      <path class="cls-1" d="M154.74,132.58c-11.62-5.98-23.67-11.18-35.84-15.92-12.49-4.86-25.19-9.16-38.07-12.86-12.77-3.67-25.71-6.8-38.76-9.33-13.04-2.52-26.21-4.42-39.41-5.87,0,0,0,0,0,0-.1,.63-.13,1.28-.03,1.95,.1,.7,.33,1.36,.64,1.98,.61,.34,1.21,.68,1.81,1.02,10.44,5.99,21.87,9.99,33.5,12.98,11.8,3.03,23.8,5.15,35.76,7.44,12.62,2.41,25.12,5.14,37.38,9,13.04,4.09,25.77,9.15,38.27,14.65,11.39,5.01,22.62,10.39,33.83,15.78-8.07-8.89-18.47-15.35-29.07-20.81Z"/>
      <path class="cls-1" d="M212.31,288.49c-17.38-12.25-37.3-19.9-57.48-26.17-9.94-3.09-20.32-5.45-29.65-10.18-3.53-1.79-6.88-3.99-9.85-6.62,4.85,5.99,10.99,11.05,17.35,15.13,10.3,6.6,21.72,11.09,33.3,14.87,12.75,4.17,25.75,7.65,38.18,12.76,8.26,3.39,16.21,7.6,23.33,12.96-.78-.8-1.56-1.6-2.38-2.37-4.01-3.76-8.31-7.22-12.8-10.39Z"/>
      <path class="cls-1" d="M229.25,350.13c-11.15-14.05-25.25-25.81-41.19-34.07-3.94-2.04-7.99-3.87-12.13-5.46-2.1-.81-4.23-1.66-6.44-2.11-1.06-.22-2.31-.38-3.48-.24,3.77,.77,7.48,2.05,10.99,3.5,4.54,1.87,8.88,4.2,13,6.85,15.66,10.08,28.44,24.42,39.04,39.59,5.72,8.19,10.8,16.82,15.2,25.79,.57,1.17,1.13,2.35,1.68,3.53v-10.04c-.74-1.66-1.52-3.3-2.34-4.93-4.01-7.92-8.82-15.44-14.34-22.4Z"/>
      <path class="cls-1" d="M200.41,272.67c-9.19-7.43-18.9-14.24-29.12-20.19-10.22-5.96-20.84-11.23-31.84-15.59-5.52-2.19-11.13-4.16-16.81-5.91-5.05-1.55-10.15-2.87-15.25-4.24-.52,2.95,.5,6.4,1.76,9.07,.32,.68,.66,1.36,1.02,2.02,1.79,2.65,3.89,5.06,6.4,7.2,4.27,3.62,9.25,6.26,14.42,8.33,4.87,1.95,9.91,3.39,14.94,4.83,5.21,1.48,10.4,3,15.56,4.66,10.16,3.27,20.2,6.98,29.87,11.53,8.98,4.23,17.62,9.25,25.54,15.24,3.85,2.91,7.52,6.05,10.97,9.42,.47,.46,.94,.92,1.4,1.38-1.04-1.19-2.07-2.4-3.14-3.57-7.95-8.69-16.56-16.78-25.72-24.19Z"/>
      <path class="cls-1" d="M169.68,322.7c3.6,3.86,7.44,7.49,11.42,10.96,14.13,12.37,29.94,22.68,43.82,35.36,3.13,2.86,6.16,5.86,9.06,8.99-4.34-5.56-8.98-10.91-13.71-16.12-5.87-6.48-12.04-12.68-18.45-18.62-6.46-5.98-13.11-11.71-20.07-17.11-3.45-2.68-6.96-5.29-10.52-7.82-2.94-2.09-6.06-4.02-8.98-6.15,0,.25-.01,.5,.01,.76,.51,1.3,1.29,2.52,2.12,3.63,1.62,2.16,3.46,4.16,5.3,6.13Z"/>
      <path class="cls-1" d="M172.98,318.39c4.06,2.91,8.05,5.91,11.96,9.01,13.88,10.99,26.88,23.07,38.73,36.23,5.88,6.53,11.57,13.29,16.87,20.3,1.75,2.32,3.47,4.66,5.15,7.03-1.36-3.09-2.79-6.15-4.33-9.16-8.8-17.31-20.23-33.51-33.96-47.27-6.22-6.24-13.06-11.97-20.61-16.53-3.66-2.21-7.48-4.16-11.44-5.75-3.68-1.47-7.44-2.47-11.27-3.4-.2,.12-.4,.26-.58,.42-.61,.55-.95,1.2-1.12,1.9,1.52,.92,2.99,1.94,4.46,2.94,2.07,1.4,4.11,2.83,6.14,4.28Z"/>
      <path class="cls-1" d="M143.95,237.47c10.98,4.55,21.62,9.88,31.78,16.07,10.17,6.19,19.91,13.04,29.05,20.68,8.14,6.8,15.78,14.17,22.92,22.01-.47-.57-.92-1.16-1.39-1.73-7.51-9.02-15.69-17.5-24.36-25.41-8.64-7.88-17.81-15.21-27.43-21.88-9.68-6.71-19.84-12.81-30.4-18.05-5.54-2.75-11.27-5.21-17.28-6.74-2.94-.75-5.95-1.29-8.99-1.48-1.49-.09-2.98-.09-4.47-.01-.93,.23-1.82,.55-2.65,1.03-1.74,.99-2.71,2.41-3.16,4,.85,.16,1.69,.32,2.53,.52,11.56,2.72,22.88,6.45,33.85,10.99Z"/>
      <path class="cls-1" d="M128.36,170.49c11.27,5.04,22.13,10.99,32.49,17.71,10.39,6.74,20.28,14.24,29.55,22.46,4.93,4.38,9.68,8.97,14.24,13.73-6.41-7.76-13.2-15.21-20.46-22.19-8.81-8.48-18.28-16.3-28.41-23.16-9.83-6.66-20.3-12.31-31.26-16.89-5.47-2.29-11.07-4.29-16.77-5.95-2.82-.82-5.67-1.57-8.53-2.24-2.26-.53-4.54-.94-6.79-1.47-.5,.45-.98,.94-1.41,1.49-.77,.98-1.37,2.17-1.41,3.43,0,.01,0,.03,0,.04,1.27,.24,2.53,.51,3.78,.81,11.99,2.86,23.73,7.2,34.97,12.23Z"/>
      <path class="cls-1" d="M185.71,209.25c-9.32-7.98-19.23-15.26-29.64-21.75-10.39-6.48-21.27-12.17-32.51-17.02-5.64-2.44-11.36-4.68-17.16-6.7-5.51-1.93-11.12-3.54-16.68-5.32,.27,1.09,.99,2.04,1.79,2.85,2.63,2.68,5.53,5.15,8.42,7.55,5.79,4.8,11.92,9.18,18.24,13.25,12.71,8.19,26.14,15.19,39.47,22.31,13.46,7.19,26.86,14.6,39.33,23.43,12.01,8.5,23.06,18.44,31.85,30.29,.58,.79,1.14,1.59,1.71,2.4-5.72-8.83-11.97-17.35-18.8-25.33-7.97-9.31-16.7-17.98-26.01-25.95Z"/>
      <path class="cls-1" d="M128.75,162.44c10.89,4.81,21.27,10.91,31.02,17.74,10.22,7.16,19.72,15.28,28.55,24.08,9.22,9.19,17.74,19.1,25.67,29.42,2.61,3.4,5.14,6.86,7.62,10.35,2.74,3.53,5.39,7.12,7.92,10.8-.16-.37-.32-.74-.48-1.11-.09-.15-.19-.29-.28-.44-1.86-2.84-3.76-5.67-5.7-8.46-3.81-5.48-7.76-10.87-11.84-16.16-14.53-18.82-30.72-36.49-48.4-52.39-8.67-7.8-17.93-15.21-28.34-20.55-9.08-4.66-18.94-7.69-29.1-8.51-2.28,.41-4.52,.98-6.7,1.78-1.9,.69-3.75,1.56-5.36,2.76,.48,.06,.96,.12,1.45,.21,11.71,2.06,23.1,5.68,33.97,10.49Z"/>
      <path class="cls-1" d="M166.32,177.17c8.97,8.15,17.54,16.75,25.72,25.69,8.16,8.93,15.94,18.23,23.28,27.85,2.9,3.8,5.71,7.66,8.47,11.55-.73-1.48-1.49-2.96-2.26-4.42-6.6-12.49-14.39-24.35-23.25-35.36-8.85-11-18.79-21.13-29.63-30.18-11.12-9.28-23.35-18.24-37.23-22.82-7-2.31-14.42-3.44-21.79-2.84,9.87,1.05,19.41,4.66,28.12,9.38,10.47,5.67,19.79,13.18,28.57,21.16Z"/>
      <path class="cls-1" d="M230.14,142.1c-1.79-15.36-3.56-30.72-4.93-46.12-1.26-14.27-2.26-28.54-2.6-42.85-.51,2.19-.79,4.45-1.11,6.6-.65,4.35-1.1,8.74-1.35,13.13-1.02,17.46,.72,34.95,3.4,52.19,2.72,17.53,6.4,34.9,9.38,52.39,1.69,9.92,3.13,19.88,4.41,29.85-.58-6.3-1.19-12.59-1.87-18.88-1.67-15.45-3.53-30.88-5.33-46.31Z"/>
      <path class="cls-1" d="M244.33,237.35c.86-15.67,1.74-31.34,1.5-47.04-.25-16.27-2.27-32.48-4.77-48.54-2.51-16.16-5.5-32.25-8.37-48.36-2.71-15.23-5.59-30.45-7.95-45.74-.21,.32-.41,.65-.59,.99-.37,.73-.67,1.49-.94,2.27,.08,1.41,.16,2.81,.25,4.22,.98,15.5,2.16,30.97,3.73,46.42,1.57,15.46,3.35,30.9,5.2,46.33,1.85,15.43,3.69,30.86,5.36,46.3,1.66,15.34,3.11,30.71,4.07,46.11,.37,5.95,.63,11.9,.83,17.86,.17,1.96,.35,3.91,.51,5.87,.21-8.9,.67-17.8,1.16-26.69Z"/>
      <path class="cls-2" d="M241.93,398.05c-7.17-7.97-16.02-14.15-24.67-20.39-8.5-6.14-16.66-12.63-24.07-20.07-7.21-7.24-13.73-15.15-19.47-23.59-2.89-4.25-5.57-8.63-8.05-13.12-.41-.75-.98-1.7-1.54-2.75,.65,.82,1.32,1.61,1.97,2.35,3.03,3.5,6.26,6.82,9.62,9.99,6.99,6.58,14.54,12.51,22.12,18.4,14.79,11.5,30.02,22.86,41.6,37.78,2.37,3.05,4.54,6.25,6.49,9.57v-8.7c-.55-1.18-1.11-2.36-1.68-3.53-4.4-8.97-9.47-17.6-15.2-25.79-10.6-15.17-23.39-29.51-39.04-39.59-4.12-2.66-8.47-4.98-13-6.85-3.51-1.45-7.22-2.74-10.99-3.5,1.17-.14,2.42,.02,3.48,.24,2.21,.45,4.34,1.3,6.44,2.11,4.14,1.59,8.19,3.42,12.13,5.46,15.93,8.26,30.03,20.02,41.19,34.07,5.52,6.96,10.33,14.47,14.34,22.4,.82,1.63,1.6,3.27,2.34,4.93v-5.29c-3.17-6.52-6.9-12.78-11.12-18.67-10.71-14.93-24.53-27.66-40.42-36.91-3.96-2.31-8.06-4.39-12.26-6.24-2.12-.93-4.28-1.81-6.45-2.61-2.14-.79-4.3-1.63-6.57-1.96-2.18-.32-4.51-.26-6.45,.9-1.93,1.15-2.93,3.29-2.98,5.48-.04,2.21,.81,4.39,1.77,6.34,1.16,2.34,2.44,4.62,3.74,6.88,10.49,18.17,24.49,34.36,40.97,47.35,13.53,10.66,30.24,20.06,39.77,34.77v-4.56c-1.26-1.69-2.59-3.32-3.99-4.88Zm-78.43-88.78c.18-.16,.38-.3,.58-.42,3.83,.93,7.59,1.93,11.27,3.4,3.97,1.59,7.79,3.53,11.44,5.75,7.55,4.57,14.39,10.3,20.61,16.53,13.73,13.76,25.15,29.97,33.96,47.27,1.53,3.01,2.97,6.07,4.33,9.16-1.69-2.36-3.4-4.71-5.15-7.03-5.31-7-10.99-13.77-16.87-20.3-11.85-13.16-24.85-25.24-38.73-36.23-3.91-3.1-7.9-6.1-11.96-9.01-2.03-1.45-4.08-2.88-6.14-4.28-1.47-1-2.93-2.02-4.46-2.94,.18-.7,.52-1.35,1.12-1.9Zm-1.26,2.92c2.93,2.13,6.04,4.06,8.98,6.15,3.56,2.53,7.07,5.14,10.52,7.82,6.95,5.4,13.61,11.13,20.07,17.11,6.41,5.94,12.58,12.14,18.45,18.62,4.73,5.22,9.37,10.56,13.71,16.12-2.89-3.13-5.93-6.13-9.06-8.99-13.88-12.68-29.68-22.99-43.82-35.36-3.97-3.47-7.81-7.11-11.42-10.96-1.84-1.97-3.69-3.98-5.3-6.13-.83-1.1-1.61-2.33-2.12-3.63-.03-.26-.02-.51-.01-.76Z"/>
      <path class="cls-2" d="M230.15,296.43c-7.55-9.18-15.68-17.89-24.38-25.98-8.69-8.09-17.93-15.58-27.65-22.39-9.72-6.82-19.88-12.99-30.43-18.44-7.84-4.04-16.3-7.85-25.1-9.24,2.08,.06,4.16,.17,6.22,.42,12.79,1.5,25.01,6.18,36.2,12.43,11.9,6.64,22.7,15.04,33.21,23.67,10.58,8.69,21.15,17.58,30.16,27.93,6.48,7.44,12.12,15.7,16.1,24.73,.45,2.31,.94,4.62,1.44,6.93v-48.86c-.32,2.31-.65,4.62-.98,6.93-.06-10.5,.37-21,.91-31.49,.02-.41,.04-.82,.07-1.23v-74.69c-.66-6.6-1.48-13.18-2.45-19.74-2.39-16.24-5.46-32.37-8.36-48.53-2.93-16.33-5.78-32.68-8.87-48.98-.2-1.08-.44-2.15-.66-3.22,.42-.44,.9-.82,1.45-1.1,6.83,14.27,12.51,29.03,16.64,44.31,.81,3.01,1.55,6.03,2.26,9.06v-7.56c-3.9-14.7-9.1-29.03-15.98-42.61-.62-1.22-1.27-2.41-1.94-3.61,.27-.06,.54-.08,.8-.09,2.42,3.63,4.89,7.21,7.17,10.93,2.64,4.31,5.18,8.69,7.52,13.18,.83,1.58,1.63,3.18,2.42,4.79v-2.21c-2.51-4.92-5.17-9.77-8.02-14.5-1.55-2.58-3.16-5.16-4.83-7.69,4.63,6.13,8.92,12.5,12.85,19.09v-1.62c-.11-.18-.22-.37-.33-.56-4.54-7.38-9.49-14.46-14.95-21.19,.62,.16,1.22,.37,1.79,.66,3.42,1.76,6.29,4.89,8.95,7.6,1.57,1.59,3.08,3.25,4.54,4.94v-4.05c-1.59-1.74-3.23-3.44-4.93-5.07-2.71-2.59-5.62-5.47-9.28-6.63-1.28-.4-2.57-.48-3.79-.27-.16-.06-.32-.02-.43,.11-1.05,.25-2.04,.73-2.92,1.38-.13,.03-.22,.11-.28,.22-.53,.43-1.03,.91-1.46,1.49-2.13,2.9-2.82,6.55-3.43,10.02-3.06,17.62-2.74,35.63-.82,53.36,1.95,17.95,5.48,35.66,8.78,53.4,3.5,18.81,6.36,37.7,8.54,56.71,1.89,16.5,3.31,33.04,4.62,49.59-6.09-23.27-14.44-45.92-24.95-67.58-8.05-16.58-17.34-32.54-27.72-47.76,.09-.33,.04-.69-.27-1.05-.18-.21-.36-.43-.55-.64-1.41-4.66-3.08-9.25-4.69-13.85-1.98-5.67-3.96-11.34-5.93-17.01-3.98-11.43-8.08-22.83-12.13-34.24-3.99-11.23-8.04-22.44-12.54-33.48-4.27-10.48-8.73-21.12-14.72-30.76-2.76-4.43-5.9-8.95-9.79-12.47-2.55-2.32-6.05-4.48-9.58-4.5,0,0,0,0,0-.01-.22-.25-.54-.16-.68,.04-.91,.07-1.83,.29-2.72,.7-3.78,1.73-5.18,5.69-5.37,9.59-.23,4.68,1.09,9.4,2.19,13.9,5.42,22.22,15.3,43.17,27.33,62.55,1.47,2.36,2.97,4.7,4.49,7.02-7.57-7.57-15.45-14.89-23.86-21.49-2.11-1.66-4.26-3.26-6.41-4.86-3.79-6.65-8.04-13.07-12.31-19.41-4.37-6.5-8.95-12.86-13.85-18.98-4.84-6.04-10-11.85-15.56-17.24-5.5-5.32-11.45-10.48-17.94-14.57-2.83-1.79-6.67-3.49-10.03-2.24-3.01,1.12-4.38,4.09-4.26,7.15,.13,3.2,1.52,6.15,2.93,8.96,1.58,3.14,3.28,6.22,5.13,9.21,7.37,11.93,16.83,22.59,27.73,31.4,10.93,8.84,23.37,15.98,36.65,20.62,1.66,.58,3.32,1.12,5,1.63,.02,0,.03,0,.05,0,.65,.47,1.28,.95,1.93,1.42,.58,.42,1.23,.23,1.63-.17,11.21,10.08,22.02,20.52,32.21,31.59,1.57,2.17,3.19,4.31,4.8,6.45-4.66-3.85-9.5-7.48-14.51-10.87-10.49-7.11-21.68-13.19-33.31-18.22-11.7-5.07-23.86-9.09-36.28-12-6.19-1.45-12.44-2.62-18.73-3.51-6.9-.98-13.88-1.72-20.85-1.63-7.21,.09-14.56,1.14-21.18,4.1C6.62,78.92,.24,82.94,0,89.39c-.24,6.77,6.93,10.62,11.99,13.45,5.62,3.14,11.42,5.98,17.32,8.56,11.87,5.18,24.17,9.34,36.62,12.9,12.51,3.57,25.18,6.58,37.84,9.55,12.75,2.99,25.52,5.94,38.16,9.38,12.5,3.41,24.89,7.3,36.89,12.19,2.95,1.2,5.87,2.47,8.77,3.79,.33,.15,.63,.14,.91,.07,7.39,11.27,14.2,22.93,20.35,34.93,10.37,20.24,18.82,41.47,25.28,63.29-.45-.73-.91-1.45-1.38-2.17-1.37-3.34-2.81-6.65-4.36-9.92-6.14-12.98-13.53-25.37-22.06-36.92-8.55-11.59-18.24-22.35-28.89-32.06-5.32-4.85-10.88-9.43-16.66-13.71-6.01-4.45-12.3-8.59-19.04-11.87-13.43-6.54-29.36-9.62-43.78-4.44-5.14,1.84-12.48,6.32-10.78,12.89,.44,1.69,1.59,3.05,2.81,4.25,1.34,1.32,2.74,2.59,4.14,3.84,2.87,2.55,5.84,5,8.89,7.33,12.2,9.36,25.55,17.07,39.05,24.38,13.58,7.36,27.39,14.33,40.59,22.36,12.97,7.89,25.41,16.87,35.88,27.94,7.55,7.98,14.08,17.06,18.78,27.01,.06,.19,.12,.38,.18,.57,.98,3.3,1.94,6.62,2.76,9.96,.12,.48,.42,.72,.77,.82,.23,2.59,.56,5.18,.95,7.76-.03,.28-.07,.56-.11,.84-.05,.4,.13,.7,.37,.89,.24,1.51,.49,3.02,.76,4.52-1.86-3.42-3.93-6.73-6.19-9.91-8.07-11.36-18.28-20.98-28.84-29.98-10.61-9.04-21.43-17.96-33.12-25.59-11.12-7.26-23.19-13.21-36.16-16.29-6.29-1.49-12.77-2.28-19.24-2.18-5.7,.09-12.5,1.16-14.34,7.49-1.54,5.31,1.26,10.99,3.93,15.43,3.03,5.03,6.88,9.56,11.2,13.53,8.86,8.14,19.64,14.01,30.73,18.51,12.5,5.07,25.57,8.51,38.36,12.74,12.3,4.07,24.53,8.93,35.09,16.57,9.01,6.52,17,14.96,21.49,25.23v-9.7c-4.91-7.33-10.17-14.41-15.77-21.22ZM43.73,2.51c1.01,.99,2.18,1.8,3.29,2.68,1.18,.93,2.34,1.89,3.48,2.86,2.38,2.02,4.69,4.13,6.94,6.3,4.43,4.27,8.6,8.8,12.7,13.38,4.24,4.73,8.33,9.6,12.48,14.4,4.45,5.15,8.91,10.28,13.3,15.47,2.5,2.95,4.99,5.9,7.51,8.83,.55,.64,1.1,1.27,1.64,1.91-6.52-5.05-12.86-10.33-18.98-15.91-10.54-9.63-20.46-19.92-29.74-30.77-4.99-5.83-9.73-11.88-14.51-17.89,.51-.64,1.15-1.03,1.87-1.26Zm-2.47,2.26c.04-.1,.09-.18,.14-.27,7.73,11.38,16.77,21.95,26.16,31.97,8.5,9.07,17.54,17.62,26.97,25.7-4.94-2.98-10-5.78-14.78-9.03-5.5-3.74-10.59-7.98-15.18-12.78-4.67-4.88-8.73-10.24-12.55-15.8-2.14-3.13-4.14-6.34-6.01-9.64-1.74-3.08-3.3-6.26-5.02-9.34,.07-.28,.15-.55,.26-.81Zm39.37,54.14c-10.91-7.92-20.53-17.61-28.29-28.65-3.8-5.42-7.43-11.22-10.06-17.31-.71-1.63-1.42-3.63-1.47-5.55,1.09,2.31,2.33,4.56,3.55,6.79,1.63,2.97,3.34,5.9,5.12,8.78,3.51,5.69,7.51,11.09,11.97,16.08,4.47,5,9.44,9.52,14.89,13.44,5.39,3.88,11.05,7.41,16.65,10.96,4.82,3.05,9.57,6.21,13.96,9.84-9.33-3.67-18.21-8.48-26.32-14.37Zm25.14,6.89c-2.21-2.53-4.43-5.05-6.66-7.56-4.65-5.22-9.24-10.49-13.83-15.76-8.22-9.44-16.47-18.86-25.49-27.54-2.51-2.41-5.09-4.76-7.74-7.03-1.33-1.13-2.67-2.24-4.04-3.32-1-.79-1.99-1.63-3.06-2.32,1.58-.1,3.33,.39,4.73,1.04,3.31,1.56,6.29,4,9.15,6.24,2.92,2.28,5.73,4.69,8.45,7.21,5.46,5.06,10.52,10.54,15.27,16.27,9.3,11.23,17.37,23.36,25.54,35.41-.77-.89-1.54-1.77-2.32-2.66ZM121.83,9.34c4.38,2.32,7.61,6.7,10.41,10.66,6.27,8.88,10.71,18.98,14.94,28.94,4.56,10.73,8.64,21.65,12.61,32.61,7.22,19.97,14.15,40.06,21.54,59.98-.67-1.33-1.38-2.63-2.06-3.95-1.19-2.3-2.34-4.63-3.46-6.97-2.21-4.63-4.34-9.27-6.33-14-3.97-9.46-7.59-19.06-11.18-28.66-6.94-18.54-13.79-37.14-22.91-54.74-2.53-4.88-5.24-9.68-8.17-14.34-2.18-3.47-4.44-6.95-6.94-10.22,.53,.19,1.05,.42,1.55,.68Zm-3.22-1.1c2.27,3.22,4.56,6.41,6.68,9.74,2.63,4.13,5.08,8.36,7.38,12.67,4.66,8.72,8.72,17.75,12.43,26.91,7.56,18.65,13.83,37.8,21.33,56.47,1.8,4.48,3.67,8.95,5.62,13.37-1.59-2.66-3.18-5.32-4.73-8.01-5-8.66-9.81-17.43-14.44-26.29-9.37-17.9-17.88-36.21-25.44-54.94-3.98-9.85-7.75-19.79-11.29-29.8,.81-.22,1.64-.24,2.46-.12Zm-3.38,.49c3.05,8.97,6.27,17.86,9.75,26.67,3.72,9.43,7.74,18.71,11.81,27.99,8.07,18.38,17.08,36.36,26.95,53.84,2.36,4.18,4.78,8.34,7.23,12.48-2.47-3.57-4.91-7.16-7.29-10.78-5.39-8.21-10.55-16.57-15.47-25.07-9.94-17.17-19.38-34.84-26.96-53.19-4.07-9.86-7.21-20.19-7.44-30.91,.42-.4,.88-.76,1.41-1.02Zm39.81,103.14c-3.02-4.14-5.97-8.32-8.81-12.58-12.32-18.45-22.82-38.27-29.5-59.49-1.68-5.32-3.11-10.72-4.26-16.18-.77-3.67-1.59-7.92-.19-11.55,.14-.36,.31-.71,.5-1.03,.14,9.03,2.54,17.88,5.71,26.3,3.54,9.38,7.92,18.47,12.3,27.48,8.7,17.92,18.47,35.27,29.27,52.01,.59,.92,1.2,1.82,1.8,2.74-2.24-2.6-4.5-5.17-6.81-7.7ZM24.29,75.61c7.11-1.07,14.35-.81,21.48-.09,6.25,.63,12.47,1.55,18.63,2.73,12.28,2.36,24.36,5.8,36.03,10.29,11.6,4.46,22.82,9.94,33.45,16.38,9.79,5.93,19.07,12.7,27.74,20.17,1.5,1.92,3.01,3.83,4.54,5.73-15.9-10.24-32.02-20.1-49.03-28.48-10.49-5.17-21.24-9.86-32.29-13.69-10.85-3.76-22.02-6.95-33.37-8.84-10.99-1.83-22.11-3.03-33.25-2.86,1.99-.57,4.02-1.03,6.07-1.33Zm-10.27,2.76c.39-.16,.79-.29,1.19-.44,10.9-.09,21.76,.69,32.52,2.52,11.15,1.89,22.19,4.81,32.9,8.42,22.33,7.54,43.37,18.27,63.54,30.37,8.77,5.26,17.42,10.76,25.92,16.45,.33,.4,.65,.8,.97,1.2-2.2-1.29-4.4-2.58-6.61-3.85-5.33-3.06-10.69-6.05-16.1-8.96-10.77-5.79-21.72-11.24-32.88-16.23-11.01-4.92-22.25-9.36-33.67-13.25-11.47-3.92-23.18-7.16-35.04-9.68-5.91-1.26-11.86-2.33-17.85-3.19-6.43-.92-13.07-1.79-19.52-.55-.46,.09-.9,.22-1.35,.33,1.85-1.28,3.92-2.29,5.97-3.13Zm-8.25,4.94c.09-.09,.2-.16,.3-.25,2.97-.74,5.94-1.26,9.01-1.32,3.37-.06,6.74,.26,10.07,.69,5.97,.77,11.92,1.77,17.82,2.96,11.73,2.36,23.25,5.55,34.62,9.3,11.44,3.77,22.65,8.2,33.64,13.11,11,4.91,21.8,10.26,32.43,15.94,10.6,5.66,21.02,11.66,31.32,17.86,.86,1.03,1.71,2.08,2.57,3.11-5.3-4.32-11.13-8.03-17.08-11.26-11.46-6.24-23.57-11.42-35.67-16.26-12.45-4.98-25.16-9.4-38.01-13.23-12.85-3.84-25.87-7.09-39.02-9.72-13.2-2.64-26.53-4.79-39.94-6.11-1.65-.16-3.31-.32-4.96-.46,.52-1.66,1.64-3.14,2.91-4.36Zm147.18,60.18c-12.22-3.66-24.62-6.71-37.03-9.64-12.42-2.94-24.88-5.76-37.24-8.95-12.29-3.18-24.51-6.72-36.42-11.13-5.93-2.19-11.77-4.62-17.5-7.31-2.82-1.32-5.61-2.71-8.36-4.17-2.79-1.48-5.66-2.95-8.27-4.74-.94-.64-1.9-1.37-2.77-2.21,8.58,5.1,18.18,8.61,27.69,11.41,11.67,3.43,23.63,5.68,35.56,7.95,12.39,2.36,24.76,4.83,36.87,8.4,13.18,3.89,26.03,8.79,38.66,14.2,8.82,3.78,17.53,7.81,26.19,11.94-5.73-2.09-11.53-4.01-17.38-5.75Zm-2.99-5.87c-12.51-5.5-25.23-10.56-38.27-14.65-12.26-3.85-24.77-6.58-37.38-9-11.96-2.28-23.96-4.41-35.76-7.44-11.62-2.99-23.06-6.99-33.5-12.98-.6-.34-1.21-.68-1.81-1.02-.3-.62-.53-1.28-.64-1.98-.1-.67-.08-1.32,.03-1.95,0,0,0,0,0,0,13.21,1.45,26.37,3.35,39.41,5.87,13.05,2.52,25.99,5.66,38.76,9.33,12.89,3.7,25.58,7.99,38.07,12.86,12.17,4.74,24.22,9.94,35.84,15.92,10.6,5.46,20.99,11.92,29.07,20.81-11.21-5.39-22.44-10.77-33.83-15.78Zm-18.56,11.85c13.89,4.59,26.12,13.54,37.23,22.82,10.84,9.05,20.77,19.18,29.63,30.18,8.86,11.01,16.65,22.87,23.25,35.36,.77,1.46,1.52,2.94,2.26,4.42-2.77-3.89-5.57-7.75-8.47-11.55-7.35-9.62-15.12-18.91-23.28-27.85-8.18-8.95-16.75-17.54-25.72-25.69-8.78-7.98-18.1-15.49-28.57-21.16-8.71-4.72-18.25-8.32-28.12-9.38,7.37-.6,14.79,.53,21.79,2.84Zm-32.74-.49c2.18-.79,4.42-1.37,6.7-1.78,10.16,.83,20.02,3.85,29.1,8.51,10.41,5.35,19.67,12.76,28.34,20.55,17.68,15.91,33.87,33.57,48.4,52.39,4.08,5.29,8.03,10.67,11.84,16.16,1.94,2.79,3.84,5.61,5.7,8.46,.1,.15,.19,.29,.28,.44,.16,.37,.32,.74,.48,1.11-2.53-3.68-5.18-7.27-7.92-10.8-2.49-3.49-5.01-6.95-7.62-10.35-7.93-10.32-16.45-20.22-25.67-29.42-8.83-8.81-18.33-16.92-28.55-24.08-9.75-6.83-20.13-12.93-31.02-17.74-10.87-4.8-22.26-8.43-33.97-10.49-.49-.09-.97-.15-1.45-.21,1.6-1.2,3.45-2.07,5.36-2.76Zm-9.08,8.44c.03-1.26,.64-2.46,1.41-3.43,.43-.55,.91-1.04,1.41-1.49,2.25,.53,4.53,.95,6.79,1.47,2.86,.67,5.71,1.42,8.53,2.24,5.69,1.66,11.29,3.66,16.77,5.95,10.96,4.58,21.43,10.23,31.26,16.89,10.13,6.86,19.6,14.69,28.41,23.16,7.26,6.98,14.05,14.42,20.46,22.19-4.57-4.76-9.31-9.35-14.24-13.73-9.27-8.22-19.16-15.72-29.55-22.46-10.36-6.72-21.22-12.67-32.49-17.71-11.24-5.03-22.98-9.37-34.97-12.23-1.26-.3-2.52-.56-3.78-.81,0-.01,0-.03,0-.04Zm139.21,100.72c-8.79-11.85-19.84-21.79-31.85-30.29-12.47-8.83-25.87-16.24-39.33-23.43-13.33-7.12-26.75-14.11-39.47-22.31-6.32-4.07-12.45-8.45-18.24-13.25-2.89-2.4-5.78-4.87-8.42-7.55-.8-.82-1.51-1.76-1.79-2.85,5.56,1.77,11.17,3.39,16.68,5.32,5.8,2.03,11.52,4.27,17.16,6.7,11.24,4.86,22.12,10.55,32.51,17.02,10.41,6.49,20.32,13.77,29.64,21.75,9.31,7.97,18.04,16.64,26.01,25.95,6.84,7.99,13.08,16.5,18.8,25.33-.56-.8-1.12-1.61-1.71-2.4Zm4.12-80.7c-2.98-17.49-6.66-34.85-9.38-52.39-2.68-17.24-4.42-34.73-3.4-52.19,.26-4.39,.71-8.78,1.35-13.13,.32-2.15,.59-4.42,1.11-6.6,.34,14.32,1.34,28.59,2.6,42.85,1.36,15.4,3.13,30.77,4.93,46.12,1.8,15.43,3.67,30.86,5.33,46.31,.68,6.29,1.3,12.58,1.87,18.88-1.28-9.98-2.72-19.94-4.41-29.85Zm9.73,80.74c-.2-5.96-.46-11.92-.83-17.86-.95-15.4-2.41-30.77-4.07-46.11-1.67-15.45-3.51-30.88-5.36-46.3-1.85-15.43-3.63-30.87-5.2-46.33-1.57-15.45-2.75-30.92-3.73-46.42-.09-1.41-.17-2.81-.25-4.22,.26-.78,.56-1.54,.94-2.27,.17-.34,.37-.67,.59-.99,2.36,15.29,5.24,30.51,7.95,45.74,2.86,16.1,5.86,32.19,8.37,48.36,2.49,16.06,4.51,32.27,4.77,48.54,.24,15.7-.64,31.37-1.5,47.04-.49,8.89-.95,17.79-1.16,26.69-.16-1.96-.34-3.91-.51-5.87Zm-131.92-36.22c.83-.47,1.72-.79,2.65-1.03,1.49-.08,2.98-.08,4.47,.01,3.03,.19,6.04,.74,8.99,1.48,6.01,1.53,11.74,3.99,17.28,6.74,10.55,5.24,20.71,11.34,30.4,18.05,9.62,6.66,18.78,14,27.43,21.88,8.67,7.91,16.85,16.39,24.36,25.41,.47,.57,.92,1.16,1.39,1.73-7.14-7.84-14.78-15.21-22.92-22.01-9.14-7.63-18.88-14.48-29.05-20.68-10.16-6.18-20.8-11.51-31.78-16.07-10.97-4.55-22.29-8.28-33.85-10.99-.84-.2-1.68-.36-2.53-.52,.46-1.6,1.42-3.01,3.16-4Zm93.43,66.33c-12.43-5.1-25.43-8.59-38.18-12.76-11.59-3.78-23-8.27-33.3-14.87-6.36-4.07-12.5-9.13-17.35-15.13,2.97,2.63,6.32,4.83,9.85,6.62,9.33,4.73,19.71,7.09,29.65,10.18,20.18,6.27,40.1,13.92,57.48,26.17,4.5,3.17,8.79,6.62,12.8,10.39,.82,.77,1.6,1.57,2.38,2.37-7.12-5.36-15.07-9.57-23.33-12.96Zm23.7,10.76c-3.45-3.37-7.12-6.51-10.97-9.42-7.92-6-16.56-11.02-25.54-15.24-9.66-4.55-19.71-8.26-29.87-11.53-5.15-1.66-10.35-3.18-15.56-4.66-5.04-1.43-10.08-2.88-14.94-4.83-5.18-2.07-10.16-4.71-14.42-8.33-2.51-2.14-4.61-4.55-6.4-7.2-.36-.67-.7-1.34-1.02-2.02-1.26-2.67-2.29-6.12-1.76-9.07,5.09,1.37,10.2,2.69,15.25,4.24,5.68,1.75,11.29,3.72,16.81,5.91,11,4.36,21.62,9.63,31.84,15.59,10.21,5.96,19.93,12.76,29.12,20.19,9.16,7.41,17.77,15.5,25.72,24.19,1.07,1.17,2.1,2.38,3.14,3.57-.47-.47-.93-.93-1.4-1.38Z"/>
    </g>
  </g>
</svg>