<?xml version="1.0" encoding="UTF-8"?>
<svg id="Layer_2" data-name="Layer 2" xmlns="http://www.w3.org/2000/svg" viewBox="0 0 443 543.7">
  <defs>
    <style>
      .cls-1 {
        stroke: #cecece;
        stroke-linecap: round;
        stroke-linejoin: round;
        stroke-width: 0px;
      }

      .cls-1, .cls-2 {
        fill: none;
      }

      .cls-3 {
        fill: #cecece;
      }
    </style>
  </defs>
  <g id="Layer_1-2" data-name="Layer 1">
    <g>
      <path class="cls-2" d="M348.74,189.49c-.49,1.95-.86,3.92-1.12,5.9,6.37-4.32,13.38-7.52,20.45-10.52-5.63,4.22-13.42,7.96-20.53,11.15l-.17,1.4-1.52-.16c-.44-.04-.84,.28-1,.42-.22,.2-.36,.43-.44,.6,.07,0,.17,0,.28,0,.26-.01,.52-.01,.78-.02,3.62-1.14,7.3-2.19,11.24-2.85-3.04,1.36-6.42,2.37-9.82,2.85,2.89,.06,5.83,.46,8.68,.86,6.63,.92,12.89,1.79,17.85-1.58,.96-.65,1.83-1.45,2.76-2.29,1.04-.95,2.12-1.93,3.37-2.75,2.26-1.47,4.82-2.22,7.29-2.95,2.7-.79,5.25-1.54,7.24-3.15,.42-.34,.82-.72,1.22-1.1,1.12-1.06,2.39-2.26,4.15-2.74,1.38-.38,2.78-.22,4.02-.08,1.3,.15,2.42,.28,3.21-.19,.79-.46,1.26-1.55,1.76-2.7,.21-.49,.43-.99,.67-1.45,1.82-3.54,5.19-5.58,8.44-7.55,1.47-.89,2.9-1.76,4.15-2.73-.87,0-1.77-.11-2.71-.3-15.83,3.22-30.46,11.59-46.58,15.47,14.57-5.98,28.94-14.31,44.77-15.94-1.41-.44-2.87-1.07-4.37-1.91-.71-.39-1.41-.8-2.12-1.22-3.14-1.84-6.1-3.57-9.34-3.62-.44,0-.88,.01-1.31,.04-.85,.04-1.73,.09-2.66-.05-1.86-.27-3.39-1.17-4.87-2.04-1.15-.68-2.23-1.31-3.36-1.58-2.9-.69-5.73,1-8.74,2.79-2.45,1.46-4.97,2.96-7.84,3.43-1.18,.19-2.33,.19-3.44,.19-1.3,0-2.53,0-3.64,.3-2.22,.6-4.04,2.47-5.54,4.22-5.17,6.05-8.95,13.34-11,21.05,1.45-.94,2.96-1.78,4.56-2.47-1.47,1.14-3.08,2.26-4.76,3.27Zm32.07-26.55c-4.52,1.19-9.03,2.71-13.59,3.87-2.15,.59-4.26,1-6.24,1.81,5.99-3.47,12.92-5.32,19.83-5.68Z"/>
      <path class="cls-2" d="M334.79,123.5c3.29-1.45,6.43-2.82,9.35-4.51,.15-.31,.31-.6,.45-.91-3.65,1.37-7.43,2.37-11.26,3.04-5.82,2.34-11.78,4.61-18.04,5.23,5.2-1.77,10.35-3.76,15.74-4.86-2.25,.31-4.52,.5-6.8,.56-4.43,.81-8.95,1.16-13.44,.87,2.28-.39,4.57-.73,6.86-1.02l-.36-.03c-2.66-.2-5.41-.42-7.39,.84-.55,.35-1.04,.8-1.52,1.25-.51,.46-1.02,.92-1.58,1.32-1.91,1.34-4.09,1.82-6.19,2.27-.95,.21-1.9,.41-2.81,.7-7.22,2.34-10.93,10.51-11.32,17.12-.37,6.39,1.38,13.22,5.42,21.05,5.5-1.03,11.08-2.17,16.02-4.58,5.72-2.79,9.87-7.17,11.4-12.01,.25-.78,.45-1.61,.67-2.45,.89-3.53,1.91-7.54,5.7-8.99,.59-.23,1.2-.36,1.83-.49,.39-.08,.78-.15,1.16-.28,1.34-.43,2.51-1.53,3.68-2.73,3.53-3.6,7.68-8.24,10.82-14.03-8.09,5.63-19,8.77-27.93,12.68,6.13-4.02,12.85-7.07,19.53-10.05Zm-25.52,17.85c-5.95,5.83-12.35,11.35-14.34,19.7,.27-9.24,7.63-16.29,14.89-21.07,.99-.67,2-1.29,3.02-1.92-.93,.89-2.45,2.23-3.57,3.29Zm-6.14-9.54c3.32-2.2,6.94-3.97,10.85-4.79-3.27,1.65-7.18,3.48-10.85,4.79Zm32.74-4.77c-3.97,4.29-8.26,8.44-13.4,11.08,4.42-3.75,8.54-7.88,13.4-11.08Z"/>
      <path class="cls-2" d="M273.73,459.61c-4.84-3.93-9.91-8.08-13.55-13.26,.35,3.5,3.03,9.58,5.18,14.33l4.94,10.75c1.21,2.62,2.46,5.34,4.41,7.35,2.19,2.24,5.21,3.59,8.13,4.9,9.75,4.35,20.8,9.28,32.11,9.06l1.55-.04c.92-.03,1.87-.05,2.81-.05-9.93-5.46-19.23-12.47-25.37-22.12,7.78,8.46,17.67,15.1,27.09,22.15,.76,.03,1.52,.08,2.26,.18-.27-.24-.53-.47-.81-.71-1.4-1.23-2.85-2.5-4.09-3.97-2.44-2.87-3.95-6.32-5.4-9.65l-.35-.8c-4.4-9.99-9.68-19.64-15.71-28.69-3.11-4.67-6.66-9.15-11.58-10.25-2.66-.62-5.57-.13-8.08,.43-2.59,.58-5.13,1.33-7.62,2.24,.79,.29,1.53,.65,2.2,1.14-.7-.23-1.53-.69-2.24-1.13-2.08,.76-4.12,1.63-6.11,2.62,1.87,.82,3.69,1.77,5.31,3.01-1.88-.78-3.77-1.76-5.5-2.92-1.08,.54-2.14,1.09-3.19,1.69,0,.09,.02,.2,.02,.29,4.55,4.22,9.68,8.32,13.57,13.44Zm5.58,11.71c-5.37-3.3-11.41-8.41-14.68-14.37,2.03,2.59,3.93,3.96,6.12,6.08,1.83,1.67,5.92,5.73,8.56,8.29Z"/>
      <path class="cls-2" d="M282.69,376.65c2.21,1.15,4.67,1.95,7.27,2.8,.93,.3,1.86,.61,2.78,.93,1.52,.53,3.25,1.2,4.54,2.37,1.71,1.54,2.21,3.55,2.44,4.92,.12,.72,.2,1.46,.26,2.2,.07,.66,.13,1.33,.24,1.97,.27,1.62,.76,2.56,1.68,3.25,1.04,.79,2.6,1.18,4.4,1.59l15.17,3.47-1.97-4.18c-7.66-7.07-14.58-15.21-19.62-24.24,6.36,7.48,12.87,14.84,18.86,22.63l-.23-.49c-1.58-3.33-3.14-6.66-4.7-9.99-1.49-3.19-3.18-6.82-5.71-9.85l-.51-.61c-.69-.8-1.4-1.63-1.93-2.62-.77-1.44-1.09-3.38-1.26-5.38l-.09-.97c-.84-8.23-7.58-18.19-19.72-20.11-11.31,15.29-12.02,27.06-1.9,32.31Zm12.33-10.43c-4.32-5.53-7.83-12.25-9.56-19.21,3.19,6.4,6.63,12.68,9.56,19.21Z"/>
      <path class="cls-2" d="M376.52,301.19c-3.32-2.44-6.92-4.47-10.41-6.67-.69-.08-1.38-.13-2.06-.16,.54,.91,1.07,1.83,1.59,2.76,4.93,1.9,9.83,3.97,14.3,6.76-1.07-.87-2.19-1.76-3.42-2.69Z"/>
      <path class="cls-2" d="M201.27,464.48l-.27,.24c-.94,.82-1.82,1.59-2.24,2.52-.33,.69-.43,1.53-.53,2.42l-1.89,16.33c-.45,3.86-.83,7.94-.21,11.63,.42,2.53,1.27,4.59,2.59,6.29,.63,.82,1.38,1.58,2.13,2.34,1.8,1.83,3.67,3.73,4.2,6.48,0,0,0,0,0,0,.34,2.03-.05,3.78-.43,5.47-.33,1.47-.64,2.85-.43,4.11,.52,2.49,2.76,4.07,5.14,5.75,1.24,.88,2.56,1.82,3.69,2.94-1.31-5.55-.9-11.38,.05-16.99,.39,5.62-.03,11.21,.45,16.81,1.95-9.2,5.26-18.01,9.86-26.24,.42-.76,.86-1.52,1.3-2.29,1.52-2.65,2.96-5.16,3.92-7.89,2.46-6.97,1.63-15.62-2.22-23.95-3.27-7.1-8.23-13.34-13.18-19.35-3.28,4.39-7.2,9.23-11.93,13.38Zm9.25,12.82c-.98,8.21-2.32,16.39-2.61,24.65-1.54-16.29,.82-33.69,5.45-49.6-1.3,8.27-1.91,16.63-2.84,24.95Z"/>
      <path class="cls-2" d="M61.04,276.66c8.96,3.53,15.86,10.41,22.24,17.43-7.32-5.73-14.52-12.04-22.27-17.32l-.37,1.03c1.4,4.48,2.94,9.6,4.5,14.81l.63,2.1c.49,1.66,1.01,3.37,1.94,4.74,1.36,2.01,3.6,3.27,5.96,4.61,1.96,1.11,3.98,2.25,5.65,3.9,1.47,1.46,2.54,3.17,3.57,4.82,.55,.89,1.1,1.77,1.72,2.61,3.43,4.68,8.94,7.65,14.73,7.95,1.7,.09,3.4-.04,5.2-.18,1.68-.13,3.42-.26,5.18-.2-6.07-.97-12.36-1.17-18.03-3.83,6.1,1.23,12.71,1.49,18.6,3.86,1.15,.07,2.24,.23,3.25,.5-2.06-1.34-3.98-2.9-5.57-4.8,2.08,1.47,4.14,3.16,6.02,4.93,.24,.07,.48,.13,.71,.21-.14-.18-.28-.35-.41-.53-1.5-1.9-3.03-3.86-3.43-6.49-.11-.17-.23-.33-.33-.5-3.18-5.19-4.55-11.3-5.12-17.31-.06-.59-.11-1.15-.18-1.74,.31,.98,.66,2.3,.95,3.42,1.43,4.84,2.66,9.48,4.54,14.19,0-1.29,.14-2.55,.28-3.79,.08-.72,.16-1.45,.21-2.18,.14-2,.04-4.04-.3-6.07-1.56-9.29-8.06-18.04-16.96-22.82-9.24-4.97-20.83-6.17-32.84-3.48l-.05,.13Zm2.87,5.51c2.36,4.31,4.73,9.15,6.56,13.86-2.93-4.23-5.27-8.86-6.56-13.86Zm5.75,4.34c.46,.58,.82,1.24,1.08,1.94-.4-.51-.8-1.28-1.08-1.94Zm16.34,17.76c.05,.09,.08,.16,.09,.25-.02-.09-.04-.17-.09-.25Zm19.75,12.53c-7.72-6.19-13.65-14.21-19.53-22.07,6.33,5.08,13.61,14.81,19.53,22.07Zm-32.38-37.32c6.55,1.44,13.45,4.25,18.81,8.62-6.08-3.04-12.65-5.56-18.81-8.62Zm12.7,.82c-2.05-.89-4.15-1.14-6.42-1.4-4.76-.41-9.45-1.24-14.18-1.87,6.55-.33,14.59-.35,20.6,3.27Z"/>
      <path class="cls-2" d="M84.34,48.58c-1.39-6.98-1.82-14.2-1.13-21.3,.47-4.61,1.65-9.44,2.76-13.95-.08-.27-.18-.54-.26-.81-1.33,3.85-3.33,6.96-5.99,9.32-.81,.72-1.71,1.4-2.62,2.09-2.58,1.96-5.02,3.82-5.13,6.41-.04,.98,.33,2.24,.7,3.4,.28,.89,.56,1.77,.7,2.64,.2,1.22,.15,2.3-.18,3.3-.61,1.88-2.07,3.11-3.34,4.19-.69,.58-1.34,1.13-1.83,1.74-1.93,2.38-1.62,6.01-1.13,8.91,.1,.57,.2,1.14,.31,1.69l1.76,8.93c.27,1.33,.54,2.71,1.17,3.76,.53,.89,1.35,1.66,2.21,2.48l.32,.31c1.01,.96,1.98,1.95,2.91,2.98-.81-1-1.53-2.08-2.23-3.14-3.59-5.43-4.98-11.99-4.57-18.43,.05-.94,.09-1.88,.16-2.82,.14,1.14,.33,2.89,.54,4.24,1.07,7.49,2.89,13,6.66,19.85,.62,.95,1.23,2.12,2.34,2.98-.8-.51-1.5-1.14-2.15-1.84,4.93,5.71,8.55,12.4,10.4,19.2,.89-11.81,1.23-22.49-.43-33.92,3.99,11.15,3.68,23.59,.73,35.11,.22,.91,.41,1.81,.57,2.72,0,.05,.02,.1,.03,.15,8.55-4.58,15.11-13.63,17.32-24.12,2.11-10.02,.47-21.49-4.57-32.33-1.68-3.59-3.74-7.23-5.73-10.75-2.94-5.19-5.93-10.5-7.93-16.02-1.36,10.97-2.89,21.94-2.37,33.02Zm-7.32-.64c-.16-3.55,.39-7.09,1.49-10.46-.27,3.4-.96,7.02-1.49,10.46Zm12.85,49.43c1.3-5.88,2.32-11.95,4.07-17.78-.3,5.98-1.46,12.26-4.07,17.78Zm3.99-55.07c1.47,2.61,2.58,5.7,3.44,8.65-1.37-2.8-2.64-5.62-3.44-8.65Zm-1-10.31c2.62,4.14,4.49,8.69,6.89,12.93-5.17-6.55-9.39-13.9-12.35-21.7,2.01,3.41,3.25,5.1,5.45,8.78Z"/>
      <path class="cls-2" d="M356.13,363.81c-3.74-2.99-7.5-5.99-11.36-8.8-.93-.62-1.8-1.2-2.73-1.68-.27,.75-.45,1.53-.59,2.31,7.35,3.25,13.84,8.17,19.51,13.81,2.09,2.15,4.02,4.39,5.92,6.68-1.28-1.95-2.48-3.96-3.63-5.95,4.61,5.11,8.13,11.07,12.74,16.19-.46-.33-.9-.71-1.34-1.08,.19,.22,.37,.44,.56,.64,.52,.56,1.04,1.13,1.55,1.67-.89-.73-2.16-1.83-3.16-2.73-11.52-10.54-19.34-21.35-32.17-29.14-.56,3.41,.1,6.94,1.94,9.28,.36,.45,.77,.88,1.18,1.32,.68,.73,1.39,1.48,1.98,2.38,1.53,2.35,1.83,4.9,2.17,7.18l.22,1.44c.77,4.6,3.08,12.77,9.84,15.93,1.01,.47,2.09,.82,3.23,1.18,1.19,.38,2.42,.77,3.61,1.33,2.42,1.12,4.41,2.8,6.35,4.42,.95,.8,1.9,1.6,2.9,2.32,1.55,1.13,5.54,3.61,9.04,2.27,.85-.32,1.65-.86,2.5-1.43,.37-.25,.75-.5,1.12-.74,4.85-3.02,11.02-3.7,16.44-2.04-1.57-2.09-3.75-3.89-6.02-5.76-1.39-1.15-2.83-2.33-4.13-3.6-4.34-4.22-7.54-9.9-9.26-16.4-.19-.72-.37-1.46-.55-2.2-.45-1.88-.88-3.66-1.63-5.29-2.73-5.86-9.19-9.05-16.14-12.06-4.02-1.74-8.18-3.54-12.53-4.2-4.41-.67-8.59,.07-11.56,2.04,5.69,1.73,10.25,6.21,13.99,10.73Zm42.6,34.02c-5.63-1.83-10.91-4.63-15.99-7.68,5.58,1.98,10.96,4.56,15.99,7.68Zm3.89,2.05c-10.63-2.23-22.06-2.95-31.52-8.48,10.08,3.45,21.27,4.02,31.52,8.48Z"/>
      <path class="cls-2" d="M132.13,102.49c-3.42,7.52-7.73,14.59-12.87,21.07,7.34-2.69,14.66-5.5,22.36-7.05-7.49,3.28-15.15,6.5-23.2,8.09-.25,.31-.49,.62-.74,.92,2.57,.8,5.04,1.56,7.45,2.3l1.73,.54c8.62,.61,16.67-.33,25.6-2.26,.8-.18,1.62-.36,2.42-.56-.38,.17-.83,.38-1.24,.56-7.77,3.55-16.59,4.7-24.93,2.84l4.15,1.28c8.58,2.6,17.55,4.79,24.58,.74,2.41-1.38,4.43-3.42,6.57-5.58,3.09-3.12,6.28-6.34,10.76-7.46,1.79-.45,3.61-.5,5.37-.55,2.13-.06,4.14-.11,5.89-.86,3.97-1.72,5.64-5.02,7.74-9.2l.19-.38c1.22-2.42,2.82-4.4,4.62-5.76l-.39-.12c-9.28,2.18-18.47,4.78-27.99,5.78,8.69-2.84,17.99-5.55,27.42-5.95l-.62-.19,1.34-.34c-.06-.04-.12-.08-.18-.11-1.49-.95-3.03-1.93-5.08-2.41-1.41-.33-5.09,.21-7.54,.57-1.06,.16-2.01,.29-2.67,.36-.84,.08-1.7,.31-2.61,.56-.56,.15-1.13,.3-1.7,.42-6.85,1.41-13.24-1.66-19.41-4.63-.99-.48-1.97-.95-2.95-1.4-3.11-1.43-13.72-5.64-19.42,.17-1.63,1.68-2.6,3.93-3.62,6.31l-.27,.62c-.04,.09-.08,.18-.12,.27,4.82-3.88,10.58-6.57,16.46-8.41-5.6,3.28-11.61,6.37-17.11,9.83Zm3.27,9.01c-3.19,1.85-6.05,3.32-8.82,5.75,5.79-6.81,14.22-10.97,22.5-13.97-4.61,2.64-9.05,5.61-13.68,8.23Zm29.18-1.81c-3.48,.68-6.96,1.37-10.47,1.84,3.26-1.31,6.9-2.05,10.47-1.84Z"/>
      <path class="cls-2" d="M129.09,162.46c-.26,.3-.54,1.15-.42,3.51,.1,1.82,.24,3.96,.59,6.03,.74,4.43,2.22,7.34,4.63,9.15,1.45,1.08,3.23,1.72,5.11,2.39,1.93,.69,3.94,1.41,5.71,2.67,1.53,1.09,2.74,2.47,3.9,3.81,1.45,1.66,2.82,3.22,4.59,4,1.72,.75,3.76,.74,5.93,.73,2.75-.02,5.58-.03,8.1,1.52,.98,.6,1.76,1.36,2.51,2.09,.63,.61,1.22,1.19,1.87,1.61,3.13,2.06,7.62,.55,10.01-.53,.85-.39,1.7-.81,2.55-1.23,2.69-1.34,5.46-2.72,8.58-3.08-1.03-.31-2.06-.63-3.06-1.01-6.96-2.59-13.24-7.28-17.68-13.22-1.98-2.65-3.64-5.56-5.25-8.38-2.72-4.79-5.29-9.31-9.3-12.56-7.34-5.96-19.22-5.48-26.4,.61,5.6,1.06,14.98,8.36,18.9,13.57-5.1-4.29-10.82-7.94-16.32-11.72-.9-.65-1.94-1.1-3.05-1.46-.52,.47-1.02,.97-1.48,1.5Zm45.16,28.87c-5.3-2.56-9.74-6.71-13.92-10.9,4.65,2.75,9.47,7.38,13.92,10.9Zm-12.09-10.82c-2.55-1.94-5.22-3.75-7.66-5.83,2.84,1.38,5.65,3.3,7.66,5.83Zm2.7,8.96c-5.46-1.89-10.62-4.6-15.31-7.97,5.01,1.9,10.49,5.03,15.31,7.97Z"/>
      <path class="cls-2" d="M5.76,180.27c3.58-13.74,1.3-28.94-5.76-41.28v46.89c.97-.97,1.94-1.95,2.92-2.91,.94-.91,1.89-1.81,2.84-2.7Z"/>
      <path class="cls-2" d="M173.79,381.46l-.48-.29-.05-.15c-7.7,13.52-14.7,27.67-26.04,38.64,9.29-12.56,16.19-26.8,25.87-39.09-.33-.76-2.18-2.95-5.31-4.43-1.94-.92-4.92-1.79-8.04-.66-2.7,.97-4.73,3.22-6.87,5.6-1.28,1.42-2.6,2.89-4.13,4.14-.64,.52-1.32,1-2,1.49-1.16,.82-2.25,1.6-3.11,2.56-2.28,2.53-2.89,6.31-3.43,9.65l-4.35,27.25c-.14,.88-.5,3.26-2.51,4.07-.79,.33-1.57,.28-2.19,.23-.19-.01-.38-.03-.57-.03-1.99,.02-3.45,2.55-4.02,5.05l-.28,1.32c-.24,1.17-.5,2.41-.91,3.6l25.82-8.9c4.72-1.63,9.6-3.31,13.55-6.36,5.67-4.38,9.04-11.4,12.02-17.59,1.98-4.14,4.23-8.84,4.17-13.6-.01-.71-.08-1.42-.19-2.13-.72-4.3-3.33-8.18-6.97-10.37Zm-5.54-3.75c-1.67,2.09-3.33,4.18-5.26,6.04,1.3-2.1,3.23-4.37,5.26-6.04Zm-9.15,41.93c1.93-2.88,4.52-5.62,7.07-8.07-1.96,3.01-4.38,5.71-7.07,8.07Zm14.42-33.32c.19-.53,.52-1.17,.86-1.7-.21,.6-.51,1.17-.86,1.7Z"/>
      <path class="cls-2" d="M424.79,346.29c.24,.04,.47,.1,.7,.16-.05-.03-.1-.07-.14-.1-.18-.02-.38-.04-.56-.06Z"/>
      <path class="cls-2" d="M391.66,315.07c.32,.51,.64,1.02,.97,1.55-.52-.56-1.2-1.37-1.79-2.01-2.57-2.97-4.86-5.36-7.32-7.63-5.48-3.03-11.73-5.76-17.44-9.07,3.62,6.52,6.84,13.38,9.97,20.07l.59,1.26c1.46,3.17,2.98,6.11,5.56,7.44,.69,.36,1.42,.59,2.16,.83,1.23,.41,2.51,.82,3.67,1.68,1.94,1.43,2.89,3.62,3.73,5.56,.21,.48,.41,.96,.63,1.42,2.77,5.77,8.69,9.85,15.07,10.39,2.41,.21,5.03-.03,7.58-.26,1.82-.16,3.66-.32,5.47-.34-2.9-.19-6.05-.4-8.68-.98-4.92-1.01-9.51-3.2-14.15-5.07,4.49,.95,10.31,2.52,14.11,3.5,4.64,1.01,9.06,1.57,13.54,2.93-4.71-3.21-9.78-6.03-14.22-9.6-2.6-2.15-4.86-4.69-6.96-7.33-.33-.38-.62-.82-1.01-1.16-.05-.02-.09,.03-.05,.07-.02-.03-.06-.07-.03-.11,.04-.04,.07-.01,.11,.01,2.2,1.73,4.19,3.74,6.42,5.43,5.43,4.08,11.3,7.61,16.24,12.27-.78-1.1-1.66-2.17-2.56-3.26-1.12-1.36-2.28-2.76-3.27-4.27-3.38-5.15-4.6-11.14-5.48-16.36l-1.01-6.28c-.86-5.14-2.07-11.02-5.43-15.73-1.6-2.23-3.33-3.58-5.14-3.99-1.54-.35-3.23-.05-5.02,.26l-.68,.12c-6.99,1.2-14.1,1.19-21.13-.05-1.24-.22-2.48-.47-3.73-.73-1.34-.28-2.65-.54-3.95-.76,3.27,1.46,6.5,2.99,9.47,5,5.71,3.92,10.2,9.33,13.77,15.21Z"/>
      <path class="cls-2" d="M402.18,246.88c5.66-.97,11.28-2.14,16.89-3.41,5.3-.87,10.64-1.36,15.95-2.07-2.08-.24-4.13-.76-6.04-1.56-2.52-1.05-4.8-2.55-7-3.99-.82-.54-1.64-1.08-2.47-1.59-6.43-4.01-12.74-6-18.75-5.9-6.9,.11-13.24,3.31-16.55,8.35-.82,1.26-1.5,2.64-2.21,4.11-1.46,3.02-2.98,6.15-5.93,8.15-.3,.2-.61,.39-.91,.57-.5,.3-.97,.58-1.32,.9-.88,.83-1.3,2.16-1.74,3.58l-.3,.94c-.74,2.25-1.8,4.36-2.65,6.05-.25,.49-.52,1.03-.75,1.51,.1,.03,.2,.05,.3,.08,4.37-3.69,9.7-6.24,15.04-8.23-4.5,3.07-9.74,5.65-14.67,8.33,11.88,3.38,24.94-.57,38.39-5.34,5.7-2.02,11.4-4.04,17.09-6.08,1.43-.51,2.57-.98,3.13-1.82,.15-.24,.27-.51,.4-.78,.23-.5,.49-1.06,.92-1.59,1.35-1.63,3.39-1.84,5.02-2.02,.55-.06,1.11-.11,1.63-.23,1.73-.38,3.2-1.73,3.85-3.37-.63,.05-1.27,.07-1.91,.07-5.87,1.83-12.06,2.97-18.18,3.78-5.7,1.08-11.45,1.56-17.26,1.55Zm-13.67,6.75c2.28-1.28,4.74-2.22,7.27-2.82-2.09,1.17-4.79,2.18-7.27,2.82Z"/>
      <path class="cls-3" d="M173.02,242.36c-4.8-1.72-9.67-3.29-14.63-4.67-6.19-1.72-12.51-3.11-18.93-4.21-1.47,.69-2.93,1.38-4.38,2.06l-1.42-2.75c.12-.06,.24-.11,.36-.17-41.85-6.02-88.01,.63-134.01,19.32v3.34c54.88-22.55,110-27.8,157.56-14.61,4.83,1.34,9.58,2.87,14.26,4.54-.28-.28-.56-.57-.84-.86l2.04-2.01Z"/>
      <path class="cls-3" d="M339.48,351.33l.09-.22,.36-.26c.72-.52,1.5-.96,2.31-1.35l-66.69-47.45c-1.2-.85-2.4-1.71-3.61-2.57,1.01,1.93,1.97,3.88,2.89,5.85l64.65,46Z"/>
      <path class="cls-3" d="M218.56,264.07s.03,0,.04,0c-14.4-8.4-29.33-15.84-45.07-21.53,1.69,1.72,3.41,3.47,5.14,5.26,32.81,12.99,62.28,33.45,90.85,53.75-.14-.27-.27-.55-.41-.83l2.64-1.39c-15.16-10.78-30.57-21.61-46.61-31.38-2.26-.37-4.52-.65-6.8-.82l.22-3.08Z"/>
      <path class="cls-3" d="M135.08,235.54c1.45-.68,2.91-1.37,4.38-2.06,22.83-10.69,48.27-22.03,73.3-23.58,14.7-.91,29.64,1.28,44.09,3.41,7.55,1.11,15.35,2.26,23.07,2.96,28.05,2.55,49.77-2.48,64.59-14.9-1.6-.02-2.53-.72-2.96-1.58-14.15,11.29-34.76,15.81-61.34,13.39-7.64-.69-15.4-1.83-22.91-2.93-4.9-.72-9.85-1.44-14.84-2.06-2.07,.84-4.1,1.62-6.03,2.33l-1.08-2.9c.16-.06,.31-.12,.46-.17-7.72-.75-15.49-1.12-23.24-.64-27.1,1.68-54.37,14.44-78.56,25.81-.12,.06-.24,.11-.36,.17l1.42,2.75Z"/>
      <path class="cls-3" d="M236.43,210.52c1.94-.72,3.96-1.5,6.03-2.33,17.26-6.97,38.3-18.27,48.23-38.39l-.4,.08-.59-.99c-.35-.66-.69-1.31-1.01-1.96l-.04-.02c-7.74,17.08-24.54,29.97-52.84,40.54-.15,.06-.3,.12-.46,.17l1.08,2.9Z"/>
      <path class="cls-3" d="M337.7,284.69c.15-.08,.3-.17,.45-.25-4.62-.82-9.29-1.31-13.96-1.44-4.71-.13-9.48,.09-14.1,.31-6.01,.28-12.22,.57-18.25,.06-12.28-1.02-24.25-5.35-35.84-9.53-12.01-4.34-24.43-8.83-37.39-9.76-.01,0-.03,0-.04,0l-.22,3.08c2.28,.16,4.54,.44,6.8,.82,10.18,1.68,20.13,5.27,29.81,8.77,11.77,4.25,23.94,8.65,36.63,9.71,6.23,.52,12.55,.23,18.66-.05,4.56-.21,9.27-.43,13.87-.3,12.58,.35,25.17,3.35,36.57,8.7-.22-.36-.43-.73-.65-1.09l-1.33-2.14,1.98-.17c-5.74-2.59-11.76-4.61-17.91-6.02-1.18,.69-2.38,1.38-3.61,2.04l-1.47-2.72Z"/>
      <path class="cls-3" d="M173.19,242.19l-.17,.17-2.04,2.01c.28,.28,.56,.57,.84,.86,13.81,14.03,29.32,30.53,40.77,49.52,0-.12-.01-.24-.02-.36l3.08-.25c.18,2.14,.26,4.29,.28,6.45,7.77,14.37,15.35,34.45,13.92,56.46-.83,12.96-4.76,25.94-8.55,38.49-4.98,16.47-10.1,33.46-8.26,50.57l.02-.03,1.27,1.53c.81,.98,1.63,1.97,2.44,2.96h.04c-.09-.45-.16-.89-.24-1.33-2.96-17.62,2.22-34.73,7.69-52.82,3.37-11.14,6.84-22.61,8.22-34.23-.7-1.06-1.4-2.12-2.09-3.18l2.53-1.63s0-.09,.01-.14c1.32-20.4-4.72-42.46-17.5-63.78-10.37-17.3-24.01-32.49-36.77-45.66-1.73-1.79-3.45-3.54-5.14-5.26-.11-.12-.23-.23-.34-.35Z"/>
      <path class="cls-3" d="M232.49,362.19c.26,.4,.52,.8,.78,1.19,4.03,6.08,8.2,12.37,10.57,19.27,2.75,7.98,3.08,16.73,3.41,25.19,.08,2.14,.17,4.29,.28,6.42,.55,9.7,2.13,21.97,9.53,31.02,0-.15,0-.31,0-.45l.08-.78,.68-.4c.43-.26,.87-.5,1.31-.74-6.55-8.32-8-19.73-8.51-28.82-.12-2.11-.2-4.24-.28-6.37-.33-8.69-.67-17.66-3.58-26.08-2.5-7.27-6.78-13.73-10.92-19.97-.96-1.44-1.91-2.88-2.84-4.34l-.07,.04-2.53,1.63c.68,1.06,1.39,2.12,2.09,3.18Z"/>
      <path class="cls-3" d="M215.65,294.13l-3.08,.25c0,.12,.01,.24,.02,.36,2.43,31.43-13.28,65.21-38.3,82.32,.67,.71,1.19,1.4,1.5,2.01,.18,.11,.34,.24,.51,.36,24.13-16.66,39.82-48.29,39.62-78.84-.01-2.16-.1-4.31-.28-6.45Z"/>
      <path class="cls-3" d="M114.94,127.92c-.14-.04-.28-.09-.42-.13l-2.27-.71,1.56-1.79c.11-.12,.21-.25,.32-.38-11.07,1.77-22.13,4.66-33.03,8.58-1.08,1.62-2.27,3.18-3.57,4.65,12.31-4.79,24.86-8.24,37.41-10.22Z"/>
      <path class="cls-3" d="M5.7,180.56c.03-.1,.04-.19,.07-.29-.95,.89-1.9,1.79-2.84,2.7-.98,.95-1.95,1.94-2.92,2.91v4.36c1.67-1.71,3.36-3.39,5.07-5.04,11.93-11.54,24.87-21.61,38.44-30.01l-.83-2.87c3.2-.93,6.44-1.7,9.7-2.33,8.19-4.55,16.56-8.49,25.06-11.8l-2.27-2.03c.17-.19,.33-.4,.5-.59-23.41,9.22-45.92,23.19-65.96,41.11-.27,1.58-.61,3.14-1.02,4.69l-2.99-.8Z"/>
      <path class="cls-3" d="M43.51,155.18l.03,.1c27.12-7.84,56.99-4.78,81.93,8.4l.15-.29c.12-.99,.38-1.91,.9-2.65-22.63-11.83-49.13-15.6-74.15-10.76-3.26,.63-6.5,1.4-9.7,2.33l.83,2.87Z"/>
      <path class="cls-3" d="M84.56,99.29l-.2,.05c.2,.83,.37,1.67,.52,2.51l-.06-.57c-.07-.66-.16-1.32-.27-1.99Z"/>
      <path class="cls-3" d="M77.44,138.18l.03,.03s.04-.04,.06-.07c1.3-1.47,2.49-3.02,3.57-4.65,6.12-9.16,8.66-20.58,6.93-31.48-.35,.17-.69,.35-1.04,.51l-1.89,.83c1.55,11.44-1.89,23.4-9.44,32.19-.17,.2-.32,.4-.5,.59l2.27,2.03Z"/>
      <path class="cls-3" d="M5.76,180.27c-.03,.1-.04,.19-.07,.29l2.99,.8c.41-1.55,.75-3.11,1.02-4.69,2.59-14.97-1.03-31.05-9.71-43.5v5.83c7.06,12.34,9.34,27.54,5.76,41.28Z"/>
      <path class="cls-3" d="M174.3,377.06c-1.24-1.32-3.03-2.7-5.19-3.72-2.48-1.18-6.29-2.26-10.42-.77-3.44,1.23-5.82,3.88-8.12,6.44-1.26,1.4-2.45,2.72-3.78,3.82-.59,.48-1.21,.92-1.84,1.36-1.24,.89-2.53,1.8-3.62,3.02-2.88,3.2-3.6,7.65-4.18,11.23l-4.35,27.27c-.22,1.45-.54,1.65-.62,1.68-.13,.05-.49,.03-.78,0-.29-.02-.58-.04-.85-.03-3.89,.05-6.16,3.88-6.98,7.46l-.29,1.38c-.5,2.4-.97,4.67-2.52,5.92l-6.86,5.55,38.34-13.22c4.72-1.63,10.08-3.47,14.44-6.84,6.25-4.83,9.79-12.19,12.92-18.7,2.13-4.45,4.54-9.5,4.48-14.98-.09-5.74-3.12-11.28-7.73-14.49-.17-.12-.34-.24-.51-.36-.32-.61-.84-1.3-1.5-2.01Zm6.46,14.77c.12,.71,.18,1.42,.19,2.13,.06,4.76-2.19,9.46-4.17,13.6-2.98,6.19-6.35,13.2-12.02,17.59-3.95,3.06-8.83,4.74-13.55,6.36l-25.82,8.9c.41-1.19,.67-2.43,.91-3.6l.28-1.32c.57-2.5,2.04-5.03,4.02-5.05,.19,0,.38,.01,.57,.03,.62,.05,1.39,.1,2.19-.23,2.01-.81,2.37-3.19,2.51-4.07l4.35-27.25c.54-3.34,1.15-7.12,3.43-9.65,.86-.96,1.96-1.74,3.11-2.56,.68-.48,1.35-.96,2-1.49,1.53-1.25,2.85-2.72,4.13-4.14,2.14-2.38,4.16-4.63,6.87-5.6,3.13-1.13,6.1-.26,8.04,.66,3.13,1.48,4.98,3.67,5.31,4.43,.5-.63,1-1.26,1.51-1.88-.45,.77-.89,1.55-1.34,2.33l.05,.15,.48,.29c3.64,2.19,6.25,6.07,6.97,10.37Z"/>
      <path class="cls-3" d="M257.15,444.04l-.08,.78c-.01,.14,0,.3,0,.45-.03,.72,0,1.49,.16,2.39,.68,4.04,3.14,9.48,5.32,14.3l4.95,10.76c1.32,2.86,2.69,5.82,5.01,8.21,2.6,2.66,6.05,4.2,9.09,5.57,10.05,4.48,21.43,9.57,33.44,9.33l1.58-.05c4.53-.14,9.23-.28,11.46,2.78l2.65-1.57c-1.41-2.98-3.83-5.11-6.17-7.17-1.38-1.21-2.68-2.35-3.77-3.65-2.15-2.53-3.56-5.76-4.93-8.89l-.35-.8c-4.47-10.15-9.84-19.96-15.96-29.16-3.47-5.21-7.49-10.21-13.47-11.55-3.25-.76-6.6-.2-9.44,.43-6.1,1.36-11.97,3.62-17.46,6.7-.44,.25-.88,.49-1.31,.74l-.68,.4Zm2.99,1.84c1.05-.6,2.11-1.16,3.19-1.69-.25-.17-.51-.33-.76-.5,.32,.13,.63,.27,.94,.41,1.99-.98,4.03-1.86,6.11-2.62-.05-.03-.11-.07-.16-.1,.07,.02,.13,.06,.2,.08,2.49-.91,5.03-1.66,7.62-2.24,2.5-.56,5.42-1.05,8.08-.43,4.92,1.1,8.47,5.58,11.58,10.25,6.02,9.05,11.31,18.7,15.71,28.69l.35,.8c1.46,3.33,2.97,6.78,5.4,9.65,1.24,1.47,2.69,2.74,4.09,3.97,.27,.24,.54,.48,.81,.71-.74-.1-1.5-.15-2.26-.18,.6,.45,1.2,.89,1.79,1.34,.75,.55,1.51,1.08,2.29,1.59-.22-.07-.53-.22-.8-.35-1.68-.83-3.35-1.7-5.01-2.61-.95,0-1.89,.03-2.81,.05l-1.55,.04c-11.31,.22-22.36-4.71-32.11-9.06-2.92-1.31-5.95-2.67-8.13-4.9-1.95-2.01-3.2-4.72-4.41-7.35l-4.94-10.75c-2.15-4.75-4.83-10.83-5.18-14.33-.12-.17-.25-.33-.36-.49,.11,.11,.23,.21,.35,.32,0-.1-.02-.2-.02-.29Z"/>
      <path class="cls-3" d="M213.06,446.07l-.02,.03-1.15,1.58c-3.4,4.65-7.57,10.02-12.66,14.48l-.26,.23c-1.09,.95-2.34,2.04-3.02,3.55-.54,1.13-.67,2.31-.8,3.39l-1.89,16.3c-.47,4.08-.87,8.4-.19,12.5,.51,3.04,1.55,5.56,3.19,7.67,.71,.92,1.54,1.77,2.37,2.62,1.55,1.57,3.01,3.06,3.38,5.01,.21,1.26-.1,2.65-.43,4.11-.38,1.69-.77,3.43-.41,5.55,0,0,0,.02,0,.03,.73,3.51,3.72,5.62,6.35,7.48,2.35,1.66,4.58,3.23,5.11,5.51l1.79,7.61,1.24-7.72c1.69-10.53,5.19-20.6,10.39-29.91,.42-.75,.85-1.5,1.28-2.25,1.53-2.65,3.1-5.4,4.16-8.4,2.73-7.73,1.86-17.2-2.33-26.27-3.16-6.87-7.75-12.86-12.42-18.59-.81-.99-1.63-1.98-2.44-2.96l-1.27-1.53Zm15.54,48.32c-.96,2.73-2.4,5.23-3.92,7.89-.44,.76-.87,1.52-1.3,2.29-4.6,8.24-7.9,17.05-9.86,26.24,.09,1.03,.19,2.06,.35,3.09-.35-.96-.62-1.93-.85-2.91-1.13-1.11-2.44-2.06-3.69-2.94-2.38-1.68-4.62-3.26-5.14-5.75-.21-1.26,.1-2.64,.43-4.11,.38-1.69,.77-3.44,.43-5.47,0,0,0,0,0,0-.53-2.76-2.39-4.65-4.2-6.48-.74-.76-1.49-1.51-2.13-2.34-1.32-1.71-2.17-3.76-2.59-6.29-.62-3.69-.24-7.77,.21-11.63l1.89-16.33c.1-.88,.2-1.72,.53-2.42,.42-.93,1.3-1.7,2.24-2.52l.27-.24c4.73-4.15,8.65-8.98,11.93-13.38,4.95,6,9.91,12.25,13.18,19.35,3.85,8.33,4.68,16.97,2.22,23.95Z"/>
      <path class="cls-3" d="M339.57,351.11l-.09,.22-.08,.19c-1.21,2.95-1.59,6.24-1.08,9.27,.39,2.31,1.3,4.43,2.64,6.13,.42,.52,.88,1.01,1.34,1.51,.62,.66,1.21,1.29,1.65,1.96,.86,1.33,1.21,2.91,1.47,4.42l.46,3.01c.87,5.19,3.54,14.47,11.58,18.22,1.19,.55,2.41,.95,3.6,1.33,1.15,.36,2.23,.71,3.24,1.19,2.05,.95,3.81,2.42,5.67,3.98,1,.85,2.01,1.69,3.07,2.46,2.43,1.77,7.22,4.47,11.96,2.66,1.18-.45,2.17-1.11,3.12-1.76,.34-.23,.68-.46,1.03-.67,5.19-3.23,12.19-3.3,17.39-.15l3.47,2.1-1.19-3.87c-1.45-4.72-5.25-7.85-8.92-10.88-1.34-1.11-2.73-2.25-3.94-3.43-3.94-3.83-6.85-9.01-8.43-14.99-.19-.7-.36-1.41-.53-2.12-.46-1.95-.95-3.96-1.83-5.88-3.19-6.84-10.5-10.47-17.72-13.59-4.2-1.82-8.55-3.7-13.29-4.42-4.42-.67-8.55-.12-11.92,1.51-.81,.39-1.6,.83-2.31,1.35l-.36,.26Zm14.13-.07c4.35,.66,8.51,2.46,12.53,4.2,6.95,3.01,13.41,6.2,16.14,12.06,.76,1.63,1.18,3.41,1.63,5.29,.18,.74,.36,1.48,.55,2.2,1.72,6.5,4.92,12.18,9.26,16.4,1.3,1.27,2.74,2.46,4.13,3.6,2.27,1.87,4.45,3.67,6.02,5.76-5.42-1.67-11.59-.98-16.44,2.04-.38,.24-.75,.49-1.12,.74-.85,.57-1.65,1.11-2.5,1.43-3.5,1.34-7.49-1.14-9.04-2.27-1-.73-1.95-1.53-2.9-2.32-1.93-1.62-3.92-3.3-6.35-4.42-1.19-.56-2.42-.95-3.61-1.33-1.14-.37-2.22-.71-3.23-1.18-6.76-3.16-9.07-11.34-9.84-15.93l-.22-1.44c-.34-2.28-.65-4.83-2.17-7.18-.59-.9-1.3-1.66-1.98-2.38-.41-.43-.81-.87-1.18-1.32-1.84-2.34-2.5-5.87-1.94-9.28-.18-.11-.35-.22-.52-.33,.18,.08,.36,.17,.54,.25,.13-.78,.32-1.56,.59-2.31-.44-.23-.89-.45-1.37-.63,.5,.11,.99,.24,1.47,.39,2.97-1.97,7.15-2.71,11.56-2.04Z"/>
      <path class="cls-3" d="M360.03,293.7c.22,.36,.44,.73,.65,1.09,4.69,7.72,8.69,16.24,12.56,24.5l.59,1.25c1.69,3.67,3.49,7.11,6.94,8.88,.86,.45,1.75,.74,2.61,1.03,1.05,.34,2.04,.67,2.8,1.23,1.26,.93,1.97,2.57,2.73,4.29,.22,.51,.44,1.02,.68,1.52,3.24,6.74,10.14,11.51,17.6,12.13,2.67,.23,5.44-.02,8.12-.26,5.08-.46,9.88-.89,13.35,1.93l3.74,3.04-1.27-4.65c-.97-3.55-3.26-6.33-5.48-9.02-1.12-1.35-2.17-2.63-3.07-4-2.75-4.18-3.99-9.09-5.01-15.17l-1.01-6.28c-.92-5.48-2.21-11.77-5.97-17.02-2.06-2.86-4.39-4.61-6.96-5.21-2.15-.48-4.23-.12-6.24,.23l-.67,.11c-6.65,1.15-13.4,1.13-20.07-.04-1.21-.21-2.42-.46-3.64-.71-3.82-.79-7.76-1.6-11.8-1.25l-.53,.05-1.98,.17,1.33,2.14Zm2.77-1.36c1.86,.87,3.75,1.68,5.63,2.52,1.3,.22,2.61,.49,3.95,.76,1.25,.26,2.49,.51,3.73,.73,7.02,1.23,14.13,1.25,21.13,.05l.68-.12c1.79-.31,3.48-.6,5.02-.26,1.8,.42,3.53,1.76,5.14,3.99,3.37,4.71,4.57,10.59,5.43,15.73l1.01,6.28c.88,5.22,2.09,11.21,5.48,16.36,.99,1.51,2.15,2.91,3.27,4.27,.9,1.1,1.78,2.17,2.56,3.26,.87,.82,1.72,1.67,2.53,2.57-.92-.71-1.88-1.37-2.85-2.03-.23-.06-.47-.11-.7-.16-1.29-.14-2.75-.24-4.29-.34-1.81,.01-3.65,.18-5.47,.34-2.54,.23-5.17,.46-7.58,.26-6.38-.54-12.3-4.62-15.07-10.39-.22-.46-.43-.94-.63-1.42-.84-1.93-1.79-4.13-3.73-5.56-1.16-.85-2.43-1.27-3.67-1.68-.74-.24-1.48-.48-2.16-.83-2.58-1.33-4.1-4.27-5.56-7.44l-.59-1.26c-3.13-6.69-6.36-13.55-9.97-20.07-.93-.54-1.86-1.1-2.76-1.67,.77,.29,1.55,.59,2.32,.89-.52-.93-1.05-1.85-1.59-2.76,.69,.03,1.37,.08,2.06,.16-1.12-.7-2.23-1.43-3.31-2.19Z"/>
      <path class="cls-3" d="M364.7,264.51l.19-1.25c.01-.07,.04-.16,.06-.24l-.05-.03c-5.51,7.37-15.24,15.17-26.75,21.45-.15,.08-.3,.17-.45,.25l1.47,2.72c1.22-.66,2.42-1.34,3.61-2.04,10.28-6.02,18.95-13.19,24.24-20.07-.38-.12-.76-.23-1.13-.36l-1.18-.43Z"/>
      <path class="cls-3" d="M344.51,201.36c.11,0,.21,.01,.32,0,3.31-.16,6.87,.34,10.31,.82,6.91,.96,14.06,1.95,20.01-2.08,1.14-.78,2.14-1.69,3.11-2.57,.99-.91,1.93-1.76,2.97-2.44,1.88-1.23,4.11-1.88,6.47-2.57,2.87-.84,5.85-1.71,8.32-3.71,.48-.39,.94-.82,1.4-1.26,.94-.89,1.83-1.73,2.84-2.01,.81-.22,1.8-.11,2.85,.01,1.62,.19,3.45,.4,5.14-.6,1.66-.97,2.39-2.65,3.03-4.14,.18-.43,.37-.85,.58-1.26,1.43-2.77,4.28-4.5,7.3-6.33,3.21-1.94,6.53-3.96,8.39-7.42l2.83-5.28-5.03,3.25c-3.48,2.25-8.4,.14-11.03-1.31-.69-.38-1.37-.78-2.06-1.18-3.35-1.95-6.8-3.98-10.85-4.04-.51-.01-1.02,.01-1.52,.04-.73,.04-1.42,.07-2.05-.02-1.26-.18-2.47-.9-3.75-1.65-1.29-.76-2.63-1.55-4.21-1.92-4.12-.98-7.64,1.11-11.04,3.14-2.3,1.37-4.47,2.66-6.75,3.03-.93,.15-1.91,.15-2.95,.15-1.44,0-2.93,0-4.45,.41-3.04,.82-5.29,3.1-7.09,5.2-6.24,7.31-10.57,16.33-12.44,25.77,1.23-.96,2.49-1.88,3.8-2.72,2.05-7.71,5.83-15,11-21.05,1.49-1.75,3.32-3.62,5.54-4.22,1.12-.3,2.34-.3,3.64-.3,1.11,0,2.26,0,3.44-.19,2.87-.47,5.39-1.98,7.84-3.43,3-1.79,5.84-3.48,8.74-2.79,1.13,.27,2.21,.91,3.36,1.58,1.48,.87,3.01,1.77,4.87,2.04,.93,.14,1.81,.09,2.66,.05,.44-.02,.87-.04,1.31-.04,3.24,.05,6.2,1.78,9.34,3.62,.7,.41,1.41,.82,2.12,1.22,1.5,.83,2.96,1.46,4.37,1.91,2.02-.21,4.06-.31,6.14-.29-1.45,.2-2.89,.46-4.32,.75,.93,.19,1.84,.29,2.71,.3-1.25,.98-2.68,1.84-4.15,2.73-3.25,1.97-6.62,4.01-8.44,7.55-.24,.46-.46,.95-.67,1.45-.5,1.15-.96,2.24-1.76,2.7-.8,.47-1.92,.34-3.21,.19-1.24-.14-2.64-.3-4.02,.08-1.76,.48-3.03,1.68-4.15,2.74-.4,.38-.8,.76-1.22,1.1-1.99,1.61-4.54,2.36-7.24,3.15-2.47,.72-5.03,1.47-7.29,2.95-1.26,.81-2.33,1.8-3.37,2.75-.92,.84-1.8,1.64-2.76,2.29-4.96,3.37-11.22,2.5-17.85,1.58-2.86-.4-5.79-.8-8.68-.86-.75,.11-1.49,.2-2.24,.25,.27-.09,.54-.17,.81-.25-.26,0-.52,0-.78,.02-.11,0-.2,0-.28,0,.08-.17,.22-.39,.44-.6,.15-.14,.56-.46,1-.42l1.52,.16,.17-1.4c-.75,.34-1.5,.67-2.23,1,.76-.56,1.53-1.1,2.31-1.63,.26-1.98,.63-3.96,1.12-5.9-1.17,.71-2.37,1.37-3.6,1.92-.19,.97-.37,1.94-.51,2.92-.78,.22-1.53,.68-2.15,1.34-.93,1-1.39,2.24-1.2,3.34,.04,.26,.13,.52,.26,.77,.43,.85,1.36,1.56,2.96,1.58Z"/>
      <path class="cls-3" d="M441.15,238.14c-3.66,.69-7.56,.28-10.99-1.16-2.26-.94-4.31-2.29-6.49-3.72-.84-.55-1.69-1.11-2.54-1.64-6.94-4.33-13.81-6.47-20.43-6.36-7.91,.13-15.22,3.86-19.09,9.74-.93,1.42-1.68,2.97-2.4,4.46-1.35,2.78-2.61,5.41-4.87,6.94-.25,.17-.51,.32-.77,.48-.59,.35-1.27,.75-1.85,1.3-1.48,1.39-2.06,3.27-2.57,4.92l-.28,.89c-.66,2.03-1.67,4.03-2.48,5.62-.73,1.46-1.27,2.53-1.45,3.4-.02,.08-.05,.17-.06,.24l-.19,1.25,1.18,.43c.38,.14,.75,.24,1.13,.36,13.09,4.28,27.1,.09,41.5-5.02,5.7-2.02,11.4-4.04,17.1-6.08,1.47-.53,3.48-1.25,4.66-3.02,.25-.38,.44-.79,.63-1.2,.17-.38,.32-.71,.5-.92,.54-.65,1.66-.77,2.96-.9,.67-.07,1.34-.15,1.97-.29,3.75-.83,6.61-4.35,6.65-8.2l.02-1.88-1.85,.35Zm-3.54,3.41c.64,0,1.27-.02,1.91-.07-.65,1.64-2.12,2.99-3.85,3.37-.52,.12-1.08,.17-1.63,.23-1.64,.17-3.67,.39-5.02,2.02-.43,.53-.69,1.09-.92,1.59-.12,.27-.25,.55-.4,.78-.56,.84-1.7,1.3-3.13,1.82-5.69,2.04-11.39,4.06-17.09,6.08-13.45,4.77-26.51,8.73-38.39,5.34-.46,.25-.91,.5-1.36,.75,.32-.29,.66-.57,.99-.85-.1-.03-.2-.05-.3-.08,.23-.48,.5-1.02,.75-1.51,.85-1.69,1.92-3.79,2.65-6.05l.3-.94c.44-1.42,.85-2.76,1.74-3.58,.34-.32,.82-.61,1.32-.9,.31-.18,.62-.37,.91-.57,2.95-2,4.46-5.13,5.93-8.15,.71-1.47,1.38-2.86,2.21-4.11,3.31-5.04,9.65-8.24,16.55-8.35,6.01-.1,12.32,1.88,18.75,5.9,.83,.51,1.65,1.05,2.47,1.59,2.2,1.45,4.48,2.94,7,3.99,1.91,.8,3.96,1.32,6.04,1.56,1.89-.25,3.77-.53,5.64-.86-1,.36-2.02,.7-3.04,1.02Z"/>
      <path class="cls-3" d="M269.52,301.55c6.46,12.49,11.03,25.78,13.62,39.56l.06-.08,.89,.11c.78,.1,1.53,.23,2.28,.38-2.27-12.53-6.14-24.68-11.54-36.2-.92-1.97-1.88-3.92-2.89-5.85-.03-.06-.06-.12-.09-.19l-.1,.05-2.64,1.39c.14,.27,.27,.55,.41,.83Z"/>
      <path class="cls-3" d="M290.29,169.88l.4-.08,.72-.13c6.01-1.12,12.23-2.28,17.88-5.04,6.48-3.16,11.21-8.21,13-13.86,.26-.84,.49-1.72,.71-2.62,.78-3.08,1.51-5.98,3.81-6.87,.43-.17,.88-.25,1.33-.34,.51-.1,1.02-.21,1.51-.37,1.99-.64,3.52-2.07,4.92-3.49,4.89-4.98,10.92-11.88,14.19-21.08-1.62,1.83-3.5,3.44-5.57,4.88-3.14,5.79-7.29,10.43-10.82,14.03-1.18,1.19-2.34,2.29-3.68,2.73-.38,.13-.77,.2-1.16,.28-.62,.13-1.24,.26-1.83,.49-3.79,1.46-4.8,5.46-5.7,8.99-.21,.84-.42,1.67-.67,2.45-1.53,4.84-5.68,9.22-11.4,12.01-4.94,2.42-10.52,3.55-16.02,4.58-4.05-7.84-5.79-14.66-5.42-21.05,.39-6.6,4.1-14.77,11.32-17.12,.91-.29,1.86-.5,2.81-.7,2.1-.45,4.27-.93,6.19-2.27,.56-.4,1.07-.86,1.58-1.32,.49-.45,.97-.89,1.52-1.25,1.97-1.26,4.72-1.04,7.39-.84l.36,.03c3.8-.49,7.62-.84,11.46-.94-1.61,.43-3.24,.79-4.88,1.09,2.27-.06,4.54-.25,6.8-.56,.82-.17,1.64-.32,2.47-.44-.06,.02-.12,.05-.18,.07,3.83-.67,7.61-1.67,11.26-3.04-.14,.31-.3,.6-.45,.91,1.65-.95,3.22-2.02,4.72-3.25l1.17-3.34-3.27,1.45c-8.97,3.98-18.87,5.69-28.63,4.97l-.6-.05c-3.02-.23-6.44-.5-9.29,1.32-.71,.45-1.33,1.01-1.94,1.57-.42,.38-.83,.76-1.28,1.08-1.39,.98-3.17,1.36-5.06,1.77-1.04,.23-2.09,.46-3.1,.78-8.65,2.81-13,12.01-13.46,19.88-.14,2.46,0,5.01,.44,7.59,.75,4.45,2.34,9.1,4.86,14.14,.32,.65,.66,1.3,1.01,1.96l.59,.99Z"/>
      <path class="cls-3" d="M283.2,341.04l-.06,.08-.48,.63c-7.86,10.4-11.24,19.28-10.04,26.39,.82,4.86,3.8,8.75,8.64,11.26,2.43,1.27,5.13,2.15,7.74,3,.91,.3,1.82,.6,2.72,.91,1.23,.43,2.62,.96,3.49,1.74,.78,.7,1.22,1.64,1.47,3.14,.11,.65,.17,1.32,.24,1.98,.07,.74,.14,1.47,.26,2.19,.25,1.49,.82,3.67,2.86,5.21,1.53,1.16,3.51,1.67,5.58,2.14l21.37,4.89-5.67-12.04c-1.57-3.32-3.14-6.65-4.7-9.98-1.57-3.36-3.35-7.18-6.13-10.52l-.55-.64c-.61-.71-1.18-1.37-1.55-2.06-.55-1.03-.77-2.61-.91-4.18l-.09-1.03c-.05-.46-.11-.92-.19-1.38-1.46-8.69-8.57-18.69-20.83-21.22-.74-.15-1.5-.29-2.28-.38l-.89-.11Zm21.1,23.42l.09,.97c.17,2,.49,3.93,1.26,5.38,.53,.98,1.24,1.81,1.93,2.62l.51,.61c2.52,3.04,4.21,6.66,5.71,9.85,1.56,3.33,3.12,6.67,4.7,9.99l.23,.49c.77,1,1.53,2,2.28,3.01-.51-.46-1.01-.94-1.52-1.4l1.97,4.18-15.17-3.47c-1.79-.4-3.36-.8-4.4-1.59-.92-.69-1.4-1.64-1.68-3.25-.11-.64-.17-1.31-.24-1.97-.07-.74-.14-1.48-.26-2.2-.23-1.37-.73-3.37-2.44-4.92-1.29-1.17-3.02-1.84-4.54-2.37-.92-.32-1.85-.62-2.78-.93-2.6-.85-5.06-1.65-7.27-2.8-10.11-5.25-9.41-17.02,1.9-32.31,12.14,1.93,18.88,11.88,19.72,20.11Z"/>
      <path class="cls-3" d="M125.58,166.13c.1,1.91,.26,4.16,.63,6.38,.87,5.19,2.78,8.83,5.83,11.12,1.82,1.36,3.91,2.1,5.92,2.82,1.82,.65,3.53,1.26,4.95,2.28,1.23,.88,2.27,2.07,3.37,3.33,1.61,1.84,3.27,3.75,5.68,4.8,2.32,1.02,4.79,1,7.18,.99,2.42-.02,4.7-.03,6.47,1.06,.69,.42,1.31,1.03,1.98,1.67,.71,.69,1.44,1.4,2.34,1.98,4.14,2.72,9.34,1.34,12.97-.31,.89-.4,1.77-.84,2.65-1.28,2.7-1.34,5.25-2.61,7.99-2.81l.79-.05c1.89-.1,4.23-.22,5.54-2.22l1.14-1.84-2.13-.52c-2.71-.67-5.52-1.35-8.13-2.32-6.41-2.39-12.19-6.71-16.29-12.17-1.87-2.49-3.47-5.32-5.03-8.05-2.74-4.82-5.58-9.81-10.04-13.43-9.43-7.66-24.69-6.32-32.64,2.87-.08,.1-.15,.21-.22,.31-.52,.74-.78,1.66-.9,2.65-.1,.9-.1,1.84-.05,2.74Zm3.38-5.63c.61-.11,1.31-.08,2.08,.06,7.18-6.08,19.06-6.57,26.4-.61,4,3.26,6.58,7.78,9.3,12.56,1.6,2.82,3.26,5.73,5.25,8.38,4.45,5.93,10.73,10.62,17.68,13.22,1.01,.38,2.03,.7,3.06,1.01-3.11,.36-5.89,1.74-8.58,3.08-.85,.42-1.69,.84-2.55,1.23-2.39,1.08-6.88,2.59-10.01,.53-.65-.42-1.24-.99-1.87-1.61-.76-.73-1.53-1.49-2.51-2.09-2.52-1.55-5.36-1.54-8.1-1.52-2.16,.01-4.21,.02-5.93-.73-1.77-.77-3.14-2.34-4.59-4-1.17-1.34-2.38-2.73-3.9-3.81-1.77-1.27-3.77-1.98-5.71-2.67-1.88-.67-3.66-1.31-5.11-2.39-2.41-1.81-3.89-4.72-4.63-9.15-.35-2.07-.49-4.21-.59-6.03-.12-2.36,.17-3.21,.42-3.51,.46-.53,.96-1.03,1.48-1.5-.52-.17-1.06-.32-1.61-.46Z"/>
      <path class="cls-3" d="M112.26,127.08l2.27,.71c.14,.04,.28,.09,.42,.13,3.23,1.01,6.3,1.95,9.27,2.87l7.73,2.39c9.23,2.79,18.93,5.14,27.03,.47,2.77-1.59,5.03-3.88,7.22-6.09,2.92-2.94,5.67-5.73,9.31-6.63,1.47-.37,3.04-.41,4.7-.46,2.33-.06,4.74-.13,7.03-1.11,5-2.17,7.08-6.29,9.27-10.65l.19-.38c1.5-2.98,3.7-5.14,5.95-5.88,1.37,.35,2.79,.38,4.31,.07l5.66-1.12-5.46-1.86c-1.46-.5-2.94-.6-4.42-.31-.98-.37-1.89-.95-2.93-1.61-1.63-1.04-3.47-2.21-6.04-2.81-1.83-.44-4.89-.04-8.7,.52-1,.15-1.89,.28-2.52,.34-1.1,.11-2.12,.38-3.12,.65-.51,.14-1.03,.28-1.53,.39-5.82,1.2-11.73-1.64-17.44-4.39-1.01-.48-2.01-.96-3-1.42-4.59-2.11-16-6.24-22.93,.82-2.04,2.09-3.16,4.72-4.25,7.26l-.26,.61c-3.98,9.21-9.34,17.73-15.92,25.34-.11,.12-.21,.25-.32,.38l-1.56,1.79Zm20.52-26.01c.04-.09,.08-.18,.12-.27l.27-.62c1.02-2.39,1.98-4.64,3.62-6.31,5.7-5.82,16.31-1.6,19.42-.17,.98,.45,1.96,.92,2.95,1.4,6.17,2.97,12.56,6.04,19.41,4.63,.57-.12,1.14-.27,1.7-.42,.91-.24,1.77-.47,2.61-.56,.66-.06,1.61-.2,2.67-.36,2.44-.36,6.13-.9,7.54-.57,2.05,.48,3.59,1.46,5.08,2.41,.06,.04,.12,.08,.18,.11l-1.34,.34,.62,.19c.51-.02,1.02-.04,1.52-.05-.32,.07-.64,.15-.96,.23l.39,.12c-1.8,1.36-3.4,3.34-4.62,5.76l-.19,.38c-2.1,4.18-3.76,7.48-7.74,9.2-1.75,.76-3.76,.81-5.89,.86-1.76,.05-3.58,.1-5.37,.55-4.48,1.12-7.67,4.34-10.76,7.46-2.14,2.16-4.16,4.2-6.57,5.58-7.03,4.05-16,1.85-24.58-.74l-4.15-1.28c-.79-.18-1.58-.37-2.37-.6,.17,.01,.34,.02,.51,.03l-1.73-.54c-2.42-.74-4.88-1.5-7.45-2.3,.25-.3,.49-.62,.74-.92-1.24,.25-2.5,.46-3.76,.62,1.54-.54,3.07-1.1,4.6-1.66,5.14-6.48,9.45-13.55,12.87-21.07-1.06,.66-2.1,1.34-3.11,2.03,1.16-1.25,2.43-2.39,3.75-3.45Z"/>
      <path class="cls-3" d="M88.03,102.02c9.85-4.82,17.43-14.93,19.92-26.72,2.25-10.68,.54-22.83-4.79-34.27-1.73-3.71-3.82-7.4-5.84-10.97-4.03-7.12-8.2-14.48-9.47-22.02-.07-.42-.11-.83-.16-1.25-.02,.29-.04,.58-.06,.8-.28,2.66-.6,5.32-.93,7.97,1.99,5.52,4.99,10.83,7.93,16.02,1.99,3.52,4.05,7.16,5.73,10.75,5.03,10.84,6.68,22.31,4.57,32.33-2.21,10.49-8.76,19.55-17.32,24.12,0-.05-.02-.1-.03-.15-.15-.91-.35-1.81-.57-2.72-.17,.68-.35,1.36-.55,2.03,.09-1.09,.17-2.15,.25-3.22-1.84-6.8-5.47-13.49-10.4-19.2-.26-.28-.5-.56-.74-.85-.93-1.03-1.9-2.03-2.91-2.98l-.32-.31c-.86-.82-1.68-1.59-2.21-2.48-.63-1.06-.91-2.43-1.17-3.76l-1.76-8.93c-.11-.56-.22-1.12-.31-1.69-.49-2.9-.8-6.53,1.13-8.91,.49-.61,1.14-1.16,1.83-1.74,1.28-1.08,2.73-2.31,3.34-4.19,.32-1,.38-2.08,.18-3.3-.15-.87-.42-1.76-.7-2.64-.36-1.16-.73-2.42-.7-3.4,.11-2.59,2.55-4.45,5.13-6.41,.91-.69,1.81-1.37,2.62-2.09,2.66-2.35,4.66-5.47,5.99-9.32,.08,.27,.17,.54,.26,.81,.36-1.45,.71-2.86,1.03-4.23,.23-.97,.43-1.93,.62-2.9-.08-.8-.14-1.6-.16-2.39,.1-1.21,.16-2.43,.18-3.62l-3.08-.2c-.14,1.22-.21,2.47-.19,3.71-.64,7.14-2.89,12.46-6.69,15.81-.75,.67-1.59,1.3-2.44,1.94-2.9,2.2-6.19,4.7-6.35,8.74-.06,1.37,.36,2.95,.83,4.46,.47,1.48,.87,3.01,.53,4.05-.34,1.05-1.29,1.85-2.4,2.79-.77,.65-1.56,1.32-2.24,2.16-2.7,3.34-2.37,7.83-1.77,11.37,.1,.6,.21,1.2,.33,1.78l1.76,8.92c.3,1.52,.64,3.23,1.55,4.75,.75,1.25,1.76,2.21,2.74,3.13l.32,.31c7.42,7.01,12.55,16.28,14.02,25.36,.11,.66,.2,1.33,.27,1.99l.06,.57,.16,1.55,.06-.03,1.89-.83c.35-.16,.7-.34,1.04-.51Z"/>
      <path class="cls-3" d="M1.73,109.44c-.36-2.15-.95-4.23-1.73-6.2v21.94c2.02-4.78,2.66-10.24,1.73-15.74Z"/>
      <path class="cls-3" d="M60.77,276.6c-.16,.04-.32,.07-.48,.1,.11,.36,.23,.72,.34,1.09l.37-1.03c-.08-.05-.15-.11-.23-.16Z"/>
      <path class="cls-3" d="M61.08,276.54c-.08,.02-.15,.03-.23,.05,.06,.02,.12,.05,.19,.08l.05-.13Z"/>
      <path class="cls-3" d="M57.34,277.63c-.17-.52-.33-1.05-.49-1.55l-.49-1.55,.84-.22c-18.11-6.03-37.72-9.73-57.2-10.88v3.1c19.55,1.17,39.23,4.95,57.34,11.1Z"/>
      <path class="cls-3" d="M56.85,276.08c.16,.5,.33,1.02,.49,1.55,1.49,4.72,3.15,10.24,4.84,15.87l.63,2.1c.54,1.79,1.14,3.82,2.34,5.59,1.77,2.61,4.43,4.11,7,5.57,1.86,1.05,3.62,2.05,5,3.41,1.21,1.21,2.14,2.69,3.12,4.26,.59,.95,1.19,1.9,1.85,2.8,3.97,5.42,10.35,8.86,17.06,9.21,1.9,.1,3.78-.04,5.6-.18,1.7-.13,3.31-.25,4.92-.19,1.74,.07,5.99,.55,7.93,3.54l4.06,6.27-1.24-7.36c-.5-2.98-2.22-5.17-3.75-7.11-1.29-1.64-2.5-3.18-2.8-4.97l-.05-.4c-.14-1.47,.03-2.99,.21-4.59,.09-.77,.17-1.54,.22-2.31,.16-2.24,.05-4.53-.34-6.8-1.72-10.22-8.82-19.81-18.54-25.03-10.54-5.67-23.85-6.8-37.47-3.18l-.73,.19-.84,.22,.49,1.55Zm37.08,3.94c8.9,4.78,15.4,13.52,16.96,22.82,.34,2.03,.44,4.07,.3,6.07-.05,.73-.13,1.46-.21,2.18-.14,1.24-.27,2.5-.28,3.79,.24,.61,.5,1.22,.76,1.83,.59,1.2,1.12,2.1,2.17,3.04-1.15-.75-2.05-1.8-2.8-2.93,.4,2.63,1.93,4.59,3.43,6.49,.14,.18,.28,.36,.41,.53-.23-.08-.47-.14-.71-.21,.18,.17,.37,.34,.54,.51-.34-.2-.66-.43-.99-.64-1.02-.26-2.11-.42-3.25-.5,.09,.04,.19,.07,.29,.1-.28-.05-.57-.09-.85-.14-1.76-.06-3.49,.07-5.18,.2-1.8,.14-3.5,.27-5.2,.18-5.79-.3-11.3-3.27-14.73-7.95-.62-.84-1.17-1.72-1.72-2.61-1.03-1.65-2.09-3.36-3.57-4.82-1.67-1.65-3.69-2.8-5.65-3.9-2.36-1.34-4.6-2.6-5.96-4.61-.93-1.37-1.44-3.09-1.94-4.74l-.63-2.1c-1.56-5.21-3.1-10.33-4.5-14.81-.11-.36-.23-.73-.34-1.09,.16-.04,.32-.07,.48-.1-.06-.04-.11-.08-.17-.12,.09,.03,.17,.07,.25,.1,.08-.02,.15-.03,.23-.05,12.01-2.69,23.6-1.48,32.84,3.48Z"/>
      <path class="cls-3" d="M83.28,294.09c-6.38-7.02-13.27-13.89-22.24-17.43-.06-.02-.12-.05-.19-.08-.09-.03-.17-.07-.25-.1,.06,.04,.11,.08,.17,.12,.08,.05,.15,.11,.23,.16,7.75,5.28,14.96,11.6,22.27,17.32Z"/>
      <path class="cls-3" d="M113.52,323.5c.33,.21,.65,.44,.99,.64-.18-.17-.36-.34-.54-.51-1.87-1.77-3.94-3.46-6.02-4.93,1.59,1.9,3.51,3.46,5.57,4.8Z"/>
      <path class="cls-1" d="M86,304.26c.05,.09,.08,.16,.09,.25"/>
      <path class="cls-3" d="M70.74,288.44c-.26-.69-.62-1.35-1.08-1.94,.28,.66,.68,1.42,1.08,1.94Z"/>
      <path class="cls-3" d="M86.22,294.73c5.88,7.86,11.81,15.88,19.53,22.07-5.92-7.26-13.2-16.98-19.53-22.07Z"/>
      <path class="cls-3" d="M70.47,296.03c-1.83-4.71-4.21-9.55-6.56-13.86,1.3,5.01,3.63,9.63,6.56,13.86Z"/>
      <path class="cls-3" d="M92.18,288.09c-5.36-4.37-12.26-7.18-18.81-8.62,6.16,3.06,12.73,5.58,18.81,8.62Z"/>
      <path class="cls-3" d="M79.65,278.89c2.27,.26,4.37,.51,6.42,1.4-6-3.62-14.05-3.6-20.6-3.27,4.73,.63,9.42,1.46,14.18,1.87Z"/>
      <path class="cls-3" d="M109.7,322.97c.28,.05,.57,.09,.85,.14-.09-.04-.19-.07-.29-.1-5.9-2.37-12.5-2.63-18.6-3.86,5.67,2.66,11.96,2.86,18.03,3.83Z"/>
      <path class="cls-3" d="M105.2,297.28c.07,.58,.12,1.15,.18,1.74,.57,6.01,1.94,12.11,5.12,17.31,.1,.17,.22,.33,.33,.5,.75,1.13,1.65,2.18,2.8,2.93-1.05-.94-1.58-1.84-2.17-3.04-.27-.61-.52-1.22-.76-1.83-1.89-4.71-3.12-9.34-4.54-14.19-.29-1.11-.64-2.43-.95-3.42Z"/>
      <path class="cls-3" d="M86.29,60.8c1.66,11.43,1.31,22.11,.43,33.92-.08,1.07-.16,2.13-.25,3.22,.19-.67,.37-1.35,.55-2.03,2.95-11.52,3.26-23.96-.73-35.11Z"/>
      <path class="cls-3" d="M85.97,13.34c-1.11,4.51-2.29,9.33-2.76,13.95-.69,7.1-.26,14.32,1.13,21.3-.52-11.08,1.01-22.05,2.37-33.02,.33-2.66,.65-5.31,.93-7.97,.02-.23,.04-.51,.06-.8,.03-.48,.06-.96,.05-1.16-.04,.2-.09,.39-.13,.59-.19,.97-.39,1.93-.62,2.9-.32,1.36-.67,2.78-1.03,4.23Z"/>
      <path class="cls-3" d="M77.01,47.94c.53-3.44,1.23-7.06,1.49-10.46-1.1,3.37-1.65,6.91-1.49,10.46Z"/>
      <path class="cls-3" d="M97.3,50.95c-.86-2.95-1.97-6.04-3.44-8.65,.8,3.02,2.08,5.85,3.44,8.65Z"/>
      <path class="cls-3" d="M92.86,32c-2.2-3.68-3.44-5.37-5.45-8.78,2.96,7.8,7.18,15.15,12.35,21.7-2.41-4.24-4.27-8.79-6.89-12.93Z"/>
      <path class="cls-3" d="M93.93,79.59c-1.75,5.83-2.77,11.9-4.07,17.78,2.62-5.53,3.78-11.8,4.07-17.78Z"/>
      <path class="cls-3" d="M78.47,77.36c-1.1-.87-1.72-2.03-2.34-2.98-3.77-6.85-5.59-12.36-6.66-19.85-.21-1.34-.39-3.1-.54-4.24-.06,.93-.11,1.88-.16,2.82-.41,6.44,.98,13,4.57,18.43,.69,1.06,1.42,2.14,2.23,3.14,.24,.29,.49,.58,.74,.85,.65,.69,1.35,1.32,2.15,1.84Z"/>
      <path class="cls-3" d="M119.26,123.57c-1.53,.56-3.06,1.12-4.6,1.66,1.26-.16,2.52-.37,3.76-.62,8.05-1.59,15.7-4.82,23.2-8.09-7.7,1.55-15.02,4.36-22.36,7.05Z"/>
      <path class="cls-3" d="M198.19,101.06c.32-.08,.64-.15,.96-.23-.51,0-1.02,.03-1.52,.05-9.44,.4-18.73,3.11-27.42,5.95,9.52-.99,18.72-3.59,27.99-5.78Z"/>
      <path class="cls-3" d="M154.11,111.53c3.51-.47,6.99-1.15,10.47-1.84-3.57-.21-7.21,.52-10.47,1.84Z"/>
      <path class="cls-3" d="M126.57,117.25c2.77-2.43,5.63-3.89,8.82-5.75,4.63-2.61,9.07-5.58,13.68-8.23-8.28,3-16.71,7.17-22.5,13.97Z"/>
      <path class="cls-3" d="M153.64,126.1c.41-.18,.86-.38,1.24-.56-.8,.2-1.61,.38-2.42,.56-8.93,1.93-16.98,2.87-25.6,2.26-.17-.01-.34-.01-.51-.03,.78,.23,1.57,.43,2.37,.6,8.33,1.85,17.16,.71,24.93-2.84Z"/>
      <path class="cls-3" d="M149.24,92.66c-5.88,1.84-11.64,4.53-16.46,8.41-1.32,1.06-2.59,2.2-3.75,3.45,1.01-.7,2.05-1.37,3.11-2.03,5.5-3.46,11.51-6.55,17.11-9.83Z"/>
      <path class="cls-3" d="M174.25,191.32c-4.45-3.52-9.27-8.15-13.92-10.9,4.19,4.19,8.63,8.34,13.92,10.9Z"/>
      <path class="cls-3" d="M149.94,174.14c-3.92-5.21-13.3-12.52-18.9-13.57-.77-.15-1.48-.18-2.08-.06,.55,.13,1.08,.29,1.61,.46,1.11,.36,2.16,.81,3.05,1.46,5.5,3.78,11.22,7.44,16.32,11.72Z"/>
      <path class="cls-3" d="M154.5,174.68c2.44,2.08,5.11,3.89,7.66,5.83-2.01-2.53-4.82-4.46-7.66-5.83Z"/>
      <path class="cls-3" d="M149.54,181.5c4.69,3.37,9.85,6.08,15.31,7.97-4.82-2.94-10.3-6.07-15.31-7.97Z"/>
      <path class="cls-3" d="M294.93,161.05c1.99-8.35,8.38-13.86,14.34-19.7,1.12-1.06,2.64-2.4,3.57-3.29-1.02,.62-2.03,1.25-3.02,1.92-7.26,4.78-14.62,11.83-14.89,21.07Z"/>
      <path class="cls-3" d="M334.79,123.5c-6.68,2.99-13.4,6.03-19.53,10.05,8.93-3.92,19.84-7.05,27.93-12.68,2.07-1.44,3.95-3.05,5.57-4.88,.19-.21,.39-.41,.56-.62-.15,.13-.32,.25-.47,.38-1.5,1.23-3.07,2.3-4.72,3.25-2.92,1.69-6.05,3.06-9.35,4.51Z"/>
      <path class="cls-3" d="M313.99,127.03c-3.91,.81-7.54,2.58-10.85,4.79,3.67-1.31,7.58-3.14,10.85-4.79Z"/>
      <path class="cls-3" d="M335.87,127.04c-4.86,3.2-8.98,7.33-13.4,11.08,5.14-2.64,9.43-6.79,13.4-11.08Z"/>
      <path class="cls-3" d="M324.23,122.05c1.64-.3,3.27-.66,4.88-1.09-3.84,.1-7.66,.45-11.46,.94-2.29,.3-4.58,.63-6.86,1.02,4.5,.28,9.02-.06,13.44-.87Z"/>
      <path class="cls-3" d="M333.32,121.12c.06-.02,.12-.05,.18-.07-.83,.12-1.65,.27-2.47,.44-5.39,1.1-10.54,3.09-15.74,4.86,6.26-.62,12.22-2.89,18.04-5.23Z"/>
      <path class="cls-3" d="M347.63,195.4c-.78,.53-1.55,1.07-2.31,1.63,.73-.33,1.48-.66,2.23-1,7.11-3.2,14.9-6.93,20.53-11.15-7.07,3-14.08,6.2-20.45,10.52Z"/>
      <path class="cls-3" d="M418.99,167.56c1.43-.29,2.87-.56,4.32-.75-2.07-.03-4.11,.08-6.14,.29-15.83,1.63-30.19,9.96-44.77,15.94,16.12-3.89,30.75-12.26,46.58-15.47Z"/>
      <path class="cls-3" d="M345.47,198.27c-.27,.08-.54,.17-.81,.25,.74-.05,1.49-.15,2.24-.25,3.4-.49,6.78-1.49,9.82-2.85-3.94,.66-7.62,1.72-11.24,2.85Z"/>
      <path class="cls-3" d="M353.51,186.22c-1.6,.69-3.1,1.53-4.56,2.47-1.31,.84-2.57,1.76-3.8,2.72,0,0-.01,.01-.02,.02,0,0,.01,0,.02-.01,1.23-.55,2.43-1.22,3.6-1.92,1.68-1.01,3.29-2.13,4.76-3.27Z"/>
      <path class="cls-3" d="M380.81,162.94c-6.91,.36-13.84,2.21-19.83,5.68,1.98-.82,4.09-1.22,6.24-1.81,4.56-1.16,9.07-2.68,13.59-3.87Z"/>
      <path class="cls-3" d="M368.72,262.61c-.33,.28-.67,.55-.99,.85,.45-.25,.91-.5,1.36-.75,4.93-2.68,10.17-5.26,14.67-8.33-5.34,1.99-10.67,4.54-15.04,8.23Z"/>
      <path class="cls-3" d="M395.78,250.81c-2.53,.6-4.99,1.54-7.27,2.82,2.48-.64,5.18-1.66,7.27-2.82Z"/>
      <path class="cls-3" d="M419.06,243.47c-5.61,1.27-11.22,2.45-16.89,3.41,5.81,.01,11.56-.47,17.26-1.55,6.12-.81,12.3-1.95,18.18-3.78,1.02-.32,2.04-.65,3.04-1.02-1.88,.33-3.76,.61-5.64,.86-5.31,.71-10.65,1.2-15.95,2.07Z"/>
      <path class="cls-3" d="M366.11,294.52c3.49,2.2,7.09,4.23,10.41,6.67,1.22,.93,2.35,1.82,3.42,2.69-4.47-2.79-9.37-4.86-14.3-6.76-.77-.3-1.55-.59-2.32-.89,.9,.58,1.82,1.13,2.76,1.67,5.71,3.31,11.96,6.04,17.44,9.07,2.47,2.27,4.75,4.66,7.32,7.63,.59,.64,1.28,1.45,1.79,2.01-.32-.53-.65-1.04-.97-1.55-3.57-5.88-8.06-11.29-13.77-15.21-2.97-2.01-6.2-3.54-9.47-5-1.88-.84-3.77-1.65-5.63-2.52,1.08,.76,2.19,1.48,3.31,2.19Z"/>
      <path class="cls-3" d="M403.16,328.21s-.07-.05-.11-.01c-.03,.04,.01,.08,.03,.11-.04-.04,0-.09,.05-.07,.39,.34,.68,.78,1.01,1.16,2.09,2.64,4.35,5.18,6.96,7.33,4.45,3.57,9.51,6.39,14.22,9.6-4.48-1.37-8.9-1.92-13.54-2.93-3.81-.98-9.62-2.54-14.11-3.5,4.65,1.87,9.23,4.06,14.15,5.07,2.63,.58,5.78,.79,8.68,.98,1.55,.1,3,.2,4.29,.34,.18,.02,.38,.04,.56,.06,.05,.03,.1,.07,.14,.1,.97,.66,1.92,1.33,2.85,2.03-.8-.9-1.66-1.75-2.53-2.57-4.94-4.66-10.82-8.2-16.24-12.27-2.23-1.69-4.22-3.7-6.42-5.43Z"/>
      <path class="cls-3" d="M356.13,363.81c-3.74-4.52-8.3-9-13.99-10.73-.48-.15-.97-.28-1.47-.39,.48,.18,.93,.4,1.37,.63,.93,.48,1.81,1.06,2.73,1.68,3.86,2.82,7.62,5.81,11.36,8.8Z"/>
      <path class="cls-3" d="M373.61,384.86c1,.9,2.27,2.01,3.16,2.73-.51-.54-1.04-1.11-1.55-1.67-.19-.2-.37-.43-.56-.64,.44,.37,.88,.75,1.34,1.08-4.61-5.11-8.13-11.07-12.74-16.19,1.15,1.99,2.35,4,3.63,5.95-1.9-2.29-3.83-4.53-5.92-6.68-5.68-5.64-12.16-10.55-19.51-13.81-.18-.08-.36-.17-.54-.25,.18,.11,.35,.22,.52,.33,12.83,7.79,20.65,18.61,32.17,29.14Z"/>
      <path class="cls-3" d="M382.75,390.14c5.08,3.05,10.36,5.85,15.99,7.68-5.03-3.12-10.41-5.7-15.99-7.68Z"/>
      <path class="cls-3" d="M402.62,399.88c-10.25-4.46-21.44-5.03-31.52-8.48,9.46,5.53,20.89,6.25,31.52,8.48Z"/>
      <path class="cls-3" d="M285.46,347.01c1.73,6.96,5.24,13.68,9.56,19.21-2.93-6.53-6.37-12.81-9.56-19.21Z"/>
      <path class="cls-3" d="M319.5,395.97c.51,.47,1.01,.95,1.52,1.4-.75-1.01-1.51-2.01-2.28-3.01-5.99-7.79-12.5-15.15-18.86-22.63,5.03,9.03,11.96,17.17,19.62,24.24Z"/>
      <path class="cls-3" d="M293.94,470.52c6.13,9.64,15.44,16.65,25.37,22.12,1.66,.91,3.33,1.78,5.01,2.61,.27,.13,.58,.28,.8,.35-.77-.51-1.54-1.04-2.29-1.59-.59-.45-1.2-.9-1.79-1.34-9.42-7.06-19.31-13.69-27.09-22.15Z"/>
      <path class="cls-3" d="M260.17,446.35c3.65,5.18,8.72,9.33,13.55,13.26-3.89-5.12-9.02-9.22-13.57-13.44-.11-.11-.23-.21-.35-.32,.11,.17,.24,.33,.36,.49Z"/>
      <path class="cls-3" d="M263.51,444.09c-.31-.14-.63-.28-.94-.41,.24,.18,.5,.34,.76,.5,1.73,1.16,3.61,2.14,5.5,2.92-1.62-1.24-3.44-2.19-5.31-3.01Z"/>
      <path class="cls-3" d="M269.66,441.46c-.07-.03-.13-.06-.2-.08,.05,.03,.11,.07,.16,.1,.71,.44,1.54,.9,2.24,1.13-.67-.49-1.41-.86-2.2-1.14Z"/>
      <path class="cls-3" d="M264.62,456.95c3.27,5.96,9.31,11.06,14.68,14.37-2.64-2.55-6.73-6.62-8.56-8.29-2.19-2.11-4.08-3.49-6.12-6.08Z"/>
      <path class="cls-3" d="M207.91,501.95c.29-8.27,1.63-16.44,2.61-24.65,.93-8.31,1.54-16.68,2.84-24.95-4.62,15.91-6.99,33.31-5.45,49.6Z"/>
      <path class="cls-3" d="M213.02,530.99c.23,.98,.51,1.95,.85,2.91-.16-1.03-.27-2.06-.35-3.09-.47-5.59-.06-11.19-.45-16.81-.95,5.6-1.36,11.44-.05,16.99Z"/>
      <path class="cls-3" d="M173.26,381.02c.44-.78,.89-1.56,1.34-2.33-.51,.62-1.01,1.25-1.51,1.88-9.68,12.28-16.58,26.53-25.87,39.09,11.34-10.97,18.34-25.12,26.04-38.64Z"/>
      <path class="cls-3" d="M162.99,383.76c1.93-1.86,3.59-3.96,5.26-6.04-2.02,1.67-3.96,3.94-5.26,6.04Z"/>
      <path class="cls-3" d="M174.39,384.62c-.33,.52-.67,1.16-.86,1.7,.35-.53,.65-1.09,.86-1.7Z"/>
      <path class="cls-3" d="M159.1,419.64c2.69-2.37,5.11-5.06,7.07-8.07-2.55,2.45-5.13,5.19-7.07,8.07Z"/>
    </g>
  </g>
</svg>