<svg width="45" height="56" viewBox="0 0 45 56" fill="none" xmlns="http://www.w3.org/2000/svg">
<path d="M0 17.5629C0 -5.437 45 -6.43698 45 18.0629V55.0629H0V17.5629Z" fill="#1E3135"/>
<path d="M17.16 33V31.992H17.832C18.2 31.992 18.528 31.952 18.816 31.872C19.12 31.792 19.36 31.632 19.536 31.392C19.712 31.136 19.8 30.76 19.8 30.264V28.296H12.408V27.312L19.824 15.864H22.104V26.952H25.08V28.296H22.104V30.264C22.104 30.76 22.192 31.136 22.368 31.392C22.544 31.632 22.784 31.792 23.088 31.872C23.392 31.952 23.72 31.992 24.072 31.992H24.384V33H17.16ZM14.136 26.952H19.8V22.512C19.8 22.16 19.8 21.776 19.8 21.36C19.816 20.944 19.824 20.512 19.824 20.064C19.84 19.616 19.856 19.176 19.872 18.744C19.904 18.312 19.936 17.912 19.968 17.544C19.888 17.704 19.76 17.944 19.584 18.264C19.408 18.584 19.208 18.936 18.984 19.32C18.76 19.688 18.544 20.048 18.336 20.4C18.128 20.736 17.952 21.016 17.808 21.24L14.136 26.952Z" fill="white"/>
<path d="M10.671 47V46.197L12.508 44.074C12.8013 43.7367 13.047 43.4323 13.245 43.161C13.443 42.8897 13.6007 42.6367 13.718 42.402C13.8427 42.1673 13.9307 41.9363 13.982 41.709C14.0407 41.4743 14.07 41.2323 14.07 40.983C14.07 40.7043 14.0297 40.4623 13.949 40.257C13.8683 40.0443 13.7437 39.8793 13.575 39.762C13.4137 39.6447 13.2047 39.586 12.948 39.586C12.618 39.586 12.365 39.663 12.189 39.817C12.013 39.971 11.892 40.1727 11.826 40.422C11.7673 40.664 11.738 40.9317 11.738 41.225C11.562 41.225 11.4007 41.2067 11.254 41.17C11.1147 41.126 11.001 41.0527 10.913 40.95C10.8323 40.84 10.792 40.6933 10.792 40.51C10.792 40.224 10.8727 39.971 11.034 39.751C11.1953 39.531 11.4373 39.3587 11.76 39.234C12.0827 39.102 12.4787 39.036 12.948 39.036C13.41 39.036 13.806 39.113 14.136 39.267C14.4733 39.4137 14.73 39.6263 14.906 39.905C15.0893 40.1763 15.181 40.499 15.181 40.873C15.181 41.0783 15.1517 41.28 15.093 41.478C15.0417 41.676 14.9647 41.874 14.862 42.072C14.7593 42.27 14.6347 42.4753 14.488 42.688C14.3413 42.8933 14.1727 43.1097 13.982 43.337C13.7913 43.5643 13.5787 43.8063 13.344 44.063L11.485 46.12H14.026C14.356 46.12 14.5797 46.0357 14.697 45.867C14.8143 45.6983 14.8987 45.5077 14.95 45.295L14.994 45.097H15.456L15.401 47H10.671ZM19.2245 47.11C18.6232 47.11 18.1319 46.9413 17.7505 46.604C17.3692 46.2667 17.0869 45.7937 16.9035 45.185C16.7275 44.5763 16.6395 43.865 16.6395 43.051C16.6395 42.237 16.7275 41.5293 16.9035 40.928C17.0869 40.3267 17.3692 39.861 17.7505 39.531C18.1319 39.201 18.6269 39.036 19.2355 39.036C19.8075 39.036 20.2842 39.201 20.6655 39.531C21.0469 39.861 21.3292 40.3303 21.5125 40.939C21.7032 41.5403 21.7985 42.248 21.7985 43.062C21.7985 43.876 21.7032 44.5873 21.5125 45.196C21.3219 45.7973 21.0359 46.2667 20.6545 46.604C20.2805 46.9413 19.8039 47.11 19.2245 47.11ZM19.2245 46.516C19.4885 46.516 19.7122 46.439 19.8955 46.285C20.0789 46.131 20.2255 45.9073 20.3355 45.614C20.4455 45.3133 20.5262 44.9503 20.5775 44.525C20.6289 44.0923 20.6545 43.6047 20.6545 43.062C20.6545 42.5193 20.6289 42.0353 20.5775 41.61C20.5335 41.1847 20.4529 40.8253 20.3355 40.532C20.2255 40.2387 20.0789 40.015 19.8955 39.861C19.7195 39.707 19.4995 39.63 19.2355 39.63C18.9642 39.63 18.7369 39.707 18.5535 39.861C18.3702 40.015 18.2199 40.2387 18.1025 40.532C17.9925 40.8253 17.9119 41.1847 17.8605 41.61C17.8092 42.0353 17.7835 42.5193 17.7835 43.062C17.7835 43.6047 17.8092 44.0923 17.8605 44.525C17.9119 44.9503 17.9925 45.3133 18.1025 45.614C18.2125 45.9073 18.3592 46.131 18.5425 46.285C18.7332 46.439 18.9605 46.516 19.2245 46.516ZM22.9601 47V46.197L24.7971 44.074C25.0904 43.7367 25.3361 43.4323 25.5341 43.161C25.7321 42.8897 25.8897 42.6367 26.0071 42.402C26.1317 42.1673 26.2197 41.9363 26.2711 41.709C26.3297 41.4743 26.3591 41.2323 26.3591 40.983C26.3591 40.7043 26.3187 40.4623 26.2381 40.257C26.1574 40.0443 26.0327 39.8793 25.8641 39.762C25.7027 39.6447 25.4937 39.586 25.2371 39.586C24.9071 39.586 24.6541 39.663 24.4781 39.817C24.3021 39.971 24.1811 40.1727 24.1151 40.422C24.0564 40.664 24.0271 40.9317 24.0271 41.225C23.8511 41.225 23.6897 41.2067 23.5431 41.17C23.4037 41.126 23.2901 41.0527 23.2021 40.95C23.1214 40.84 23.0811 40.6933 23.0811 40.51C23.0811 40.224 23.1617 39.971 23.3231 39.751C23.4844 39.531 23.7264 39.3587 24.0491 39.234C24.3717 39.102 24.7677 39.036 25.2371 39.036C25.6991 39.036 26.0951 39.113 26.4251 39.267C26.7624 39.4137 27.0191 39.6263 27.1951 39.905C27.3784 40.1763 27.4701 40.499 27.4701 40.873C27.4701 41.0783 27.4407 41.28 27.3821 41.478C27.3307 41.676 27.2537 41.874 27.1511 42.072C27.0484 42.27 26.9237 42.4753 26.7771 42.688C26.6304 42.8933 26.4617 43.1097 26.2711 43.337C26.0804 43.5643 25.8677 43.8063 25.6331 44.063L23.7741 46.12H26.3151C26.6451 46.12 26.8687 46.0357 26.9861 45.867C27.1034 45.6983 27.1877 45.5077 27.2391 45.295L27.2831 45.097H27.7451L27.6901 47H22.9601ZM29.1046 47V46.197L30.9416 44.074C31.2349 43.7367 31.4806 43.4323 31.6786 43.161C31.8766 42.8897 32.0343 42.6367 32.1516 42.402C32.2763 42.1673 32.3643 41.9363 32.4156 41.709C32.4743 41.4743 32.5036 41.2323 32.5036 40.983C32.5036 40.7043 32.4633 40.4623 32.3826 40.257C32.3019 40.0443 32.1773 39.8793 32.0086 39.762C31.8473 39.6447 31.6383 39.586 31.3816 39.586C31.0516 39.586 30.7986 39.663 30.6226 39.817C30.4466 39.971 30.3256 40.1727 30.2596 40.422C30.2009 40.664 30.1716 40.9317 30.1716 41.225C29.9956 41.225 29.8343 41.2067 29.6876 41.17C29.5483 41.126 29.4346 41.0527 29.3466 40.95C29.2659 40.84 29.2256 40.6933 29.2256 40.51C29.2256 40.224 29.3063 39.971 29.4676 39.751C29.6289 39.531 29.8709 39.3587 30.1936 39.234C30.5163 39.102 30.9123 39.036 31.3816 39.036C31.8436 39.036 32.2396 39.113 32.5696 39.267C32.9069 39.4137 33.1636 39.6263 33.3396 39.905C33.5229 40.1763 33.6146 40.499 33.6146 40.873C33.6146 41.0783 33.5853 41.28 33.5266 41.478C33.4753 41.676 33.3983 41.874 33.2956 42.072C33.1929 42.27 33.0683 42.4753 32.9216 42.688C32.7749 42.8933 32.6063 43.1097 32.4156 43.337C32.2249 43.5643 32.0123 43.8063 31.7776 44.063L29.9186 46.12H32.4596C32.7896 46.12 33.0133 46.0357 33.1306 45.867C33.2479 45.6983 33.3323 45.5077 33.3836 45.295L33.4276 45.097H33.8896L33.8346 47H29.1046Z" fill="white"/>
<path d="M27.4 18.1C26.8933 18.1 26.5233 17.9867 26.29 17.76C26.0633 17.5267 25.95 17.1233 25.95 16.55V13.21H25.19V12.81C25.31 12.81 25.4433 12.7867 25.59 12.74C25.7367 12.6867 25.8633 12.6033 25.97 12.49C26.0833 12.37 26.1767 12.2233 26.25 12.05C26.3233 11.8767 26.3833 11.6633 26.43 11.41H26.89V12.64H28.2V13.21H26.89V16.58C26.89 16.92 26.96 17.17 27.1 17.33C27.24 17.49 27.4233 17.57 27.65 17.57C27.77 17.57 27.88 17.5633 27.98 17.55C28.08 17.5367 28.1833 17.52 28.29 17.5V17.94C28.2033 17.98 28.0733 18.0167 27.9 18.05C27.7267 18.0833 27.56 18.1 27.4 18.1ZM28.6956 18V17.58H28.7756C28.929 17.58 29.0656 17.5633 29.1856 17.53C29.3123 17.4967 29.4123 17.43 29.4856 17.33C29.559 17.2233 29.5956 17.0667 29.5956 16.86V11.5C29.5956 11.3 29.5556 11.1533 29.4756 11.06C29.4023 10.96 29.3023 10.8967 29.1756 10.87C29.0556 10.8367 28.9223 10.82 28.7756 10.82H28.6956V10.4H30.5356V12.6C30.5356 12.72 30.5323 12.8467 30.5256 12.98C30.519 13.1067 30.5123 13.2167 30.5056 13.31C30.499 13.4033 30.4956 13.45 30.4956 13.45H30.5456C30.6456 13.25 30.7656 13.0833 30.9056 12.95C31.0523 12.81 31.2156 12.7067 31.3956 12.64C31.5823 12.5733 31.789 12.54 32.0156 12.54C32.589 12.54 33.0256 12.6967 33.3256 13.01C33.6323 13.3167 33.7856 13.8133 33.7856 14.5V16.86C33.7856 17.0667 33.819 17.2233 33.8856 17.33C33.9523 17.43 34.0423 17.4967 34.1556 17.53C34.2756 17.5633 34.409 17.58 34.5556 17.58H34.5856V18H32.8456V14.55C32.8456 14.1167 32.7623 13.78 32.5956 13.54C32.4356 13.3 32.1523 13.18 31.7456 13.18C31.4723 13.18 31.2456 13.2467 31.0656 13.38C30.8856 13.5133 30.7523 13.7033 30.6656 13.95C30.579 14.19 30.5356 14.4733 30.5356 14.8V16.91C30.5356 17.1033 30.5723 17.25 30.6456 17.35C30.7256 17.4433 30.8256 17.5067 30.9456 17.54C31.0723 17.5667 31.209 17.58 31.3556 17.58H31.3856V18H28.6956Z" fill="white"/>
</svg>
