<?xml version="1.0" encoding="UTF-8"?>
<svg id="Layer_1" data-name="Layer 1" xmlns="http://www.w3.org/2000/svg" viewBox="0 0 1608.89 596">
  <defs>
    <style>
      .cls-1 {
        fill: #2b2b2b;
      }
    </style>
  </defs>
  <path class="cls-1" d="M523.49,155.89c.49,2.86,.66,5.82,.36,8.85-6.52,66.02-23.98,125.48-52.36,178.36-33.48,62.36-82.53,115.82-147.13,160.39h-44.5c-26.95,0-49.74-19.97-53.27-46.69l-38.43-290.97c-2.68-20.3,12.08-38.75,32.48-40.59l24.44-2.2c9.27-.83,17.52,5.88,18.57,15.13l34.18,299.54h6.36c46.68-38.66,82.16-83.64,106.45-134.92,24.29-51.28,37.6-109.34,39.97-174.18h40.52c6.75,0,12.96,2.06,18.15,5.52-24.59-34.17-56.58-62.67-93.74-82.96-39.95-21.81-85.76-34.22-134.48-34.22-101.4,0-190.24,53.71-239.67,134.22C15.15,193.9,0,244.17,0,298s13.88,99.8,38.1,141.32c17.64,30.25,17.84,67.8,1.12,98.57-6.1,11.22-12.71,22.13-19.8,32.69-2.4,3.57,.05,8.41,4.35,8.41h.1c31.9,0,62.94-3.65,92.73-10.56,30.11-6.98,61.42-7.12,91.26,.94,23.34,6.31,47.87,9.68,73.2,9.69,155.45,0,280.33-124.25,281.07-279.7,.25-52.38-13.91-101.4-38.63-143.47Z"/>
  <g>
    <path class="cls-1" d="M731.48,267.75c-27.07,0-50.52,7.28-68.18,20.85v-9.35c0-5.23-4.24-9.46-9.46-9.46h-37.4c-5.23,0-9.46,4.23-9.46,9.46v215.45c0,5.23,4.24,9.46,9.46,9.46h39.02c5.23,0,9.46-4.24,9.46-9.46v-110.97c0-40.03,20.89-62.08,58.83-62.08,32.75,0,48.67,17.51,48.67,53.55v119.51c0,5.23,4.24,9.46,9.46,9.46h39.03c5.23,0,9.46-4.24,9.46-9.46v-123.98c0-64.47-36.97-102.96-98.9-102.96Z"/>
    <rect class="cls-1" x="921.23" y="269.79" width="57.95" height="234.37" rx="9.46" ry="9.46"/>
    <path class="cls-1" d="M950.21,177.51c-20.12,0-35.89,15.4-35.89,35.07s15.76,34.67,35.89,34.67,35.89-15.25,35.89-35.48-15.76-34.26-35.89-34.26Z"/>
    <path class="cls-1" d="M1284.77,183.6h-39.03c-5.23,0-9.46,4.24-9.46,9.46v95.89c-17.77-13.8-40.41-21.21-65.74-21.21-69.72,0-118.41,49.02-118.41,119.22s48.69,119.63,118.41,119.63c26.3,0,49.49-7.78,67.37-22.29v10.39c0,5.23,4.23,9.46,9.46,9.46h37.4c5.23,0,9.46-4.24,9.46-9.46V193.07c0-5.23-4.24-9.46-9.46-9.46Zm-110.98,269.92c-37.27,0-63.3-27.37-63.3-66.55s25.44-66.15,63.3-66.15,62.89,27.2,62.89,66.15-25.86,66.55-62.89,66.55Z"/>
    <path class="cls-1" d="M1599.42,269.79h-39.03c-5.22,0-9.46,4.23-9.46,9.46v9.71c-17.77-13.8-40.41-21.21-65.74-21.21-69.72,0-118.41,49.02-118.41,119.22s48.69,119.63,118.41,119.63c26.3,0,49.49-7.78,67.37-22.29v10.39c0,5.23,4.24,9.46,9.46,9.46h37.4c5.22,0,9.46-4.24,9.46-9.46v-215.45c0-5.23-4.24-9.46-9.46-9.46Zm-110.98,183.74c-37.27,0-63.3-27.37-63.3-66.55s25.44-66.15,63.3-66.15,62.9,27.2,62.9,66.15-25.87,66.55-62.9,66.55Z"/>
  </g>
</svg>